<?xml version="1.0" encoding="utf-8" standalone="no"?>
<!DOCTYPE svg PUBLIC "-//W3C//DTD SVG 1.1//EN"
  "http://www.w3.org/Graphics/SVG/1.1/DTD/svg11.dtd">
<svg xmlns:xlink="http://www.w3.org/1999/xlink" width="460.8pt" height="345.6pt" viewBox="0 0 460.8 345.6" xmlns="http://www.w3.org/2000/svg" version="1.1">
 <metadata>
  <rdf:RDF xmlns:dc="http://purl.org/dc/elements/1.1/" xmlns:cc="http://creativecommons.org/ns#" xmlns:rdf="http://www.w3.org/1999/02/22-rdf-syntax-ns#">
   <cc:Work>
    <dc:type rdf:resource="http://purl.org/dc/dcmitype/StillImage"/>
    <dc:date>2024-08-24T13:33:44.145606</dc:date>
    <dc:format>image/svg+xml</dc:format>
    <dc:creator>
     <cc:Agent>
      <dc:title>Matplotlib v3.9.1, https://matplotlib.org/</dc:title>
     </cc:Agent>
    </dc:creator>
   </cc:Work>
  </rdf:RDF>
 </metadata>
 <defs>
  <style type="text/css">*{stroke-linejoin: round; stroke-linecap: butt}</style>
 </defs>
 <g id="figure_1">
  <g id="patch_1">
   <path d="M 0 345.6 
L 460.8 345.6 
L 460.8 0 
L 0 0 
z
" style="fill: #ffffff"/>
  </g>
  <g id="axes_1">
   <g id="patch_2">
    <path d="M 57.6 307.584 
L 414.72 307.584 
L 414.72 41.472 
L 57.6 41.472 
z
" style="fill: #ffffff"/>
   </g>
   <g id="PolyCollection_1">
    <defs>
     <path id="m9fcc4e9061" d="M 60.790924 -38.016 
L 60.790924 -290.122105 
L 61.083669 -292.38803 
L 61.66916 -292.172006 
L 62.25465 -293.284636 
L 62.547396 -293.750029 
L 62.840141 -293.688884 
L 63.132886 -293.720342 
L 63.425632 -294.002531 
L 63.718377 -293.885521 
L 64.011122 -294.189532 
L 64.303868 -294.29949 
L 64.596613 -294.567032 
L 64.889358 -294.836892 
L 65.182103 -294.967638 
L 65.474849 -295.019778 
L 65.767594 -294.816756 
L 66.060339 -295.189646 
L 66.353085 -294.693958 
L 66.64583 -294.985906 
L 66.938575 -295.190063 
L 67.231321 -294.93234 
L 67.524066 -295.207204 
L 67.816811 -295.083389 
L 68.109557 -295.252367 
L 68.695047 -295.347166 
L 69.573283 -295.286076 
L 69.866028 -295.311502 
L 70.158774 -295.266171 
L 70.451519 -295.374704 
L 70.744264 -295.529507 
L 71.329755 -295.790306 
L 71.6225 -295.523524 
L 71.915246 -295.909081 
L 72.207991 -296.067303 
L 72.500736 -296.135462 
L 73.086227 -296.328035 
L 73.378972 -296.174475 
L 73.671717 -295.867691 
L 73.964463 -295.674684 
L 74.257208 -295.455687 
L 74.549953 -295.312121 
L 75.135444 -295.338595 
L 75.428189 -295.155707 
L 76.01368 -295.402957 
L 76.306425 -295.807728 
L 76.59917 -295.542902 
L 76.891916 -295.411007 
L 77.184661 -295.305912 
L 77.477406 -295.168205 
L 78.062897 -295.235571 
L 78.355642 -295.434574 
L 78.648388 -294.873045 
L 78.941133 -294.652328 
L 79.233878 -294.982524 
L 79.526623 -294.955356 
L 79.819369 -295.106363 
L 80.112114 -295.570009 
L 80.404859 -295.730779 
L 80.697605 -296.194952 
L 80.99035 -296.052128 
L 81.575841 -296.22104 
L 81.868586 -296.319773 
L 82.161331 -296.107091 
L 82.454077 -296.212356 
L 82.746822 -296.056861 
L 83.039567 -296.277602 
L 83.332312 -296.38778 
L 83.625058 -296.643067 
L 83.917803 -296.697429 
L 84.503294 -296.923557 
L 84.796039 -296.977985 
L 85.38153 -297.055326 
L 85.674275 -297.111051 
L 85.96702 -296.97084 
L 86.259766 -297.323633 
L 86.552511 -297.38837 
L 86.845256 -297.320476 
L 87.430747 -297.714301 
L 87.723492 -297.765236 
L 88.016237 -297.937643 
L 88.308983 -297.908286 
L 88.601728 -297.953908 
L 88.894473 -298.076507 
L 89.187219 -298.25404 
L 89.772709 -298.370134 
L 90.065455 -298.408974 
L 90.3582 -298.661168 
L 90.650945 -298.799307 
L 90.94369 -298.709779 
L 91.236436 -299.055391 
L 91.529181 -298.997919 
L 91.821926 -299.163629 
L 92.407417 -299.160582 
L 92.700162 -299.457288 
L 92.992908 -299.522448 
L 93.285653 -299.824258 
L 93.578398 -299.720783 
L 93.871144 -299.918492 
L 94.163889 -299.82538 
L 94.456634 -299.935759 
L 94.749379 -299.915612 
L 95.042125 -299.90119 
L 95.33487 -299.789011 
L 95.627615 -299.776091 
L 95.920361 -299.893591 
L 96.213106 -299.967026 
L 96.505851 -299.960306 
L 96.798597 -299.862883 
L 97.091342 -299.725579 
L 97.384087 -299.674952 
L 97.676833 -299.823657 
L 97.969578 -299.813531 
L 98.555068 -299.540306 
L 98.847814 -299.089637 
L 99.72605 -299.003273 
L 100.018795 -298.988826 
L 100.604286 -299.219264 
L 100.897031 -299.459154 
L 101.482522 -299.398743 
L 102.068012 -299.580506 
L 102.360757 -299.562396 
L 102.653503 -299.652537 
L 102.946248 -299.604657 
L 103.238993 -299.589591 
L 103.531739 -299.598879 
L 104.117229 -299.444381 
L 104.409975 -299.666802 
L 104.70272 -299.79538 
L 104.995465 -299.956624 
L 105.580956 -300.15725 
L 105.873701 -300.288887 
L 106.166446 -300.408556 
L 106.459192 -300.547991 
L 106.751937 -300.791947 
L 107.044682 -300.949975 
L 107.337428 -300.765668 
L 107.922918 -300.915794 
L 108.215664 -301.016193 
L 108.801154 -301.162516 
L 109.093899 -301.17144 
L 109.67939 -301.120557 
L 109.972135 -301.177011 
L 110.264881 -301.208332 
L 110.850371 -301.15055 
L 111.143117 -301.145102 
L 111.435862 -301.182488 
L 112.021353 -301.003223 
L 112.314098 -300.534353 
L 112.606843 -300.653517 
L 112.899588 -300.74858 
L 113.485079 -300.740712 
L 113.777824 -300.812709 
L 114.07057 -300.977863 
L 114.363315 -301.109621 
L 114.65606 -301.12741 
L 114.948806 -301.02452 
L 115.241551 -301.061747 
L 115.534296 -301.034419 
L 115.827042 -300.963807 
L 116.412532 -301.027502 
L 116.705277 -301.08526 
L 117.583513 -301.131027 
L 118.754495 -301.197651 
L 119.04724 -301.250024 
L 119.632731 -301.178524 
L 119.925476 -301.376425 
L 120.218221 -301.520212 
L 120.803712 -301.596258 
L 121.096457 -301.380756 
L 121.389202 -301.318236 
L 121.681948 -301.446301 
L 121.974693 -301.424929 
L 122.852929 -301.5458 
L 123.145674 -301.577286 
L 123.43842 -301.685531 
L 123.731165 -301.70615 
L 124.02391 -301.669702 
L 124.316655 -301.672577 
L 124.609401 -301.726505 
L 124.902146 -301.830706 
L 125.194891 -301.864024 
L 125.487637 -301.811036 
L 125.780382 -301.740836 
L 126.073127 -301.702129 
L 126.658618 -301.79301 
L 126.951363 -301.578197 
L 127.244109 -301.666808 
L 127.829599 -301.725692 
L 128.122344 -301.729262 
L 128.41509 -301.872501 
L 128.707835 -301.800563 
L 129.00058 -301.786317 
L 129.293326 -301.751423 
L 129.586071 -301.666825 
L 130.171562 -301.603583 
L 130.464307 -301.591626 
L 131.049798 -301.568581 
L 131.342543 -301.467755 
L 131.635288 -301.65365 
L 132.220779 -301.729463 
L 132.513524 -301.68062 
L 132.806269 -301.715474 
L 133.099015 -301.68296 
L 133.39176 -301.509385 
L 133.684505 -301.578751 
L 133.977251 -301.643808 
L 134.269996 -301.736908 
L 134.562741 -301.607417 
L 134.855487 -301.678789 
L 135.148232 -301.617712 
L 135.440977 -301.642012 
L 135.733722 -301.757118 
L 136.319213 -301.655183 
L 136.611958 -301.733712 
L 136.904704 -301.808502 
L 137.197449 -301.793855 
L 137.78294 -301.880035 
L 138.075685 -301.877896 
L 138.36843 -301.64666 
L 138.953921 -301.590832 
L 139.539411 -301.564115 
L 140.124902 -301.497344 
L 140.417647 -301.349672 
L 140.710393 -301.363898 
L 141.003138 -301.261542 
L 141.295883 -301.181634 
L 141.881374 -301.309876 
L 142.174119 -301.272645 
L 142.466864 -301.221506 
L 142.75961 -301.338017 
L 143.052355 -301.227657 
L 143.3451 -301.265913 
L 143.637846 -301.265173 
L 143.930591 -301.263357 
L 145.394318 -301.283657 
L 145.979808 -301.427033 
L 146.272553 -301.504248 
L 146.858044 -301.350745 
L 147.150789 -301.363542 
L 147.443535 -301.440658 
L 147.73628 -301.517013 
L 148.029025 -301.653933 
L 148.321771 -301.690419 
L 148.614516 -301.622786 
L 148.907261 -301.542405 
L 149.200007 -301.683218 
L 149.492752 -301.57876 
L 149.785497 -301.56289 
L 150.663733 -301.624574 
L 150.956478 -301.649022 
L 151.249224 -301.599339 
L 151.541969 -301.738198 
L 151.834714 -301.538697 
L 152.420205 -301.682175 
L 152.71295 -301.684001 
L 153.005696 -301.677561 
L 153.298441 -301.692239 
L 153.591186 -301.612112 
L 153.883931 -301.460198 
L 154.176677 -301.383029 
L 154.469422 -301.438642 
L 154.762167 -301.36487 
L 155.054913 -301.438974 
L 155.347658 -301.560678 
L 155.640403 -301.333934 
L 155.933149 -301.333286 
L 156.225894 -301.534418 
L 156.518639 -301.67457 
L 156.811385 -301.54875 
L 157.396875 -301.36577 
L 157.68962 -301.423872 
L 158.275111 -301.517533 
L 158.860602 -301.639921 
L 159.446092 -301.713936 
L 159.738838 -301.724277 
L 160.031583 -301.852115 
L 160.324328 -301.87946 
L 160.617074 -301.668645 
L 160.909819 -301.643345 
L 161.202564 -301.669168 
L 161.495309 -301.809858 
L 161.788055 -301.606544 
L 162.0808 -301.293115 
L 162.373545 -301.336513 
L 162.666291 -301.423253 
L 162.959036 -301.510173 
L 163.251781 -301.594636 
L 163.544527 -301.737362 
L 163.837272 -301.731426 
L 164.130017 -301.617757 
L 164.422763 -301.65336 
L 164.715508 -301.623982 
L 165.008253 -301.647573 
L 165.300998 -301.811092 
L 165.593744 -301.834432 
L 165.886489 -301.810876 
L 166.179234 -301.698391 
L 166.47198 -301.608718 
L 166.764725 -301.687877 
L 167.05747 -301.763263 
L 167.350216 -301.876694 
L 167.642961 -301.696132 
L 167.935706 -301.755315 
L 168.228452 -301.806977 
L 168.521197 -301.966498 
L 169.106687 -302.030921 
L 169.399433 -301.820366 
L 169.984923 -301.782136 
L 170.277669 -301.627671 
L 170.570414 -301.591359 
L 170.863159 -301.551961 
L 171.155905 -301.477443 
L 171.44865 -301.415414 
L 171.741395 -301.42542 
L 172.326886 -301.522522 
L 172.619631 -301.500953 
L 173.205122 -301.638058 
L 173.497867 -301.589762 
L 173.790612 -301.669133 
L 174.083358 -301.509504 
L 174.376103 -301.534471 
L 174.961594 -301.49724 
L 175.254339 -301.513894 
L 175.547084 -301.531955 
L 175.839829 -301.405033 
L 176.42532 -301.552957 
L 176.718065 -301.59747 
L 177.010811 -301.605991 
L 177.303556 -301.641023 
L 177.596301 -301.661778 
L 178.181792 -301.455177 
L 178.474537 -301.440949 
L 178.767283 -301.378792 
L 179.352773 -301.423572 
L 179.645518 -301.38132 
L 180.231009 -301.387196 
L 180.8165 -301.492682 
L 181.109245 -301.565241 
L 181.40199 -301.614587 
L 181.987481 -301.779221 
L 182.280226 -301.942311 
L 182.572972 -302.005277 
L 183.158462 -301.872344 
L 183.451207 -301.905063 
L 183.743953 -301.903484 
L 184.036698 -302.043284 
L 184.329443 -302.005543 
L 184.622189 -302.101161 
L 184.914934 -302.003784 
L 185.500425 -302.048712 
L 186.085915 -302.106486 
L 186.671406 -302.147086 
L 187.256896 -302.070236 
L 188.135132 -301.966118 
L 188.427878 -301.835146 
L 189.013368 -301.803527 
L 189.306114 -301.708321 
L 189.598859 -301.768116 
L 189.891604 -301.903938 
L 190.18435 -301.859301 
L 190.76984 -301.852299 
L 191.062585 -301.966755 
L 191.355331 -301.789421 
L 191.648076 -301.77694 
L 191.940821 -301.714977 
L 192.233567 -301.582691 
L 192.526312 -301.480544 
L 192.819057 -301.425315 
L 193.111803 -301.485934 
L 193.404548 -301.500955 
L 193.697293 -301.511345 
L 193.990039 -301.617285 
L 194.575529 -301.661076 
L 194.868274 -301.524592 
L 195.16102 -301.624249 
L 195.453765 -301.477088 
L 195.74651 -301.664872 
L 196.039256 -301.527693 
L 196.332001 -301.541371 
L 196.624746 -301.582658 
L 196.917492 -301.676449 
L 197.210237 -301.498184 
L 197.502982 -301.501644 
L 197.795728 -301.566143 
L 198.088473 -301.650505 
L 198.381218 -301.742347 
L 198.673963 -301.616763 
L 198.966709 -301.775363 
L 199.259454 -301.416729 
L 199.552199 -301.357361 
L 199.844945 -301.477083 
L 200.430435 -301.669922 
L 200.723181 -301.808931 
L 201.894162 -301.792136 
L 202.186907 -301.749015 
L 202.479652 -301.739959 
L 202.772398 -301.563323 
L 203.065143 -301.688394 
L 203.357888 -301.756875 
L 203.650634 -301.860366 
L 203.943379 -302.08713 
L 204.52887 -301.985508 
L 204.821615 -302.044511 
L 205.11436 -302.001661 
L 205.992596 -301.891122 
L 206.285341 -301.907102 
L 206.870832 -301.871914 
L 207.749068 -301.847909 
L 208.041813 -301.836015 
L 208.334559 -301.729534 
L 208.627304 -301.779377 
L 208.920049 -301.89029 
L 209.212794 -301.783794 
L 209.50554 -301.798527 
L 209.798285 -301.866139 
L 210.09103 -301.902406 
L 210.383776 -301.979868 
L 210.676521 -301.930187 
L 211.262012 -301.929519 
L 211.554757 -301.876801 
L 211.847502 -301.897982 
L 212.140248 -301.989399 
L 212.432993 -302.058107 
L 212.725738 -302.031426 
L 213.018483 -301.935167 
L 213.603974 -302.092678 
L 213.896719 -302.145774 
L 214.189465 -301.975591 
L 214.48221 -302.089315 
L 216.238682 -302.182869 
L 216.824172 -302.193163 
L 217.116918 -302.07977 
L 217.409663 -302.251593 
L 217.702408 -302.1448 
L 217.995154 -302.20688 
L 218.287899 -302.131243 
L 218.580644 -302.199915 
L 218.87339 -302.083685 
L 219.166135 -302.02386 
L 219.45888 -301.970594 
L 219.751626 -301.880379 
L 220.044371 -301.820295 
L 220.337116 -301.715804 
L 220.629861 -301.69696 
L 220.922607 -301.63284 
L 221.215352 -301.638261 
L 221.508097 -301.710883 
L 222.093588 -301.756105 
L 222.386333 -301.87318 
L 222.679079 -301.865739 
L 223.264569 -301.819422 
L 223.557315 -301.854749 
L 223.85006 -301.81516 
L 224.142805 -301.759762 
L 224.43555 -301.773069 
L 224.728296 -301.958509 
L 225.021041 -302.066137 
L 225.313786 -302.026227 
L 225.606532 -301.997639 
L 225.899277 -301.88045 
L 226.192022 -301.811122 
L 226.484768 -301.62585 
L 226.777513 -301.642535 
L 227.070258 -301.43829 
L 227.363004 -301.389987 
L 227.655749 -301.487697 
L 227.948494 -301.605509 
L 228.241239 -301.556175 
L 228.533985 -301.660548 
L 228.82673 -301.862285 
L 229.412221 -301.794748 
L 229.704966 -301.712233 
L 229.997711 -301.480236 
L 230.290457 -301.553061 
L 230.583202 -301.410474 
L 230.875947 -301.442704 
L 231.168693 -301.448562 
L 231.461438 -301.428021 
L 231.754183 -301.345279 
L 232.046928 -301.465283 
L 232.339674 -301.510626 
L 232.632419 -301.643528 
L 232.925164 -301.624843 
L 233.21791 -301.750233 
L 233.8034 -301.690922 
L 234.096146 -301.725552 
L 234.388891 -301.628411 
L 234.974382 -301.647162 
L 235.267127 -301.743589 
L 235.559872 -301.624846 
L 235.852617 -301.575809 
L 236.145363 -301.405219 
L 236.438108 -301.481489 
L 236.730853 -301.575655 
L 237.023599 -301.638147 
L 237.316344 -301.514971 
L 237.609089 -301.414425 
L 237.901835 -301.49255 
L 238.19458 -301.59707 
L 238.78007 -301.595843 
L 239.365561 -301.712048 
L 239.658306 -301.660425 
L 239.951052 -301.605604 
L 240.829288 -301.620893 
L 242.000269 -301.71327 
L 242.293014 -301.7959 
L 242.585759 -301.94886 
L 242.878505 -301.751515 
L 243.17125 -301.663598 
L 243.463995 -301.54359 
L 243.756741 -301.623441 
L 244.049486 -301.668415 
L 244.927722 -301.660329 
L 245.220467 -301.664896 
L 245.513213 -301.633097 
L 245.805958 -301.523613 
L 246.391448 -301.564572 
L 246.684194 -301.63267 
L 246.976939 -301.743111 
L 247.56243 -301.795476 
L 247.855175 -301.776757 
L 248.14792 -301.837531 
L 248.440666 -301.76421 
L 248.733411 -301.746917 
L 249.026156 -301.766161 
L 249.318902 -301.829504 
L 249.611647 -301.796566 
L 249.904392 -301.828561 
L 250.197137 -301.82644 
L 250.489883 -301.905832 
L 250.782628 -302.016964 
L 251.075373 -302.032856 
L 251.368119 -301.948132 
L 251.660864 -301.943766 
L 251.953609 -302.075109 
L 252.831845 -301.847912 
L 253.124591 -301.974523 
L 253.417336 -301.798127 
L 253.710081 -301.78734 
L 254.002826 -301.778776 
L 254.295572 -301.748326 
L 254.588317 -301.580902 
L 254.881062 -301.624148 
L 255.173808 -301.502194 
L 255.466553 -301.57337 
L 255.759298 -301.516595 
L 256.052044 -301.558304 
L 256.344789 -301.430736 
L 256.637534 -301.39656 
L 257.223025 -301.511487 
L 257.51577 -301.44501 
L 257.808515 -301.478669 
L 258.101261 -301.342334 
L 258.394006 -301.525302 
L 258.686751 -301.594708 
L 258.979497 -301.649467 
L 259.272242 -301.455557 
L 259.564987 -301.624719 
L 259.857733 -301.643413 
L 260.150478 -301.800918 
L 260.443223 -301.767886 
L 260.735969 -301.832378 
L 261.028714 -301.845429 
L 261.321459 -301.874306 
L 261.614204 -301.952191 
L 261.90695 -302.003956 
L 262.199695 -302.056987 
L 262.49244 -302.087306 
L 262.785186 -302.140473 
L 263.370676 -302.182681 
L 263.956167 -302.057741 
L 264.541658 -302.030775 
L 265.419893 -302.114806 
L 265.712639 -302.159538 
L 266.005384 -302.0609 
L 266.298129 -302.095884 
L 266.590875 -302.128727 
L 266.88362 -302.284046 
L 267.176365 -302.196653 
L 267.469111 -302.086088 
L 267.761856 -302.062673 
L 268.054601 -301.974703 
L 268.347347 -301.885887 
L 268.640092 -301.79004 
L 268.932837 -301.927491 
L 269.811073 -301.841911 
L 270.103818 -301.7636 
L 270.396564 -301.82158 
L 270.982054 -301.819941 
L 271.2748 -301.919519 
L 271.567545 -301.848218 
L 271.86029 -301.925611 
L 272.153035 -302.051528 
L 272.445781 -302.076564 
L 272.738526 -302.07007 
L 273.031271 -302.070216 
L 273.324017 -302.146422 
L 273.909507 -302.071397 
L 274.202253 -302.07559 
L 274.494998 -302.13567 
L 274.787743 -301.971032 
L 275.080489 -301.968956 
L 275.665979 -301.978745 
L 275.958724 -301.871038 
L 276.25147 -301.945663 
L 276.544215 -301.875321 
L 276.83696 -301.767729 
L 277.129706 -301.803084 
L 277.422451 -301.679784 
L 277.715196 -301.716434 
L 278.007942 -301.482814 
L 278.300687 -301.543903 
L 278.593432 -301.482205 
L 278.886178 -301.441324 
L 279.178923 -301.387855 
L 279.471668 -301.359339 
L 280.057159 -301.493463 
L 280.349904 -301.499441 
L 280.642649 -301.554812 
L 280.935395 -301.608065 
L 281.22814 -301.767891 
L 281.520885 -301.89279 
L 281.813631 -301.943713 
L 282.106376 -301.887837 
L 282.984612 -301.967507 
L 283.277357 -302.025945 
L 283.862848 -301.930987 
L 284.155593 -301.857578 
L 284.448338 -301.924435 
L 284.741084 -301.6946 
L 285.033829 -301.726856 
L 285.326574 -301.638338 
L 285.912065 -301.660178 
L 286.20481 -301.734604 
L 286.497556 -301.742866 
L 286.790301 -301.80928 
L 287.083046 -301.921352 
L 287.375791 -301.949168 
L 287.668537 -302.064882 
L 287.961282 -302.118089 
L 288.546773 -302.234074 
L 288.839518 -302.161076 
L 289.132263 -302.126737 
L 289.425009 -302.088371 
L 289.717754 -302.01169 
L 290.010499 -302.055652 
L 290.303245 -302.124484 
L 290.59599 -302.186221 
L 290.888735 -302.268502 
L 291.18148 -302.279586 
L 291.474226 -302.142922 
L 291.766971 -301.954779 
L 292.059716 -301.918116 
L 292.352462 -301.967515 
L 292.645207 -302.090648 
L 292.937952 -302.162576 
L 293.230698 -302.080403 
L 293.523443 -302.02348 
L 293.816188 -302.085188 
L 294.108934 -302.044596 
L 294.401679 -302.049408 
L 294.694424 -302.003287 
L 294.987169 -302.051796 
L 295.57266 -301.953937 
L 295.865405 -302.046089 
L 296.158151 -301.980813 
L 296.450896 -301.82172 
L 296.743641 -301.942525 
L 297.036387 -301.869114 
L 297.329132 -301.775594 
L 297.621877 -301.798181 
L 298.207368 -301.866095 
L 298.500113 -301.924129 
L 298.792858 -301.919246 
L 299.085604 -301.962954 
L 299.378349 -301.795109 
L 299.671094 -301.759782 
L 300.256585 -301.596024 
L 300.54933 -301.566006 
L 300.842076 -301.604106 
L 301.134821 -301.720201 
L 301.720312 -301.555031 
L 302.013057 -301.530825 
L 302.305802 -301.606263 
L 302.598547 -301.641497 
L 303.184038 -301.599405 
L 303.476783 -301.599881 
L 303.769529 -301.694903 
L 304.062274 -301.783867 
L 304.355019 -301.686582 
L 304.647765 -301.643121 
L 304.94051 -301.681724 
L 305.233255 -301.769461 
L 305.526 -301.741189 
L 305.818746 -301.605851 
L 306.111491 -301.628426 
L 306.404236 -301.734152 
L 306.696982 -301.68523 
L 307.282472 -301.626089 
L 307.575218 -301.713541 
L 308.160708 -301.844369 
L 308.453454 -301.665317 
L 308.746199 -301.669041 
L 309.038944 -301.72797 
L 309.624435 -301.83258 
L 309.91718 -301.732754 
L 310.209925 -301.514537 
L 310.502671 -301.49328 
L 311.088161 -301.512382 
L 311.673652 -301.679535 
L 312.259143 -301.711751 
L 312.551888 -301.793396 
L 312.844633 -301.773489 
L 313.137378 -301.760632 
L 313.430124 -301.700337 
L 314.601105 -301.82978 
L 314.89385 -301.857448 
L 315.186596 -301.868751 
L 315.479341 -301.844445 
L 315.772086 -301.854734 
L 316.357577 -301.705508 
L 316.650322 -301.517319 
L 316.943067 -301.606704 
L 317.235813 -301.64207 
L 317.528558 -301.648027 
L 317.821303 -301.697433 
L 318.114049 -301.710551 
L 318.406794 -301.750691 
L 318.699539 -301.836354 
L 318.992285 -301.951064 
L 319.577775 -301.97381 
L 319.870521 -301.908986 
L 320.163266 -301.819138 
L 320.456011 -301.888489 
L 320.748756 -302.064873 
L 321.041502 -302.11942 
L 321.334247 -302.144051 
L 321.626992 -302.045452 
L 321.919738 -302.043297 
L 322.212483 -302.138851 
L 322.505228 -302.071396 
L 322.797974 -302.115769 
L 323.090719 -302.153562 
L 323.383464 -302.246413 
L 323.67621 -302.219663 
L 323.968955 -302.184004 
L 324.2617 -302.353543 
L 324.847191 -302.402625 
L 325.139936 -302.172423 
L 325.432681 -302.167276 
L 325.725427 -302.041068 
L 326.018172 -302.088117 
L 326.310917 -301.915672 
L 326.603663 -302.047481 
L 326.896408 -302.095493 
L 327.189153 -301.884852 
L 327.481899 -301.891647 
L 327.774644 -301.834838 
L 328.067389 -301.850021 
L 328.65288 -301.667582 
L 328.945625 -301.731373 
L 329.23837 -301.85666 
L 329.531116 -301.842138 
L 330.116606 -301.922275 
L 330.409352 -302.001864 
L 330.702097 -302.062748 
L 330.994842 -302.137738 
L 331.287588 -302.024401 
L 331.580333 -302.10477 
L 332.165823 -302.117793 
L 332.458569 -302.080998 
L 333.044059 -302.154074 
L 333.336805 -301.947579 
L 333.62955 -301.921267 
L 333.922295 -302.032841 
L 334.215041 -301.91803 
L 334.507786 -301.90488 
L 335.093276 -301.922973 
L 335.678767 -301.94465 
L 336.264258 -301.982834 
L 336.557003 -302.082821 
L 336.849748 -302.047896 
L 337.142494 -302.031268 
L 337.435239 -302.005824 
L 338.02073 -302.072362 
L 338.313475 -302.006608 
L 338.60622 -301.847841 
L 339.191711 -301.893128 
L 339.484456 -301.979328 
L 339.777201 -301.99407 
L 340.069947 -301.729256 
L 340.655437 -301.701056 
L 340.948183 -301.704919 
L 341.240928 -301.748236 
L 341.533673 -301.782711 
L 341.826419 -301.721066 
L 342.119164 -301.712414 
L 342.411909 -301.82179 
L 342.704654 -301.821895 
L 342.9974 -301.950739 
L 343.290145 -301.990338 
L 343.58289 -302.023779 
L 343.875636 -302.041214 
L 344.461126 -302.11287 
L 345.046617 -302.051993 
L 345.339362 -301.983751 
L 345.924853 -302.05819 
L 346.217598 -301.979893 
L 346.510343 -302.048621 
L 346.803089 -302.044164 
L 347.095834 -301.933904 
L 347.388579 -301.931949 
L 347.681325 -301.899297 
L 347.97407 -301.894156 
L 348.266815 -301.887378 
L 348.559561 -301.916977 
L 348.852306 -301.992189 
L 349.145051 -301.836755 
L 349.730542 -301.80913 
L 350.023287 -301.893702 
L 350.316032 -301.861566 
L 350.608778 -301.917746 
L 350.901523 -301.883863 
L 351.194268 -301.973067 
L 351.779759 -301.935582 
L 352.36525 -301.892152 
L 352.657995 -301.940313 
L 353.243486 -302.015967 
L 353.536231 -301.882329 
L 353.828976 -301.984042 
L 354.121721 -302.006372 
L 354.414467 -302.040891 
L 354.707212 -302.077715 
L 354.999957 -302.02227 
L 355.585448 -301.886981 
L 355.878193 -301.970784 
L 356.170939 -301.950387 
L 356.756429 -301.697476 
L 357.049175 -301.73685 
L 357.34192 -301.691928 
L 357.634665 -301.682268 
L 358.220156 -301.722108 
L 358.512901 -301.629036 
L 358.805646 -301.712597 
L 359.098392 -301.791589 
L 359.683882 -301.803273 
L 359.976628 -301.903341 
L 360.269373 -301.790263 
L 360.562118 -301.882855 
L 360.854864 -301.573462 
L 361.147609 -301.626755 
L 361.440354 -301.584106 
L 362.025845 -301.657401 
L 362.31859 -301.738597 
L 362.611335 -301.722618 
L 362.904081 -301.750253 
L 363.196826 -301.699014 
L 363.489571 -301.863158 
L 363.782317 -301.823238 
L 364.075062 -301.659793 
L 364.367807 -301.708233 
L 364.660553 -301.652613 
L 364.953298 -301.737272 
L 365.246043 -301.839073 
L 365.538788 -301.94125 
L 365.831534 -301.998758 
L 366.124279 -301.939478 
L 366.417024 -301.995659 
L 366.70977 -302.04015 
L 367.29526 -302.019714 
L 367.588006 -302.079054 
L 367.880751 -301.998491 
L 368.173496 -302.016744 
L 368.466241 -302.142836 
L 368.758987 -302.142248 
L 369.344477 -301.993884 
L 369.637223 -302.047268 
L 369.929968 -302.003759 
L 370.222713 -302.080226 
L 370.515459 -302.008645 
L 371.68644 -301.925169 
L 371.979185 -301.863401 
L 372.27193 -301.881682 
L 372.564676 -301.763855 
L 372.857421 -301.646133 
L 373.150166 -301.724584 
L 373.442912 -301.757656 
L 373.735657 -301.764546 
L 374.028402 -301.81763 
L 374.321148 -301.869941 
L 374.613893 -301.96759 
L 374.906638 -302.055215 
L 375.199384 -302.073129 
L 375.492129 -302.121405 
L 375.784874 -302.018039 
L 376.077619 -302.069214 
L 376.370365 -302.114275 
L 376.66311 -302.142875 
L 376.955855 -302.15677 
L 377.248601 -302.115465 
L 377.541346 -302.065569 
L 377.834091 -302.028249 
L 378.126837 -301.934475 
L 378.419582 -301.91413 
L 378.712327 -302.010392 
L 379.297818 -302.032889 
L 379.883308 -302.075286 
L 380.176054 -301.962077 
L 380.468799 -302.02114 
L 380.761544 -302.11133 
L 381.05429 -302.099826 
L 381.63978 -301.979385 
L 382.225271 -301.869634 
L 382.518016 -301.834784 
L 382.810762 -301.914618 
L 383.103507 -301.867681 
L 383.688997 -301.771701 
L 383.981743 -301.774446 
L 384.274488 -301.868657 
L 384.567233 -301.833665 
L 384.859979 -301.901016 
L 385.445469 -302.006738 
L 385.738215 -302.056594 
L 386.03096 -302.172764 
L 386.323705 -302.047916 
L 386.909196 -302.054804 
L 387.201941 -302.103346 
L 387.494686 -302.177002 
L 388.372922 -302.230029 
L 388.665668 -302.24828 
L 388.958413 -302.349217 
L 389.251158 -302.186732 
L 389.543904 -302.074663 
L 389.836649 -302.059195 
L 390.129394 -302.106506 
L 390.42214 -302.101289 
L 390.714885 -302.105901 
L 391.00763 -302.14726 
L 391.300375 -302.123686 
L 391.593121 -302.199677 
L 391.885866 -302.23229 
L 392.471357 -302.215304 
L 392.764102 -302.204539 
L 393.056847 -302.232338 
L 393.642338 -302.294122 
L 393.935083 -302.209271 
L 394.227829 -302.239395 
L 394.520574 -302.301404 
L 394.813319 -302.38031 
L 395.106064 -302.443915 
L 395.39881 -302.493766 
L 395.691555 -302.376156 
L 395.9843 -302.417158 
L 396.277046 -302.448554 
L 396.569791 -302.448722 
L 397.155282 -302.510806 
L 397.448027 -302.418967 
L 397.740772 -302.444041 
L 398.033518 -302.395999 
L 398.326263 -302.278421 
L 398.619008 -302.288501 
L 398.911753 -302.25491 
L 399.204499 -302.366762 
L 399.497244 -302.38391 
L 399.789989 -302.409465 
L 400.082735 -302.448788 
L 400.37548 -302.437247 
L 400.668225 -302.454641 
L 400.960971 -302.397389 
L 401.546461 -302.4346 
L 401.839206 -302.364125 
L 402.131952 -302.334959 
L 402.424697 -302.18486 
L 402.717442 -302.309991 
L 403.010188 -302.323003 
L 403.302933 -302.191927 
L 404.473914 -302.250883 
L 404.76666 -302.249128 
L 405.059405 -302.00249 
L 405.35215 -302.06414 
L 405.937641 -302.074301 
L 406.230386 -302.164003 
L 406.523131 -302.173468 
L 406.815877 -302.156327 
L 407.108622 -302.096763 
L 407.694113 -302.02227 
L 407.986858 -302.061949 
L 408.279603 -302.070902 
L 408.572349 -302.128831 
L 408.865094 -302.261617 
L 409.157839 -302.399647 
L 409.450584 -302.412455 
L 409.74333 -302.438267 
L 410.036075 -302.51512 
L 410.32882 -302.500594 
L 410.621566 -302.493557 
L 410.914311 -302.339239 
L 411.207056 -302.360666 
L 411.499802 -302.312871 
L 411.792547 -302.280387 
L 411.792547 -269.023346 
L 411.792547 -269.023346 
L 411.499802 -269.640544 
L 411.207056 -270.54865 
L 410.914311 -270.141543 
L 410.621566 -273.073588 
L 410.32882 -273.207295 
L 410.036075 -273.483273 
L 409.74333 -272.023082 
L 409.450584 -271.532638 
L 409.157839 -271.289289 
L 408.865094 -268.66673 
L 408.572349 -266.14378 
L 408.279603 -265.043133 
L 407.986858 -264.873027 
L 407.694113 -264.119134 
L 407.108622 -265.534502 
L 406.815877 -266.666208 
L 406.523131 -266.99189 
L 406.230386 -266.812054 
L 405.937641 -265.107716 
L 405.35215 -264.914667 
L 405.059405 -263.743302 
L 404.76666 -268.429432 
L 404.473914 -268.462783 
L 403.302933 -267.34261 
L 403.010188 -269.833051 
L 402.717442 -269.585821 
L 402.424697 -267.208331 
L 402.131952 -270.060225 
L 401.839206 -270.614378 
L 401.546461 -271.953396 
L 400.960971 -271.246387 
L 400.668225 -272.334187 
L 400.37548 -272.003697 
L 400.082735 -272.222981 
L 399.789989 -271.475831 
L 399.497244 -270.990283 
L 399.204499 -270.664473 
L 398.911753 -268.539293 
L 398.619008 -269.177515 
L 398.326263 -268.986003 
L 398.033518 -271.219984 
L 397.740772 -272.132771 
L 397.448027 -271.656373 
L 397.155282 -273.40132 
L 396.569791 -272.221727 
L 396.277046 -272.218535 
L 395.9843 -271.622007 
L 395.691555 -270.842969 
L 395.39881 -273.077545 
L 395.106064 -272.130384 
L 394.813319 -270.921886 
L 394.520574 -269.422669 
L 394.227829 -268.244506 
L 393.935083 -267.672141 
L 393.642338 -269.284327 
L 393.056847 -268.110423 
L 392.764102 -267.582232 
L 392.471357 -267.786776 
L 391.885866 -268.109517 
L 391.593121 -267.489868 
L 391.300375 -266.046034 
L 391.00763 -266.493934 
L 390.714885 -265.708116 
L 390.42214 -265.620489 
L 390.129394 -265.719616 
L 389.836649 -264.820713 
L 389.543904 -265.1146 
L 389.251158 -267.243904 
L 388.958413 -270.33113 
L 388.665668 -268.413321 
L 388.372922 -268.066545 
L 387.494686 -267.059029 
L 387.201941 -265.659571 
L 386.909196 -264.737275 
L 386.323705 -264.606402 
L 386.03096 -266.978508 
L 385.738215 -264.77129 
L 385.445469 -263.824013 
L 384.859979 -261.815299 
L 384.567233 -260.535636 
L 384.274488 -261.20049 
L 383.981743 -259.410477 
L 383.688997 -259.358322 
L 383.103507 -261.18194 
L 382.810762 -262.07375 
L 382.518016 -260.5569 
L 382.225271 -261.219039 
L 381.63978 -263.304309 
L 381.05429 -265.592699 
L 380.761544 -265.811263 
L 380.468799 -264.097655 
L 380.176054 -262.975454 
L 379.883308 -265.126431 
L 379.297818 -264.320886 
L 378.712327 -263.893447 
L 378.419582 -262.064463 
L 378.126837 -262.451022 
L 377.834091 -264.23274 
L 377.541346 -264.94181 
L 377.248601 -265.889836 
L 376.955855 -266.674624 
L 376.66311 -266.410621 
L 376.370365 -265.86723 
L 376.077619 -265.011061 
L 375.784874 -264.038744 
L 375.492129 -266.002689 
L 375.199384 -265.085454 
L 374.906638 -264.745091 
L 374.613893 -263.080217 
L 374.321148 -261.224885 
L 374.028402 -260.230966 
L 373.735657 -259.222365 
L 373.442912 -259.091458 
L 373.150166 -258.463098 
L 372.857421 -256.97252 
L 372.564676 -259.209252 
L 372.27193 -261.447965 
L 371.979185 -261.100624 
L 371.68644 -262.274211 
L 370.515459 -263.860261 
L 370.222713 -265.220291 
L 369.929968 -263.767417 
L 369.637223 -264.594095 
L 369.344477 -263.579799 
L 368.758987 -266.398712 
L 368.466241 -266.409889 
L 368.173496 -264.014133 
L 367.880751 -263.667336 
L 367.588006 -265.19803 
L 367.29526 -264.070563 
L 366.70977 -264.458856 
L 366.417024 -263.613523 
L 366.124279 -262.546086 
L 365.831534 -263.672393 
L 365.538788 -262.579752 
L 365.246043 -260.638383 
L 364.953298 -258.704164 
L 364.660553 -257.09564 
L 364.367807 -258.152434 
L 364.075062 -257.232076 
L 363.782317 -260.337518 
L 363.489571 -261.09601 
L 363.196826 -257.977258 
L 362.904081 -258.950803 
L 362.611335 -258.425747 
L 362.31859 -258.72935 
L 362.025845 -257.186624 
L 361.440354 -255.794015 
L 361.147609 -256.604346 
L 360.854864 -255.591786 
L 360.562118 -261.470249 
L 360.269373 -259.710996 
L 359.976628 -261.859485 
L 359.683882 -259.958178 
L 359.098392 -259.736198 
L 358.805646 -258.235342 
L 358.512901 -256.647684 
L 358.220156 -258.416044 
L 357.634665 -257.659094 
L 357.34192 -257.842624 
L 357.049175 -258.696159 
L 356.756429 -257.948038 
L 356.170939 -262.75336 
L 355.878193 -263.140892 
L 355.585448 -261.54863 
L 354.999957 -264.119126 
L 354.707212 -265.172594 
L 354.414467 -264.472925 
L 354.121721 -263.817072 
L 353.828976 -263.392802 
L 353.536231 -261.460251 
L 353.243486 -263.99937 
L 352.657995 -262.561955 
L 352.36525 -261.646888 
L 351.779759 -262.47205 
L 351.194268 -263.184274 
L 350.901523 -261.489406 
L 350.608778 -262.133165 
L 350.316032 -261.065763 
L 350.023287 -261.676344 
L 349.730542 -260.069466 
L 349.145051 -260.594348 
L 348.852306 -263.547591 
L 348.559561 -262.118572 
L 348.266815 -261.556191 
L 347.97407 -261.684961 
L 347.681325 -261.782639 
L 347.388579 -262.403035 
L 347.095834 -262.440173 
L 346.803089 -264.535113 
L 346.510343 -264.619794 
L 346.217598 -263.313968 
L 345.924853 -264.801603 
L 345.339362 -263.387266 
L 345.046617 -264.683858 
L 344.461126 -265.840526 
L 343.875636 -264.479073 
L 343.58289 -264.147804 
L 343.290145 -263.512428 
L 342.9974 -262.760041 
L 342.704654 -260.312011 
L 342.411909 -260.310015 
L 342.119164 -258.231871 
L 341.826419 -258.39625 
L 341.533673 -259.567507 
L 341.240928 -258.912487 
L 340.948183 -258.089455 
L 340.655437 -258.016061 
L 340.069947 -258.551863 
L 339.777201 -263.583335 
L 339.484456 -263.303229 
L 339.191711 -261.665428 
L 338.60622 -260.804985 
L 338.313475 -263.821544 
L 338.02073 -265.070887 
L 337.435239 -263.80666 
L 337.142494 -264.290093 
L 336.849748 -264.60603 
L 336.557003 -265.269601 
L 336.264258 -263.369849 
L 335.678767 -262.644352 
L 335.093276 -262.232479 
L 334.507786 -261.888713 
L 334.215041 -262.138562 
L 333.922295 -264.319986 
L 333.62955 -262.200069 
L 333.336805 -262.700003 
L 333.044059 -266.623413 
L 332.458569 -265.234954 
L 332.165823 -265.934064 
L 331.580333 -265.686635 
L 331.287588 -264.159625 
L 330.994842 -266.313022 
L 330.702097 -264.888218 
L 330.409352 -263.731414 
L 330.116606 -262.21922 
L 329.531116 -260.69663 
L 329.23837 -260.972548 
L 328.945625 -258.592088 
L 328.65288 -257.380067 
L 328.067389 -260.846403 
L 327.774644 -260.557914 
L 327.481899 -261.637291 
L 327.189153 -261.508183 
L 326.896408 -265.510361 
L 326.603663 -264.598138 
L 326.310917 -262.093767 
L 326.018172 -265.370217 
L 325.725427 -264.476285 
L 325.432681 -266.874242 
L 325.139936 -266.972044 
L 324.847191 -271.345874 
L 324.2617 -270.413314 
L 323.968955 -267.192075 
L 323.67621 -267.869599 
L 323.383464 -268.37785 
L 323.090719 -266.613672 
L 322.797974 -265.895603 
L 322.505228 -265.05253 
L 322.212483 -266.334167 
L 321.919738 -264.518644 
L 321.626992 -264.559592 
L 321.334247 -266.432964 
L 321.041502 -265.964971 
L 320.748756 -264.928588 
L 320.456011 -261.577292 
L 320.163266 -260.259619 
L 319.870521 -261.966743 
L 319.577775 -263.198384 
L 318.992285 -262.766215 
L 318.699539 -260.586719 
L 318.406794 -258.959133 
L 318.114049 -258.196465 
L 317.821303 -257.947225 
L 317.528558 -257.008517 
L 317.235813 -256.895322 
L 316.943067 -256.223373 
L 316.650322 -254.525069 
L 316.357577 -258.100649 
L 315.772086 -260.935948 
L 315.479341 -260.740457 
L 315.186596 -261.202264 
L 314.89385 -260.987507 
L 314.601105 -260.461812 
L 313.430124 -258.002402 
L 313.137378 -259.148015 
L 312.844633 -259.392291 
L 312.551888 -259.770531 
L 312.259143 -258.219265 
L 311.673652 -257.607173 
L 311.088161 -254.431266 
L 310.502671 -254.068326 
L 310.209925 -254.472208 
L 309.91718 -258.618321 
L 309.624435 -260.515025 
L 309.038944 -258.527425 
L 308.746199 -257.407772 
L 308.453454 -257.337022 
L 308.160708 -260.739016 
L 307.575218 -258.253282 
L 307.282472 -256.591691 
L 306.696982 -257.715369 
L 306.404236 -258.644893 
L 306.111491 -256.63609 
L 305.818746 -256.207173 
L 305.526 -258.778589 
L 305.233255 -259.315768 
L 304.94051 -257.648758 
L 304.647765 -256.91529 
L 304.355019 -257.741052 
L 304.062274 -259.589474 
L 303.769529 -257.899156 
L 303.476783 -256.093746 
L 303.184038 -256.084687 
L 302.598547 -256.884442 
L 302.305802 -256.214992 
L 302.013057 -254.781673 
L 301.720312 -255.241597 
L 301.134821 -258.379828 
L 300.842076 -256.174013 
L 300.54933 -255.450108 
L 300.256585 -256.020449 
L 299.671094 -259.131854 
L 299.378349 -259.803071 
L 299.085604 -262.992117 
L 298.792858 -262.161676 
L 298.500113 -262.254451 
L 298.207368 -261.151804 
L 297.621877 -259.861442 
L 297.329132 -259.432282 
L 297.036387 -261.209173 
L 296.743641 -262.603978 
L 296.450896 -260.308676 
L 296.158151 -263.33144 
L 295.865405 -264.571687 
L 295.57266 -262.820797 
L 294.987169 -264.680131 
L 294.694424 -263.758453 
L 294.401679 -264.63476 
L 294.108934 -264.54332 
L 293.816188 -265.314581 
L 293.523443 -264.142123 
L 293.230698 -265.223664 
L 292.937952 -266.784946 
L 292.645207 -265.418314 
L 292.352462 -263.07879 
L 292.059716 -262.140208 
L 291.766971 -262.836802 
L 291.474226 -266.411512 
L 291.18148 -269.00813 
L 290.888735 -268.797533 
L 290.59599 -267.234202 
L 290.303245 -266.061193 
L 290.010499 -264.753397 
L 289.717754 -263.918118 
L 289.425009 -265.375051 
L 289.132263 -266.104003 
L 288.839518 -266.756444 
L 288.546773 -268.143411 
L 287.961282 -265.939698 
L 287.668537 -264.928765 
L 287.375791 -262.730196 
L 287.083046 -262.201686 
L 286.790301 -260.072316 
L 286.497556 -258.81045 
L 286.20481 -258.653474 
L 285.912065 -257.239377 
L 285.326574 -256.82443 
L 285.033829 -258.506257 
L 284.741084 -257.893404 
L 284.448338 -262.260273 
L 284.155593 -260.989991 
L 283.862848 -262.384755 
L 283.277357 -264.18895 
L 282.984612 -263.07864 
L 282.106376 -261.564897 
L 281.813631 -262.626555 
L 281.520885 -261.659016 
L 281.22814 -259.285933 
L 280.935395 -256.249232 
L 280.642649 -255.237428 
L 280.349904 -254.185388 
L 280.057159 -254.07179 
L 279.471668 -251.523444 
L 279.178923 -252.065236 
L 278.886178 -253.081154 
L 278.593432 -253.857892 
L 278.300687 -255.030148 
L 278.007942 -253.869459 
L 277.715196 -258.308238 
L 277.422451 -257.61189 
L 277.129706 -259.954592 
L 276.83696 -259.282845 
L 276.544215 -261.327098 
L 276.25147 -262.663604 
L 275.958724 -261.24573 
L 275.665979 -263.292163 
L 275.080489 -263.106157 
L 274.787743 -263.145601 
L 274.494998 -266.273721 
L 274.202253 -265.132203 
L 273.909507 -265.052537 
L 273.324017 -266.478015 
L 273.031271 -265.030095 
L 272.738526 -265.027325 
L 272.445781 -265.150717 
L 272.153035 -264.675025 
L 271.86029 -262.282603 
L 271.567545 -260.812135 
L 271.2748 -262.166854 
L 270.982054 -260.274883 
L 270.396564 -260.306015 
L 270.103818 -259.2044 
L 269.811073 -260.692302 
L 268.932837 -262.318336 
L 268.640092 -259.706764 
L 268.347347 -261.527862 
L 268.054601 -263.215357 
L 267.761856 -264.886787 
L 267.469111 -265.331663 
L 267.176365 -267.43241 
L 266.88362 -269.09288 
L 266.590875 -266.141822 
L 266.298129 -265.517795 
L 266.005384 -264.853092 
L 265.712639 -266.727221 
L 265.419893 -265.877316 
L 264.541658 -264.280724 
L 263.956167 -264.79308 
L 263.370676 -267.16694 
L 262.785186 -266.364979 
L 262.49244 -265.354805 
L 262.199695 -264.778753 
L 261.90695 -263.771162 
L 261.614204 -262.787624 
L 261.321459 -261.307806 
L 261.028714 -260.759153 
L 260.735969 -260.511179 
L 260.443223 -259.28584 
L 260.150478 -259.913438 
L 259.857733 -256.920843 
L 259.564987 -256.565663 
L 259.272242 -253.351576 
L 258.979497 -257.03587 
L 258.686751 -255.995447 
L 258.394006 -254.676731 
L 258.101261 -251.200337 
L 257.808515 -253.79071 
L 257.51577 -253.151189 
L 257.223025 -254.414258 
L 256.637534 -252.23064 
L 256.344789 -252.879981 
L 256.052044 -255.303771 
L 255.759298 -254.511304 
L 255.466553 -255.590026 
L 255.173808 -254.237695 
L 254.881062 -256.554821 
L 254.588317 -255.733136 
L 254.295572 -258.914188 
L 254.002826 -259.492735 
L 253.710081 -259.655459 
L 253.417336 -259.860407 
L 253.124591 -263.21193 
L 252.831845 -260.806333 
L 251.953609 -265.123078 
L 251.660864 -262.627553 
L 251.368119 -262.710507 
L 251.075373 -264.32027 
L 250.782628 -264.018325 
L 250.489883 -261.906806 
L 250.197137 -260.398359 
L 249.904392 -260.438653 
L 249.611647 -259.830751 
L 249.318902 -260.456573 
L 249.026156 -259.253062 
L 248.733411 -258.887417 
L 248.440666 -259.215993 
L 248.14792 -260.60908 
L 247.855175 -259.454382 
L 247.56243 -259.81005 
L 246.976939 -258.8151 
L 246.684194 -256.716726 
L 246.391448 -255.422862 
L 245.805958 -254.644651 
L 245.513213 -256.724843 
L 245.220467 -257.329016 
L 244.927722 -257.242257 
L 244.049486 -257.395892 
L 243.756741 -256.541382 
L 243.463995 -255.024218 
L 243.17125 -257.304353 
L 242.878505 -258.974794 
L 242.585759 -262.724343 
L 242.293014 -259.818108 
L 242.000269 -258.248123 
L 240.829288 -256.492972 
L 239.951052 -256.202485 
L 239.658306 -257.244079 
L 239.365561 -258.224912 
L 238.78007 -256.01702 
L 238.19458 -256.040336 
L 237.901835 -254.054443 
L 237.609089 -252.570067 
L 237.316344 -254.480457 
L 237.023599 -256.820798 
L 236.730853 -255.633452 
L 236.438108 -253.844295 
L 236.145363 -252.395163 
L 235.852617 -255.636372 
L 235.559872 -256.568078 
L 235.267127 -258.824198 
L 234.974382 -256.992075 
L 234.388891 -256.635805 
L 234.096146 -258.481485 
L 233.8034 -257.823517 
L 233.21791 -258.950429 
L 232.925164 -256.568019 
L 232.632419 -256.923031 
L 232.339674 -254.397902 
L 232.046928 -253.536385 
L 231.754183 -251.256308 
L 231.461438 -252.828394 
L 231.168693 -253.218678 
L 230.875947 -253.107374 
L 230.583202 -252.495014 
L 230.290457 -255.204165 
L 229.997711 -253.820478 
L 229.704966 -258.228432 
L 229.412221 -259.79621 
L 228.82673 -261.079406 
L 228.533985 -257.246403 
L 228.241239 -255.263332 
L 227.948494 -256.200664 
L 227.655749 -253.962235 
L 227.363004 -252.105746 
L 227.070258 -253.023519 
L 226.777513 -256.904158 
L 226.484768 -256.587145 
L 226.192022 -260.107313 
L 225.899277 -261.424546 
L 225.606532 -263.651144 
L 225.313786 -264.194319 
L 225.021041 -264.952608 
L 224.728296 -262.907674 
L 224.43555 -259.38432 
L 224.142805 -259.131472 
L 223.85006 -260.184038 
L 223.557315 -260.936238 
L 223.264569 -260.265012 
L 222.679079 -261.145044 
L 222.386333 -261.286416 
L 222.093588 -259.061986 
L 221.508097 -258.202774 
L 221.215352 -256.822952 
L 220.922607 -256.719957 
L 220.629861 -257.938241 
L 220.337116 -258.296273 
L 220.044371 -260.281612 
L 219.751626 -261.423198 
L 219.45888 -263.137294 
L 219.166135 -264.149339 
L 218.87339 -265.286023 
L 218.580644 -267.494379 
L 218.287899 -266.189618 
L 217.995154 -267.626728 
L 217.702408 -266.447197 
L 217.409663 -268.476259 
L 217.116918 -265.211628 
L 216.824172 -267.366089 
L 216.238682 -267.17052 
L 214.48221 -265.392981 
L 214.189465 -263.23222 
L 213.896719 -266.465701 
L 213.603974 -265.456881 
L 213.018483 -262.46417 
L 212.725738 -264.293095 
L 212.432993 -264.80004 
L 212.140248 -263.494576 
L 211.847502 -261.757656 
L 211.554757 -261.355215 
L 211.262012 -262.356869 
L 210.676521 -262.369544 
L 210.383776 -263.313499 
L 210.09103 -261.841708 
L 209.798285 -261.152647 
L 209.50554 -259.868008 
L 209.212794 -259.588095 
L 208.920049 -261.611513 
L 208.627304 -259.504162 
L 208.334559 -258.557143 
L 208.041813 -260.580289 
L 207.749068 -260.80628 
L 206.870832 -261.26236 
L 206.285341 -261.93094 
L 205.992596 -261.627325 
L 205.11436 -263.727561 
L 204.821615 -264.541718 
L 204.52887 -263.420658 
L 203.943379 -265.351466 
L 203.650634 -261.042962 
L 203.357888 -259.076633 
L 203.065143 -257.775484 
L 202.772398 -255.399143 
L 202.479652 -258.755219 
L 202.186907 -258.92728 
L 201.894162 -259.746585 
L 200.723181 -260.065696 
L 200.430435 -257.424525 
L 199.844945 -253.76057 
L 199.552199 -251.485863 
L 199.259454 -252.613854 
L 198.966709 -259.427902 
L 198.673963 -256.414499 
L 198.381218 -258.800593 
L 198.088473 -257.05559 
L 197.795728 -255.45272 
L 197.502982 -254.22723 
L 197.210237 -254.16149 
L 196.917492 -257.548538 
L 196.624746 -255.766494 
L 196.332001 -254.982057 
L 196.039256 -254.722169 
L 195.74651 -257.328566 
L 195.453765 -253.760675 
L 195.16102 -256.556731 
L 194.868274 -254.663248 
L 194.575529 -257.256449 
L 193.990039 -256.424417 
L 193.697293 -254.411552 
L 193.404548 -254.214136 
L 193.111803 -253.928739 
L 192.819057 -252.776981 
L 192.526312 -253.826339 
L 192.233567 -255.767134 
L 191.940821 -258.280558 
L 191.648076 -259.457863 
L 191.355331 -259.695001 
L 191.062585 -263.064343 
L 190.76984 -260.889681 
L 190.18435 -261.022726 
L 189.891604 -261.870813 
L 189.598859 -259.290195 
L 189.306114 -258.154091 
L 189.013368 -259.96301 
L 188.427878 -260.563772 
L 188.135132 -263.052251 
L 187.256896 -265.030479 
L 186.671406 -266.490642 
L 186.085915 -265.719238 
L 185.500425 -264.621519 
L 184.914934 -263.7679 
L 184.622189 -265.618053 
L 184.329443 -263.801309 
L 184.036698 -264.518404 
L 183.743953 -261.8622 
L 183.451207 -261.892194 
L 183.158462 -261.270537 
L 182.572972 -263.79627 
L 182.280226 -262.599904 
L 181.987481 -259.50119 
L 181.40199 -256.373151 
L 181.109245 -255.435587 
L 180.8165 -254.056962 
L 180.231009 -252.052721 
L 179.645518 -251.941071 
L 179.352773 -252.743866 
L 178.767283 -251.893046 
L 178.474537 -253.074032 
L 178.181792 -253.344367 
L 177.596301 -257.269789 
L 177.303556 -256.875432 
L 177.010811 -256.209831 
L 176.718065 -256.047928 
L 176.42532 -255.202189 
L 175.839829 -252.391629 
L 175.547084 -254.803152 
L 175.254339 -254.459978 
L 174.961594 -254.143552 
L 174.376103 -254.850958 
L 174.083358 -254.376567 
L 173.790612 -257.409536 
L 173.497867 -255.901487 
L 173.205122 -256.819111 
L 172.619631 -254.214114 
L 172.326886 -254.623921 
L 171.741395 -252.778984 
L 171.44865 -252.58887 
L 171.155905 -253.767417 
L 170.863159 -255.183258 
L 170.570414 -255.931822 
L 170.277669 -256.62175 
L 169.984923 -259.556588 
L 169.399433 -260.282963 
L 169.106687 -264.283508 
L 168.521197 -263.05946 
L 168.228452 -260.028566 
L 167.935706 -259.046987 
L 167.642961 -257.922508 
L 167.350216 -261.353194 
L 167.05747 -259.198002 
L 166.764725 -257.76567 
L 166.47198 -256.261647 
L 166.179234 -257.965437 
L 165.886489 -260.102646 
L 165.593744 -260.550204 
L 165.300998 -260.106745 
L 165.008253 -256.999895 
L 164.715508 -256.551653 
L 164.422763 -257.109845 
L 164.130017 -256.433384 
L 163.837272 -258.593101 
L 163.544527 -258.705884 
L 163.251781 -255.994081 
L 162.959036 -254.38929 
L 162.666291 -252.7378 
L 162.373545 -251.089742 
L 162.0808 -250.265191 
L 161.788055 -256.220344 
L 161.495309 -260.083296 
L 161.202564 -257.410199 
L 160.909819 -256.919551 
L 160.617074 -257.40026 
L 160.324328 -261.405735 
L 160.031583 -260.886178 
L 159.738838 -258.457266 
L 159.446092 -258.260786 
L 158.860602 -256.854499 
L 158.275111 -254.529133 
L 157.68962 -252.749567 
L 157.396875 -251.645632 
L 156.811385 -255.122254 
L 156.518639 -257.512828 
L 156.225894 -254.849938 
L 155.933149 -251.028427 
L 155.640403 -251.040747 
L 155.347658 -255.348886 
L 155.054913 -253.036515 
L 154.762167 -251.628532 
L 154.469422 -253.030204 
L 154.176677 -251.973542 
L 153.883931 -253.439763 
L 153.591186 -256.326125 
L 153.298441 -257.848539 
L 153.005696 -257.56965 
L 152.71295 -257.692018 
L 152.420205 -257.65733 
L 151.834714 -254.931237 
L 151.541969 -258.721761 
L 151.249224 -256.08344 
L 150.956478 -257.027424 
L 150.663733 -256.562912 
L 149.785497 -255.390914 
L 149.492752 -255.692431 
L 149.200007 -257.677138 
L 148.907261 -255.0017 
L 148.614516 -256.528929 
L 148.321771 -257.813958 
L 148.029025 -257.120718 
L 147.73628 -254.519242 
L 147.443535 -253.068508 
L 147.150789 -251.603294 
L 146.858044 -251.360152 
L 146.272553 -254.276716 
L 145.979808 -252.809623 
L 145.394318 -250.085492 
L 143.930591 -249.699774 
L 143.637846 -249.734282 
L 143.3451 -249.748343 
L 143.052355 -249.021474 
L 142.75961 -251.118326 
L 142.466864 -248.904619 
L 142.174119 -249.876259 
L 141.881374 -250.58365 
L 141.295883 -248.14704 
L 141.003138 -249.665292 
L 140.710393 -251.610055 
L 140.417647 -251.339773 
L 140.124902 -254.145535 
L 139.539411 -255.414181 
L 138.953921 -255.9218 
L 138.36843 -256.982534 
L 138.075685 -261.376023 
L 137.78294 -261.416665 
L 137.197449 -259.77925 
L 136.904704 -260.057542 
L 136.611958 -258.636523 
L 136.319213 -257.144483 
L 135.733722 -259.081251 
L 135.440977 -256.894228 
L 135.148232 -256.432533 
L 134.855487 -257.592984 
L 134.562741 -256.236929 
L 134.269996 -258.697255 
L 133.977251 -256.928349 
L 133.684505 -255.692277 
L 133.39176 -254.374309 
L 133.099015 -257.672239 
L 132.806269 -258.290007 
L 132.513524 -257.627785 
L 132.220779 -258.555788 
L 131.635288 -257.115357 
L 131.342543 -253.58334 
L 131.049798 -255.499035 
L 130.464307 -255.936894 
L 130.171562 -256.164073 
L 129.586071 -257.36568 
L 129.293326 -258.973038 
L 129.00058 -259.636021 
L 128.707835 -259.906693 
L 128.41509 -261.273521 
L 128.122344 -258.551985 
L 127.829599 -258.484154 
L 127.244109 -257.365346 
L 126.951363 -255.681752 
L 126.658618 -259.763181 
L 126.073127 -258.036442 
L 125.780382 -258.771888 
L 125.487637 -260.105687 
L 125.194891 -261.112454 
L 124.902146 -260.479416 
L 124.609401 -258.499591 
L 124.316655 -257.474959 
L 124.02391 -257.420335 
L 123.731165 -258.112841 
L 123.43842 -257.721084 
L 123.145674 -255.664442 
L 122.852929 -255.066199 
L 121.974693 -252.769648 
L 121.681948 -253.175716 
L 121.389202 -250.742483 
L 121.096457 -251.930361 
L 120.803712 -256.024907 
L 120.218221 -254.580032 
L 119.925476 -251.848078 
L 119.632731 -248.087956 
L 119.04724 -249.446459 
L 118.754495 -248.451365 
L 117.583513 -247.185508 
L 116.705277 -246.315934 
L 116.412532 -245.218539 
L 115.827042 -244.008342 
L 115.534296 -245.349957 
L 115.241551 -245.869195 
L 114.948806 -245.161871 
L 114.65606 -247.116783 
L 114.363315 -246.778792 
L 114.07057 -244.275405 
L 113.777824 -241.137476 
L 113.485079 -239.769529 
L 112.899588 -239.919021 
L 112.606843 -238.112829 
L 112.314098 -235.848708 
L 112.021353 -244.757229 
L 111.435862 -248.163272 
L 111.143117 -247.452944 
L 110.850371 -247.55645 
L 110.264881 -248.654305 
L 109.972135 -248.059212 
L 109.67939 -246.986589 
L 109.093899 -247.953352 
L 108.801154 -247.783798 
L 108.215664 -245.003672 
L 107.922918 -243.096083 
L 107.337428 -240.243696 
L 107.044682 -243.745522 
L 106.751937 -240.742992 
L 106.459192 -236.107825 
L 106.166446 -233.458573 
L 105.873701 -231.184852 
L 105.580956 -228.683746 
L 104.995465 -224.871853 
L 104.70272 -221.808223 
L 104.409975 -219.365233 
L 104.117229 -215.139239 
L 103.531739 -218.074692 
L 103.238993 -217.898224 
L 102.946248 -218.184492 
L 102.653503 -219.094206 
L 102.360757 -217.381531 
L 102.068012 -217.725605 
L 101.482522 -214.27211 
L 100.897031 -215.419923 
L 100.604286 -210.86201 
L 100.018795 -206.483695 
L 99.72605 -206.758189 
L 98.847814 -208.399111 
L 98.555068 -216.96181 
L 97.969578 -222.153091 
L 97.676833 -222.345478 
L 97.384087 -219.520093 
L 97.091342 -220.481994 
L 96.798597 -223.09077 
L 96.505851 -224.941806 
L 96.213106 -225.069487 
L 95.920361 -223.674221 
L 95.627615 -221.441726 
L 95.33487 -221.687216 
L 95.042125 -223.818602 
L 94.749379 -224.092626 
L 94.456634 -224.475424 
L 94.163889 -222.378219 
L 93.871144 -224.14735 
L 93.578398 -220.39088 
L 93.285653 -222.356896 
L 92.992908 -216.622518 
L 92.700162 -215.384476 
L 92.407417 -209.747057 
L 91.821926 -209.804952 
L 91.529181 -206.656463 
L 91.236436 -207.748436 
L 90.94369 -201.181794 
L 90.650945 -202.882836 
L 90.3582 -200.258195 
L 90.065455 -195.466513 
L 89.772709 -194.728549 
L 89.187219 -192.522768 
L 88.894473 -189.149628 
L 88.601728 -186.820261 
L 88.308983 -185.953435 
L 88.016237 -186.511212 
L 87.723492 -183.235476 
L 87.430747 -182.267721 
L 86.845256 -174.785051 
L 86.552511 -176.075023 
L 86.259766 -174.845031 
L 85.96702 -168.141954 
L 85.674275 -170.805969 
L 85.38153 -169.7472 
L 84.796039 -168.277713 
L 84.503294 -167.243584 
L 83.917803 -162.947144 
L 83.625058 -161.914274 
L 83.332312 -157.063819 
L 83.039567 -154.970436 
L 82.746822 -150.776351 
L 82.454077 -153.730771 
L 82.161331 -151.730734 
L 81.868586 -155.771688 
L 81.575841 -153.895756 
L 80.99035 -150.686425 
L 80.697605 -153.400092 
L 80.404859 -144.580809 
L 80.112114 -141.526169 
L 79.819369 -132.7169 
L 79.526623 -129.847758 
L 79.233878 -130.363962 
L 78.941133 -124.09023 
L 78.648388 -128.283848 
L 78.355642 -138.952908 
L 78.062897 -135.171854 
L 77.477406 -133.8919 
L 77.184661 -136.508325 
L 76.891916 -138.50514 
L 76.59917 -141.011145 
L 76.306425 -146.042829 
L 76.01368 -138.352192 
L 75.428189 -133.654441 
L 75.135444 -137.129304 
L 74.549953 -136.626295 
L 74.257208 -139.354056 
L 73.964463 -143.514991 
L 73.671717 -147.182131 
L 73.378972 -153.01102 
L 73.086227 -155.928662 
L 72.500736 -152.269786 
L 72.207991 -150.974759 
L 71.915246 -147.968545 
L 71.6225 -140.642955 
L 71.329755 -145.711812 
L 70.744264 -140.756641 
L 70.451519 -137.815379 
L 70.158774 -135.753251 
L 69.866028 -136.61453 
L 69.573283 -136.131437 
L 68.695047 -137.292148 
L 68.109557 -135.490964 
L 67.816811 -132.280395 
L 67.524066 -134.632876 
L 67.231321 -129.410455 
L 66.938575 -134.3072 
L 66.64583 -130.428208 
L 66.353085 -124.881205 
L 66.060339 -134.299282 
L 65.767594 -127.214369 
L 65.474849 -131.071786 
L 65.182103 -130.081128 
L 64.889358 -127.596953 
L 64.596613 -122.469608 
L 64.303868 -117.386307 
L 64.011122 -115.297117 
L 63.718377 -109.520892 
L 63.425632 -111.74409 
L 63.132886 -106.38249 
L 62.840141 -105.78479 
L 62.547396 -106.946547 
L 62.25465 -98.104081 
L 61.66916 -76.964123 
L 61.083669 -81.068577 
L 60.790924 -38.016 
z
" style="stroke: #00bfbf; stroke-opacity: 0.15"/>
    </defs>
    <g clip-path="url(#p94aa3a24a1)">
     <use xlink:href="#m9fcc4e9061" x="0" y="345.6" style="fill: #00bfbf; fill-opacity: 0.15; stroke: #00bfbf; stroke-opacity: 0.15"/>
    </g>
   </g>
   <g id="matplotlib.axis_1">
    <g id="xtick_1">
     <g id="line2d_1">
      <path d="M 60.527453 307.584 
L 60.527453 41.472 
" clip-path="url(#p94aa3a24a1)" style="fill: none; stroke: #808080; stroke-opacity: 0.2; stroke-width: 0.5; stroke-linecap: square"/>
     </g>
     <g id="line2d_2">
      <defs>
       <path id="m6b1f14f81f" d="M 0 0 
L 0 3.5 
" style="stroke: #000000; stroke-width: 0.8"/>
      </defs>
      <g>
       <use xlink:href="#m6b1f14f81f" x="60.527453" y="307.584" style="stroke: #000000; stroke-width: 0.8"/>
      </g>
     </g>
     <g id="text_1">
      <!-- 0 -->
      <g transform="translate(57.346203 322.182437) scale(0.1 -0.1)">
       <defs>
        <path id="DejaVuSans-30" d="M 2034 4250 
Q 1547 4250 1301 3770 
Q 1056 3291 1056 2328 
Q 1056 1369 1301 889 
Q 1547 409 2034 409 
Q 2525 409 2770 889 
Q 3016 1369 3016 2328 
Q 3016 3291 2770 3770 
Q 2525 4250 2034 4250 
z
M 2034 4750 
Q 2819 4750 3233 4129 
Q 3647 3509 3647 2328 
Q 3647 1150 3233 529 
Q 2819 -91 2034 -91 
Q 1250 -91 836 529 
Q 422 1150 422 2328 
Q 422 3509 836 4129 
Q 1250 4750 2034 4750 
z
" transform="scale(0.015625)"/>
       </defs>
       <use xlink:href="#DejaVuSans-30"/>
      </g>
     </g>
    </g>
    <g id="xtick_2">
     <g id="line2d_3">
      <path d="M 119.076514 307.584 
L 119.076514 41.472 
" clip-path="url(#p94aa3a24a1)" style="fill: none; stroke: #808080; stroke-opacity: 0.2; stroke-width: 0.5; stroke-linecap: square"/>
     </g>
     <g id="line2d_4">
      <g>
       <use xlink:href="#m6b1f14f81f" x="119.076514" y="307.584" style="stroke: #000000; stroke-width: 0.8"/>
      </g>
     </g>
     <g id="text_2">
      <!-- 2000 -->
      <g transform="translate(106.351514 322.182437) scale(0.1 -0.1)">
       <defs>
        <path id="DejaVuSans-32" d="M 1228 531 
L 3431 531 
L 3431 0 
L 469 0 
L 469 531 
Q 828 903 1448 1529 
Q 2069 2156 2228 2338 
Q 2531 2678 2651 2914 
Q 2772 3150 2772 3378 
Q 2772 3750 2511 3984 
Q 2250 4219 1831 4219 
Q 1534 4219 1204 4116 
Q 875 4013 500 3803 
L 500 4441 
Q 881 4594 1212 4672 
Q 1544 4750 1819 4750 
Q 2544 4750 2975 4387 
Q 3406 4025 3406 3419 
Q 3406 3131 3298 2873 
Q 3191 2616 2906 2266 
Q 2828 2175 2409 1742 
Q 1991 1309 1228 531 
z
" transform="scale(0.015625)"/>
       </defs>
       <use xlink:href="#DejaVuSans-32"/>
       <use xlink:href="#DejaVuSans-30" x="63.623047"/>
       <use xlink:href="#DejaVuSans-30" x="127.246094"/>
       <use xlink:href="#DejaVuSans-30" x="190.869141"/>
      </g>
     </g>
    </g>
    <g id="xtick_3">
     <g id="line2d_5">
      <path d="M 177.625576 307.584 
L 177.625576 41.472 
" clip-path="url(#p94aa3a24a1)" style="fill: none; stroke: #808080; stroke-opacity: 0.2; stroke-width: 0.5; stroke-linecap: square"/>
     </g>
     <g id="line2d_6">
      <g>
       <use xlink:href="#m6b1f14f81f" x="177.625576" y="307.584" style="stroke: #000000; stroke-width: 0.8"/>
      </g>
     </g>
     <g id="text_3">
      <!-- 4000 -->
      <g transform="translate(164.900576 322.182437) scale(0.1 -0.1)">
       <defs>
        <path id="DejaVuSans-34" d="M 2419 4116 
L 825 1625 
L 2419 1625 
L 2419 4116 
z
M 2253 4666 
L 3047 4666 
L 3047 1625 
L 3713 1625 
L 3713 1100 
L 3047 1100 
L 3047 0 
L 2419 0 
L 2419 1100 
L 313 1100 
L 313 1709 
L 2253 4666 
z
" transform="scale(0.015625)"/>
       </defs>
       <use xlink:href="#DejaVuSans-34"/>
       <use xlink:href="#DejaVuSans-30" x="63.623047"/>
       <use xlink:href="#DejaVuSans-30" x="127.246094"/>
       <use xlink:href="#DejaVuSans-30" x="190.869141"/>
      </g>
     </g>
    </g>
    <g id="xtick_4">
     <g id="line2d_7">
      <path d="M 236.174637 307.584 
L 236.174637 41.472 
" clip-path="url(#p94aa3a24a1)" style="fill: none; stroke: #808080; stroke-opacity: 0.2; stroke-width: 0.5; stroke-linecap: square"/>
     </g>
     <g id="line2d_8">
      <g>
       <use xlink:href="#m6b1f14f81f" x="236.174637" y="307.584" style="stroke: #000000; stroke-width: 0.8"/>
      </g>
     </g>
     <g id="text_4">
      <!-- 6000 -->
      <g transform="translate(223.449637 322.182437) scale(0.1 -0.1)">
       <defs>
        <path id="DejaVuSans-36" d="M 2113 2584 
Q 1688 2584 1439 2293 
Q 1191 2003 1191 1497 
Q 1191 994 1439 701 
Q 1688 409 2113 409 
Q 2538 409 2786 701 
Q 3034 994 3034 1497 
Q 3034 2003 2786 2293 
Q 2538 2584 2113 2584 
z
M 3366 4563 
L 3366 3988 
Q 3128 4100 2886 4159 
Q 2644 4219 2406 4219 
Q 1781 4219 1451 3797 
Q 1122 3375 1075 2522 
Q 1259 2794 1537 2939 
Q 1816 3084 2150 3084 
Q 2853 3084 3261 2657 
Q 3669 2231 3669 1497 
Q 3669 778 3244 343 
Q 2819 -91 2113 -91 
Q 1303 -91 875 529 
Q 447 1150 447 2328 
Q 447 3434 972 4092 
Q 1497 4750 2381 4750 
Q 2619 4750 2861 4703 
Q 3103 4656 3366 4563 
z
" transform="scale(0.015625)"/>
       </defs>
       <use xlink:href="#DejaVuSans-36"/>
       <use xlink:href="#DejaVuSans-30" x="63.623047"/>
       <use xlink:href="#DejaVuSans-30" x="127.246094"/>
       <use xlink:href="#DejaVuSans-30" x="190.869141"/>
      </g>
     </g>
    </g>
    <g id="xtick_5">
     <g id="line2d_9">
      <path d="M 294.723699 307.584 
L 294.723699 41.472 
" clip-path="url(#p94aa3a24a1)" style="fill: none; stroke: #808080; stroke-opacity: 0.2; stroke-width: 0.5; stroke-linecap: square"/>
     </g>
     <g id="line2d_10">
      <g>
       <use xlink:href="#m6b1f14f81f" x="294.723699" y="307.584" style="stroke: #000000; stroke-width: 0.8"/>
      </g>
     </g>
     <g id="text_5">
      <!-- 8000 -->
      <g transform="translate(281.998699 322.182437) scale(0.1 -0.1)">
       <defs>
        <path id="DejaVuSans-38" d="M 2034 2216 
Q 1584 2216 1326 1975 
Q 1069 1734 1069 1313 
Q 1069 891 1326 650 
Q 1584 409 2034 409 
Q 2484 409 2743 651 
Q 3003 894 3003 1313 
Q 3003 1734 2745 1975 
Q 2488 2216 2034 2216 
z
M 1403 2484 
Q 997 2584 770 2862 
Q 544 3141 544 3541 
Q 544 4100 942 4425 
Q 1341 4750 2034 4750 
Q 2731 4750 3128 4425 
Q 3525 4100 3525 3541 
Q 3525 3141 3298 2862 
Q 3072 2584 2669 2484 
Q 3125 2378 3379 2068 
Q 3634 1759 3634 1313 
Q 3634 634 3220 271 
Q 2806 -91 2034 -91 
Q 1263 -91 848 271 
Q 434 634 434 1313 
Q 434 1759 690 2068 
Q 947 2378 1403 2484 
z
M 1172 3481 
Q 1172 3119 1398 2916 
Q 1625 2713 2034 2713 
Q 2441 2713 2670 2916 
Q 2900 3119 2900 3481 
Q 2900 3844 2670 4047 
Q 2441 4250 2034 4250 
Q 1625 4250 1398 4047 
Q 1172 3844 1172 3481 
z
" transform="scale(0.015625)"/>
       </defs>
       <use xlink:href="#DejaVuSans-38"/>
       <use xlink:href="#DejaVuSans-30" x="63.623047"/>
       <use xlink:href="#DejaVuSans-30" x="127.246094"/>
       <use xlink:href="#DejaVuSans-30" x="190.869141"/>
      </g>
     </g>
    </g>
    <g id="xtick_6">
     <g id="line2d_11">
      <path d="M 353.27276 307.584 
L 353.27276 41.472 
" clip-path="url(#p94aa3a24a1)" style="fill: none; stroke: #808080; stroke-opacity: 0.2; stroke-width: 0.5; stroke-linecap: square"/>
     </g>
     <g id="line2d_12">
      <g>
       <use xlink:href="#m6b1f14f81f" x="353.27276" y="307.584" style="stroke: #000000; stroke-width: 0.8"/>
      </g>
     </g>
     <g id="text_6">
      <!-- 10000 -->
      <g transform="translate(337.36651 322.182437) scale(0.1 -0.1)">
       <defs>
        <path id="DejaVuSans-31" d="M 794 531 
L 1825 531 
L 1825 4091 
L 703 3866 
L 703 4441 
L 1819 4666 
L 2450 4666 
L 2450 531 
L 3481 531 
L 3481 0 
L 794 0 
L 794 531 
z
" transform="scale(0.015625)"/>
       </defs>
       <use xlink:href="#DejaVuSans-31"/>
       <use xlink:href="#DejaVuSans-30" x="63.623047"/>
       <use xlink:href="#DejaVuSans-30" x="127.246094"/>
       <use xlink:href="#DejaVuSans-30" x="190.869141"/>
       <use xlink:href="#DejaVuSans-30" x="254.492188"/>
      </g>
     </g>
    </g>
    <g id="xtick_7">
     <g id="line2d_13">
      <path d="M 411.821821 307.584 
L 411.821821 41.472 
" clip-path="url(#p94aa3a24a1)" style="fill: none; stroke: #808080; stroke-opacity: 0.2; stroke-width: 0.5; stroke-linecap: square"/>
     </g>
     <g id="line2d_14">
      <g>
       <use xlink:href="#m6b1f14f81f" x="411.821821" y="307.584" style="stroke: #000000; stroke-width: 0.8"/>
      </g>
     </g>
     <g id="text_7">
      <!-- 12000 -->
      <g transform="translate(395.915571 322.182437) scale(0.1 -0.1)">
       <use xlink:href="#DejaVuSans-31"/>
       <use xlink:href="#DejaVuSans-32" x="63.623047"/>
       <use xlink:href="#DejaVuSans-30" x="127.246094"/>
       <use xlink:href="#DejaVuSans-30" x="190.869141"/>
       <use xlink:href="#DejaVuSans-30" x="254.492188"/>
      </g>
     </g>
    </g>
    <g id="text_8">
     <!-- Steps -->
     <g transform="translate(219.372187 337.38025) scale(0.12 -0.12)">
      <defs>
       <path id="DejaVuSans-53" d="M 3425 4513 
L 3425 3897 
Q 3066 4069 2747 4153 
Q 2428 4238 2131 4238 
Q 1616 4238 1336 4038 
Q 1056 3838 1056 3469 
Q 1056 3159 1242 3001 
Q 1428 2844 1947 2747 
L 2328 2669 
Q 3034 2534 3370 2195 
Q 3706 1856 3706 1288 
Q 3706 609 3251 259 
Q 2797 -91 1919 -91 
Q 1588 -91 1214 -16 
Q 841 59 441 206 
L 441 856 
Q 825 641 1194 531 
Q 1563 422 1919 422 
Q 2459 422 2753 634 
Q 3047 847 3047 1241 
Q 3047 1584 2836 1778 
Q 2625 1972 2144 2069 
L 1759 2144 
Q 1053 2284 737 2584 
Q 422 2884 422 3419 
Q 422 4038 858 4394 
Q 1294 4750 2059 4750 
Q 2388 4750 2728 4690 
Q 3069 4631 3425 4513 
z
" transform="scale(0.015625)"/>
       <path id="DejaVuSans-74" d="M 1172 4494 
L 1172 3500 
L 2356 3500 
L 2356 3053 
L 1172 3053 
L 1172 1153 
Q 1172 725 1289 603 
Q 1406 481 1766 481 
L 2356 481 
L 2356 0 
L 1766 0 
Q 1100 0 847 248 
Q 594 497 594 1153 
L 594 3053 
L 172 3053 
L 172 3500 
L 594 3500 
L 594 4494 
L 1172 4494 
z
" transform="scale(0.015625)"/>
       <path id="DejaVuSans-65" d="M 3597 1894 
L 3597 1613 
L 953 1613 
Q 991 1019 1311 708 
Q 1631 397 2203 397 
Q 2534 397 2845 478 
Q 3156 559 3463 722 
L 3463 178 
Q 3153 47 2828 -22 
Q 2503 -91 2169 -91 
Q 1331 -91 842 396 
Q 353 884 353 1716 
Q 353 2575 817 3079 
Q 1281 3584 2069 3584 
Q 2775 3584 3186 3129 
Q 3597 2675 3597 1894 
z
M 3022 2063 
Q 3016 2534 2758 2815 
Q 2500 3097 2075 3097 
Q 1594 3097 1305 2825 
Q 1016 2553 972 2059 
L 3022 2063 
z
" transform="scale(0.015625)"/>
       <path id="DejaVuSans-70" d="M 1159 525 
L 1159 -1331 
L 581 -1331 
L 581 3500 
L 1159 3500 
L 1159 2969 
Q 1341 3281 1617 3432 
Q 1894 3584 2278 3584 
Q 2916 3584 3314 3078 
Q 3713 2572 3713 1747 
Q 3713 922 3314 415 
Q 2916 -91 2278 -91 
Q 1894 -91 1617 61 
Q 1341 213 1159 525 
z
M 3116 1747 
Q 3116 2381 2855 2742 
Q 2594 3103 2138 3103 
Q 1681 3103 1420 2742 
Q 1159 2381 1159 1747 
Q 1159 1113 1420 752 
Q 1681 391 2138 391 
Q 2594 391 2855 752 
Q 3116 1113 3116 1747 
z
" transform="scale(0.015625)"/>
       <path id="DejaVuSans-73" d="M 2834 3397 
L 2834 2853 
Q 2591 2978 2328 3040 
Q 2066 3103 1784 3103 
Q 1356 3103 1142 2972 
Q 928 2841 928 2578 
Q 928 2378 1081 2264 
Q 1234 2150 1697 2047 
L 1894 2003 
Q 2506 1872 2764 1633 
Q 3022 1394 3022 966 
Q 3022 478 2636 193 
Q 2250 -91 1575 -91 
Q 1294 -91 989 -36 
Q 684 19 347 128 
L 347 722 
Q 666 556 975 473 
Q 1284 391 1588 391 
Q 1994 391 2212 530 
Q 2431 669 2431 922 
Q 2431 1156 2273 1281 
Q 2116 1406 1581 1522 
L 1381 1569 
Q 847 1681 609 1914 
Q 372 2147 372 2553 
Q 372 3047 722 3315 
Q 1072 3584 1716 3584 
Q 2034 3584 2315 3537 
Q 2597 3491 2834 3397 
z
" transform="scale(0.015625)"/>
      </defs>
      <use xlink:href="#DejaVuSans-53"/>
      <use xlink:href="#DejaVuSans-74" x="63.476562"/>
      <use xlink:href="#DejaVuSans-65" x="102.685547"/>
      <use xlink:href="#DejaVuSans-70" x="164.208984"/>
      <use xlink:href="#DejaVuSans-73" x="227.685547"/>
     </g>
    </g>
   </g>
   <g id="matplotlib.axis_2">
    <g id="ytick_1">
     <g id="line2d_15">
      <path d="M 57.6 305.543459 
L 414.72 305.543459 
" clip-path="url(#p94aa3a24a1)" style="fill: none; stroke: #808080; stroke-opacity: 0.2; stroke-width: 0.5; stroke-linecap: square"/>
     </g>
     <g id="line2d_16">
      <defs>
       <path id="m4bee6ead68" d="M 0 0 
L -3.5 0 
" style="stroke: #000000; stroke-width: 0.8"/>
      </defs>
      <g>
       <use xlink:href="#m4bee6ead68" x="57.6" y="305.543459" style="stroke: #000000; stroke-width: 0.8"/>
      </g>
     </g>
     <g id="text_9">
      <!-- 16 -->
      <g transform="translate(29.495313 309.342678) scale(0.1 -0.1)">
       <defs>
        <path id="DejaVuSans-2212" d="M 678 2272 
L 4684 2272 
L 4684 1741 
L 678 1741 
L 678 2272 
z
" transform="scale(0.015625)"/>
       </defs>
       <use xlink:href="#DejaVuSans-2212"/>
       <use xlink:href="#DejaVuSans-31" x="83.789062"/>
       <use xlink:href="#DejaVuSans-36" x="147.412109"/>
      </g>
     </g>
    </g>
    <g id="ytick_2">
     <g id="line2d_17">
      <path d="M 57.6 272.534527 
L 414.72 272.534527 
" clip-path="url(#p94aa3a24a1)" style="fill: none; stroke: #808080; stroke-opacity: 0.2; stroke-width: 0.5; stroke-linecap: square"/>
     </g>
     <g id="line2d_18">
      <g>
       <use xlink:href="#m4bee6ead68" x="57.6" y="272.534527" style="stroke: #000000; stroke-width: 0.8"/>
      </g>
     </g>
     <g id="text_10">
      <!-- 14 -->
      <g transform="translate(29.495313 276.333746) scale(0.1 -0.1)">
       <use xlink:href="#DejaVuSans-2212"/>
       <use xlink:href="#DejaVuSans-31" x="83.789062"/>
       <use xlink:href="#DejaVuSans-34" x="147.412109"/>
      </g>
     </g>
    </g>
    <g id="ytick_3">
     <g id="line2d_19">
      <path d="M 57.6 239.525594 
L 414.72 239.525594 
" clip-path="url(#p94aa3a24a1)" style="fill: none; stroke: #808080; stroke-opacity: 0.2; stroke-width: 0.5; stroke-linecap: square"/>
     </g>
     <g id="line2d_20">
      <g>
       <use xlink:href="#m4bee6ead68" x="57.6" y="239.525594" style="stroke: #000000; stroke-width: 0.8"/>
      </g>
     </g>
     <g id="text_11">
      <!-- 12 -->
      <g transform="translate(29.495313 243.324813) scale(0.1 -0.1)">
       <use xlink:href="#DejaVuSans-2212"/>
       <use xlink:href="#DejaVuSans-31" x="83.789062"/>
       <use xlink:href="#DejaVuSans-32" x="147.412109"/>
      </g>
     </g>
    </g>
    <g id="ytick_4">
     <g id="line2d_21">
      <path d="M 57.6 206.516662 
L 414.72 206.516662 
" clip-path="url(#p94aa3a24a1)" style="fill: none; stroke: #808080; stroke-opacity: 0.2; stroke-width: 0.5; stroke-linecap: square"/>
     </g>
     <g id="line2d_22">
      <g>
       <use xlink:href="#m4bee6ead68" x="57.6" y="206.516662" style="stroke: #000000; stroke-width: 0.8"/>
      </g>
     </g>
     <g id="text_12">
      <!-- 10 -->
      <g transform="translate(29.495313 210.315881) scale(0.1 -0.1)">
       <use xlink:href="#DejaVuSans-2212"/>
       <use xlink:href="#DejaVuSans-31" x="83.789062"/>
       <use xlink:href="#DejaVuSans-30" x="147.412109"/>
      </g>
     </g>
    </g>
    <g id="ytick_5">
     <g id="line2d_23">
      <path d="M 57.6 173.50773 
L 414.72 173.50773 
" clip-path="url(#p94aa3a24a1)" style="fill: none; stroke: #808080; stroke-opacity: 0.2; stroke-width: 0.5; stroke-linecap: square"/>
     </g>
     <g id="line2d_24">
      <g>
       <use xlink:href="#m4bee6ead68" x="57.6" y="173.50773" style="stroke: #000000; stroke-width: 0.8"/>
      </g>
     </g>
     <g id="text_13">
      <!-- 8 -->
      <g transform="translate(35.857813 177.306948) scale(0.1 -0.1)">
       <use xlink:href="#DejaVuSans-2212"/>
       <use xlink:href="#DejaVuSans-38" x="83.789062"/>
      </g>
     </g>
    </g>
    <g id="ytick_6">
     <g id="line2d_25">
      <path d="M 57.6 140.498797 
L 414.72 140.498797 
" clip-path="url(#p94aa3a24a1)" style="fill: none; stroke: #808080; stroke-opacity: 0.2; stroke-width: 0.5; stroke-linecap: square"/>
     </g>
     <g id="line2d_26">
      <g>
       <use xlink:href="#m4bee6ead68" x="57.6" y="140.498797" style="stroke: #000000; stroke-width: 0.8"/>
      </g>
     </g>
     <g id="text_14">
      <!-- 6 -->
      <g transform="translate(35.857813 144.298016) scale(0.1 -0.1)">
       <use xlink:href="#DejaVuSans-2212"/>
       <use xlink:href="#DejaVuSans-36" x="83.789062"/>
      </g>
     </g>
    </g>
    <g id="ytick_7">
     <g id="line2d_27">
      <path d="M 57.6 107.489865 
L 414.72 107.489865 
" clip-path="url(#p94aa3a24a1)" style="fill: none; stroke: #808080; stroke-opacity: 0.2; stroke-width: 0.5; stroke-linecap: square"/>
     </g>
     <g id="line2d_28">
      <g>
       <use xlink:href="#m4bee6ead68" x="57.6" y="107.489865" style="stroke: #000000; stroke-width: 0.8"/>
      </g>
     </g>
     <g id="text_15">
      <!-- 4 -->
      <g transform="translate(35.857813 111.289084) scale(0.1 -0.1)">
       <use xlink:href="#DejaVuSans-2212"/>
       <use xlink:href="#DejaVuSans-34" x="83.789062"/>
      </g>
     </g>
    </g>
    <g id="ytick_8">
     <g id="line2d_29">
      <path d="M 57.6 74.480932 
L 414.72 74.480932 
" clip-path="url(#p94aa3a24a1)" style="fill: none; stroke: #808080; stroke-opacity: 0.2; stroke-width: 0.5; stroke-linecap: square"/>
     </g>
     <g id="line2d_30">
      <g>
       <use xlink:href="#m4bee6ead68" x="57.6" y="74.480932" style="stroke: #000000; stroke-width: 0.8"/>
      </g>
     </g>
     <g id="text_16">
      <!-- 2 -->
      <g transform="translate(35.857813 78.280151) scale(0.1 -0.1)">
       <use xlink:href="#DejaVuSans-2212"/>
       <use xlink:href="#DejaVuSans-32" x="83.789062"/>
      </g>
     </g>
    </g>
    <g id="ytick_9">
     <g id="line2d_31">
      <path d="M 57.6 41.472 
L 414.72 41.472 
" clip-path="url(#p94aa3a24a1)" style="fill: none; stroke: #808080; stroke-opacity: 0.2; stroke-width: 0.5; stroke-linecap: square"/>
     </g>
     <g id="line2d_32">
      <g>
       <use xlink:href="#m4bee6ead68" x="57.6" y="41.472" style="stroke: #000000; stroke-width: 0.8"/>
      </g>
     </g>
     <g id="text_17">
      <!-- 0 -->
      <g transform="translate(44.2375 45.271219) scale(0.1 -0.1)">
       <use xlink:href="#DejaVuSans-30"/>
      </g>
     </g>
    </g>
    <g id="text_18">
     <!-- Value -->
     <g transform="translate(22.999688 191.0055) rotate(-90) scale(0.12 -0.12)">
      <defs>
       <path id="DejaVuSans-56" d="M 1831 0 
L 50 4666 
L 709 4666 
L 2188 738 
L 3669 4666 
L 4325 4666 
L 2547 0 
L 1831 0 
z
" transform="scale(0.015625)"/>
       <path id="DejaVuSans-61" d="M 2194 1759 
Q 1497 1759 1228 1600 
Q 959 1441 959 1056 
Q 959 750 1161 570 
Q 1363 391 1709 391 
Q 2188 391 2477 730 
Q 2766 1069 2766 1631 
L 2766 1759 
L 2194 1759 
z
M 3341 1997 
L 3341 0 
L 2766 0 
L 2766 531 
Q 2569 213 2275 61 
Q 1981 -91 1556 -91 
Q 1019 -91 701 211 
Q 384 513 384 1019 
Q 384 1609 779 1909 
Q 1175 2209 1959 2209 
L 2766 2209 
L 2766 2266 
Q 2766 2663 2505 2880 
Q 2244 3097 1772 3097 
Q 1472 3097 1187 3025 
Q 903 2953 641 2809 
L 641 3341 
Q 956 3463 1253 3523 
Q 1550 3584 1831 3584 
Q 2591 3584 2966 3190 
Q 3341 2797 3341 1997 
z
" transform="scale(0.015625)"/>
       <path id="DejaVuSans-6c" d="M 603 4863 
L 1178 4863 
L 1178 0 
L 603 0 
L 603 4863 
z
" transform="scale(0.015625)"/>
       <path id="DejaVuSans-75" d="M 544 1381 
L 544 3500 
L 1119 3500 
L 1119 1403 
Q 1119 906 1312 657 
Q 1506 409 1894 409 
Q 2359 409 2629 706 
Q 2900 1003 2900 1516 
L 2900 3500 
L 3475 3500 
L 3475 0 
L 2900 0 
L 2900 538 
Q 2691 219 2414 64 
Q 2138 -91 1772 -91 
Q 1169 -91 856 284 
Q 544 659 544 1381 
z
M 1991 3584 
L 1991 3584 
z
" transform="scale(0.015625)"/>
      </defs>
      <use xlink:href="#DejaVuSans-56"/>
      <use xlink:href="#DejaVuSans-61" x="60.658203"/>
      <use xlink:href="#DejaVuSans-6c" x="121.9375"/>
      <use xlink:href="#DejaVuSans-75" x="149.720703"/>
      <use xlink:href="#DejaVuSans-65" x="213.099609"/>
     </g>
    </g>
   </g>
   <g id="line2d_33">
    <path d="M 60.790924 181.530947 
L 61.083669 158.871696 
L 61.66916 161.031935 
L 62.547396 145.251712 
L 62.840141 145.863163 
L 63.132886 145.548584 
L 63.425632 142.726689 
L 63.718377 143.896794 
L 64.011122 140.856675 
L 64.303868 139.757101 
L 64.889358 134.383078 
L 65.182103 133.075617 
L 65.474849 132.554218 
L 65.767594 134.584437 
L 66.060339 130.855536 
L 66.353085 135.812419 
L 66.938575 130.851368 
L 67.231321 133.428603 
L 67.524066 130.67996 
L 67.816811 131.918108 
L 68.109557 130.228335 
L 68.695047 129.280343 
L 69.573283 129.891244 
L 69.866028 129.636984 
L 70.158774 130.090289 
L 70.451519 129.004959 
L 71.329755 124.848941 
L 71.6225 127.516761 
L 71.915246 123.661187 
L 72.207991 122.078969 
L 72.500736 121.397376 
L 73.086227 119.471652 
L 73.378972 121.007253 
L 73.964463 126.005163 
L 74.549953 129.630792 
L 75.135444 129.366051 
L 75.428189 131.194926 
L 76.01368 128.722425 
L 76.306425 124.674721 
L 76.59917 127.322976 
L 77.477406 131.069947 
L 78.062897 130.396287 
L 78.355642 128.406259 
L 78.648388 134.021554 
L 78.941133 136.228721 
L 79.233878 132.926757 
L 79.526623 133.198443 
L 79.819369 131.688368 
L 80.112114 127.051911 
L 80.404859 125.444206 
L 80.697605 120.802478 
L 80.99035 122.230724 
L 81.868586 119.554269 
L 82.161331 121.681088 
L 82.454077 120.628436 
L 82.746822 122.183394 
L 83.039567 119.975981 
L 83.332312 118.8742 
L 83.625058 116.321329 
L 83.917803 115.777714 
L 84.503294 113.51643 
L 84.796039 112.972151 
L 85.674275 111.64149 
L 85.96702 113.043603 
L 86.259766 109.515668 
L 86.552511 108.868304 
L 86.845256 109.547237 
L 87.430747 105.608989 
L 87.723492 105.099644 
L 88.016237 103.375572 
L 88.308983 103.66914 
L 88.601728 103.212915 
L 88.894473 101.986933 
L 89.187219 100.211596 
L 90.065455 98.662256 
L 90.3582 96.140319 
L 90.650945 94.758929 
L 90.94369 95.654214 
L 91.236436 92.198086 
L 91.529181 92.772809 
L 91.821926 91.11571 
L 92.407417 91.146181 
L 92.700162 88.179118 
L 92.992908 87.527517 
L 93.285653 84.509423 
L 93.578398 85.544168 
L 93.871144 83.567079 
L 94.163889 84.498201 
L 94.456634 83.394409 
L 95.042125 83.740104 
L 95.33487 84.861886 
L 95.627615 84.991092 
L 96.213106 83.081744 
L 96.505851 83.148944 
L 96.798597 84.123174 
L 97.091342 85.496214 
L 97.384087 86.002478 
L 97.676833 84.515433 
L 97.969578 84.616689 
L 98.555068 87.348942 
L 98.847814 91.855626 
L 100.018795 92.863739 
L 100.604286 90.559363 
L 100.897031 88.160461 
L 101.482522 88.764573 
L 102.068012 86.946945 
L 102.360757 87.128036 
L 102.653503 86.226629 
L 102.946248 86.705425 
L 103.238993 86.856092 
L 103.531739 86.763215 
L 104.117229 88.30819 
L 104.409975 86.083983 
L 106.459192 77.272092 
L 107.044682 73.252252 
L 107.337428 75.095318 
L 108.801154 71.126843 
L 109.093899 71.037604 
L 109.67939 71.546427 
L 109.972135 70.981888 
L 110.264881 70.668682 
L 110.850371 71.2465 
L 111.143117 71.300977 
L 111.435862 70.92712 
L 112.021353 72.719774 
L 112.314098 77.408469 
L 112.899588 75.266199 
L 113.485079 75.34488 
L 113.777824 74.624908 
L 114.363315 71.655794 
L 114.65606 71.477904 
L 114.948806 72.506805 
L 115.241551 72.134529 
L 115.534296 72.407812 
L 115.827042 73.113925 
L 116.412532 72.476979 
L 116.705277 71.899403 
L 118.754495 70.775492 
L 119.04724 70.251759 
L 119.632731 70.96676 
L 120.218221 67.549878 
L 120.803712 66.789418 
L 121.096457 68.944442 
L 121.389202 69.569641 
L 121.681948 68.288992 
L 121.974693 68.502711 
L 123.145674 66.979136 
L 123.43842 65.896692 
L 123.731165 65.690505 
L 124.02391 66.054982 
L 124.316655 66.026232 
L 124.609401 65.486952 
L 124.902146 64.444939 
L 125.194891 64.111761 
L 126.073127 65.730715 
L 126.658618 64.821905 
L 126.951363 66.970025 
L 127.244109 66.083923 
L 127.829599 65.495077 
L 128.122344 65.459377 
L 128.41509 64.026989 
L 128.707835 64.746372 
L 129.00058 64.888831 
L 129.293326 65.23777 
L 129.586071 66.083747 
L 130.171562 66.716172 
L 131.049798 67.066192 
L 131.342543 68.074452 
L 131.635288 66.215496 
L 132.220779 65.457375 
L 132.513524 65.945798 
L 132.806269 65.597259 
L 133.099015 65.9224 
L 133.39176 67.658153 
L 134.269996 65.382918 
L 134.562741 66.677827 
L 134.855487 65.964114 
L 135.148232 66.574877 
L 135.440977 66.33188 
L 135.733722 65.180815 
L 136.319213 66.200167 
L 136.904704 64.666978 
L 137.197449 64.813447 
L 137.78294 63.95165 
L 138.075685 63.973041 
L 138.36843 66.285403 
L 138.953921 66.843684 
L 139.539411 67.110852 
L 140.124902 67.778561 
L 140.417647 69.255278 
L 140.710393 69.113024 
L 141.295883 70.935663 
L 141.881374 69.653237 
L 142.466864 70.536937 
L 142.75961 69.371828 
L 143.052355 70.475435 
L 143.3451 70.092872 
L 143.930591 70.118434 
L 145.394318 69.915425 
L 146.272553 67.709518 
L 146.858044 69.244552 
L 147.150789 69.116582 
L 147.73628 67.581873 
L 148.029025 66.212675 
L 148.321771 65.847812 
L 148.907261 67.327947 
L 149.200007 65.919822 
L 149.492752 66.964405 
L 149.785497 67.123098 
L 150.956478 66.261777 
L 151.249224 66.758611 
L 151.541969 65.370021 
L 151.834714 67.365033 
L 152.420205 65.930247 
L 153.298441 65.829611 
L 153.591186 66.630882 
L 153.883931 68.150019 
L 154.176677 68.921715 
L 154.469422 68.365577 
L 154.762167 69.103299 
L 155.054913 68.362255 
L 155.347658 67.145218 
L 155.640403 69.41266 
L 155.933149 69.419144 
L 156.518639 66.006301 
L 156.811385 67.264498 
L 157.396875 69.094299 
L 158.860602 66.35279 
L 159.446092 65.612639 
L 159.738838 65.509228 
L 160.031583 64.230854 
L 160.324328 63.957403 
L 160.617074 66.065548 
L 160.909819 66.318552 
L 161.202564 66.060316 
L 161.495309 64.653423 
L 161.788055 66.686556 
L 162.0808 69.820847 
L 162.373545 69.386873 
L 163.251781 66.805642 
L 163.544527 65.378377 
L 163.837272 65.437736 
L 164.130017 66.57443 
L 164.422763 66.218397 
L 164.715508 66.512183 
L 165.008253 66.276266 
L 165.300998 64.641082 
L 165.593744 64.407682 
L 165.886489 64.643239 
L 166.47198 66.664817 
L 167.350216 63.985056 
L 167.642961 65.79068 
L 168.228452 64.682228 
L 168.521197 63.087021 
L 169.106687 62.442785 
L 169.399433 64.548335 
L 169.984923 64.930638 
L 170.277669 66.47529 
L 170.863159 67.232391 
L 171.44865 68.597858 
L 171.741395 68.497798 
L 172.326886 67.526778 
L 172.619631 67.742466 
L 173.205122 66.371415 
L 173.497867 66.854375 
L 173.790612 66.060665 
L 174.083358 67.656965 
L 174.376103 67.407285 
L 174.961594 67.779604 
L 175.547084 67.432447 
L 175.839829 68.701669 
L 176.718065 66.777301 
L 177.010811 66.692089 
L 177.596301 66.134216 
L 178.181792 68.200228 
L 178.474537 68.342509 
L 178.767283 68.964081 
L 179.352773 68.516281 
L 179.645518 68.938805 
L 180.231009 68.880042 
L 181.40199 66.606131 
L 181.987481 64.959795 
L 182.280226 63.328892 
L 182.572972 62.699226 
L 183.158462 64.02856 
L 183.451207 63.701371 
L 183.743953 63.717158 
L 184.036698 62.319156 
L 184.329443 62.696574 
L 184.622189 61.740393 
L 184.914934 62.714158 
L 186.671406 61.281136 
L 188.135132 63.090815 
L 188.427878 64.400541 
L 189.013368 64.716732 
L 189.306114 65.668794 
L 189.598859 65.070845 
L 189.891604 63.712625 
L 190.18435 64.158986 
L 190.76984 64.22901 
L 191.062585 63.084451 
L 191.355331 64.857789 
L 191.648076 64.982599 
L 191.940821 65.602233 
L 192.526312 67.946558 
L 192.819057 68.498852 
L 193.111803 67.892664 
L 193.697293 67.638551 
L 193.990039 66.579149 
L 194.575529 66.141237 
L 194.868274 67.50608 
L 195.16102 66.50951 
L 195.453765 67.981118 
L 195.74651 66.103281 
L 196.039256 67.475069 
L 196.332001 67.338286 
L 196.624746 66.925424 
L 196.917492 65.987506 
L 197.210237 67.770163 
L 197.502982 67.735563 
L 198.088473 66.246953 
L 198.381218 65.32853 
L 198.673963 66.584369 
L 198.966709 64.998367 
L 199.259454 68.584708 
L 199.552199 69.178388 
L 200.723181 64.662686 
L 201.894162 64.83064 
L 202.186907 65.261853 
L 202.479652 65.352411 
L 202.772398 67.118767 
L 203.065143 65.868061 
L 203.357888 65.183246 
L 203.650634 64.148336 
L 203.943379 61.880702 
L 204.52887 62.896917 
L 204.821615 62.306885 
L 205.992596 63.840776 
L 206.285341 63.680979 
L 206.870832 64.032863 
L 208.041813 64.391848 
L 208.334559 65.456662 
L 208.627304 64.958231 
L 208.920049 63.849099 
L 209.212794 64.914055 
L 209.50554 64.766733 
L 209.798285 64.090607 
L 210.09103 63.727943 
L 210.383776 62.953316 
L 210.676521 63.450135 
L 211.262012 63.456806 
L 211.554757 63.983992 
L 211.847502 63.772181 
L 212.432993 62.170926 
L 212.725738 62.437739 
L 213.018483 63.400332 
L 213.896719 61.294263 
L 214.189465 62.996095 
L 214.48221 61.858852 
L 216.238682 60.923305 
L 216.824172 60.820374 
L 217.116918 61.954301 
L 217.409663 60.236074 
L 217.702408 61.304002 
L 217.995154 60.683196 
L 218.287899 61.439569 
L 218.580644 60.752853 
L 218.87339 61.915146 
L 220.044371 64.549046 
L 220.337116 65.593961 
L 220.629861 65.782399 
L 220.922607 66.423602 
L 221.215352 66.369393 
L 221.508097 65.643172 
L 222.093588 65.190955 
L 222.386333 64.020202 
L 222.679079 64.094608 
L 223.264569 64.557783 
L 223.557315 64.204506 
L 224.142805 65.154383 
L 224.43555 65.021305 
L 224.728296 63.166908 
L 225.021041 62.090628 
L 225.606532 62.775608 
L 225.899277 63.947502 
L 226.192022 64.640783 
L 226.484768 66.493502 
L 226.777513 66.326654 
L 227.070258 68.369095 
L 227.363004 68.852134 
L 227.948494 66.696913 
L 228.241239 67.190246 
L 228.533985 66.146525 
L 228.82673 64.129155 
L 229.412221 64.804521 
L 229.704966 65.629668 
L 229.997711 67.949643 
L 230.290457 67.221387 
L 230.583202 68.647256 
L 230.875947 68.324961 
L 231.168693 68.26638 
L 231.461438 68.471793 
L 231.754183 69.299206 
L 232.046928 68.099166 
L 232.339674 67.645736 
L 232.632419 66.316721 
L 232.925164 66.503569 
L 233.21791 65.249669 
L 233.8034 65.84278 
L 234.096146 65.496482 
L 234.388891 66.467892 
L 234.974382 66.280381 
L 235.267127 65.316106 
L 235.559872 66.503538 
L 235.852617 66.99391 
L 236.145363 68.699809 
L 237.023599 66.370527 
L 237.609089 68.607754 
L 238.19458 66.781297 
L 238.78007 66.793569 
L 239.365561 65.63152 
L 239.951052 66.695955 
L 240.829288 66.543067 
L 242.000269 65.619304 
L 242.293014 64.792996 
L 242.585759 63.263398 
L 242.878505 65.236845 
L 243.463995 67.316096 
L 243.756741 66.517588 
L 244.049486 66.067846 
L 245.220467 66.103044 
L 245.513213 66.42103 
L 245.805958 67.515868 
L 246.391448 67.106283 
L 246.684194 66.425302 
L 246.976939 65.320895 
L 247.56243 64.797237 
L 247.855175 64.984431 
L 248.14792 64.376695 
L 248.440666 65.109898 
L 248.733411 65.282833 
L 249.026156 65.090388 
L 249.318902 64.456961 
L 249.611647 64.786341 
L 249.904392 64.466393 
L 250.197137 64.487601 
L 251.075373 62.423437 
L 251.368119 63.270681 
L 251.660864 63.31434 
L 251.953609 62.000906 
L 252.831845 64.272878 
L 253.124591 63.006774 
L 253.417336 64.770733 
L 254.002826 64.964245 
L 254.295572 65.268743 
L 254.588317 66.942981 
L 254.881062 66.510516 
L 255.173808 67.730055 
L 255.466553 67.018302 
L 255.759298 67.586051 
L 256.052044 67.168963 
L 256.344789 68.444642 
L 256.637534 68.7864 
L 257.223025 67.637127 
L 257.51577 68.301901 
L 257.808515 67.965311 
L 258.101261 69.328665 
L 258.394006 67.498984 
L 258.979497 66.257331 
L 259.272242 68.196434 
L 259.564987 66.504809 
L 259.857733 66.317872 
L 260.150478 64.742822 
L 260.443223 65.073137 
L 260.735969 64.428221 
L 261.028714 64.297709 
L 261.321459 64.008944 
L 261.90695 62.712441 
L 262.785186 61.347274 
L 263.370676 60.925189 
L 263.956167 62.17459 
L 264.541658 62.444251 
L 265.419893 61.603939 
L 265.712639 61.15662 
L 266.005384 62.143004 
L 266.590875 61.464725 
L 266.88362 59.911537 
L 267.469111 61.891125 
L 267.761856 62.12527 
L 268.640092 64.851598 
L 268.932837 63.477087 
L 269.811073 64.332894 
L 270.103818 65.116 
L 270.396564 64.536203 
L 270.982054 64.552588 
L 271.2748 63.556814 
L 271.567545 64.269824 
L 271.86029 63.495893 
L 272.153035 62.236724 
L 272.445781 61.98636 
L 273.031271 62.049845 
L 273.324017 61.287782 
L 273.909507 62.038033 
L 274.202253 61.996103 
L 274.494998 61.395305 
L 274.787743 63.041684 
L 275.080489 63.062444 
L 275.665979 62.964546 
L 275.958724 64.041616 
L 276.25147 63.295366 
L 276.544215 63.99879 
L 276.83696 65.074713 
L 277.129706 64.721162 
L 277.422451 65.954163 
L 277.715196 65.587664 
L 278.007942 67.923864 
L 278.300687 67.312975 
L 278.886178 68.338761 
L 279.178923 68.873455 
L 279.471668 69.158609 
L 280.057159 67.817374 
L 280.349904 67.757585 
L 280.935395 66.671351 
L 281.520885 63.824097 
L 281.813631 63.314866 
L 282.106376 63.873633 
L 282.984612 63.076926 
L 283.277357 62.492553 
L 283.862848 63.442129 
L 284.155593 64.176215 
L 284.448338 63.507646 
L 284.741084 65.805998 
L 285.033829 65.483444 
L 285.326574 66.368616 
L 285.912065 66.150223 
L 286.20481 65.405961 
L 286.497556 65.323342 
L 286.790301 64.659202 
L 287.083046 63.538481 
L 287.375791 63.260318 
L 287.668537 62.103176 
L 288.546773 60.411257 
L 288.839518 61.14124 
L 289.425009 61.868289 
L 289.717754 62.635096 
L 290.010499 62.195476 
L 290.888735 60.066982 
L 291.18148 59.956142 
L 292.059716 63.570838 
L 292.352462 63.076847 
L 292.645207 61.845519 
L 292.937952 61.126239 
L 293.523443 62.517198 
L 293.816188 61.900115 
L 294.108934 62.306042 
L 294.401679 62.257916 
L 294.694424 62.71913 
L 294.987169 62.234036 
L 295.57266 63.212633 
L 295.865405 62.291112 
L 296.158151 62.943874 
L 296.450896 64.534802 
L 296.743641 63.326749 
L 297.329132 64.996062 
L 297.621877 64.770188 
L 298.207368 64.09105 
L 298.500113 63.51071 
L 298.792858 63.559539 
L 299.085604 63.122465 
L 299.378349 64.80091 
L 299.671094 65.154182 
L 300.256585 66.791764 
L 300.54933 67.091943 
L 300.842076 66.71094 
L 301.134821 65.549985 
L 301.720312 67.201686 
L 302.013057 67.443751 
L 302.305802 66.689372 
L 302.598547 66.337031 
L 303.184038 66.757954 
L 303.476783 66.753186 
L 304.062274 64.913329 
L 304.355019 65.886183 
L 304.647765 66.320795 
L 304.94051 65.934759 
L 305.233255 65.057385 
L 305.526 65.340111 
L 305.818746 66.693488 
L 306.111491 66.467742 
L 306.404236 65.410477 
L 306.696982 65.899701 
L 307.282472 66.49111 
L 307.575218 65.616589 
L 308.160708 64.308307 
L 308.453454 66.098831 
L 308.746199 66.061594 
L 309.624435 64.426197 
L 309.91718 65.424463 
L 310.209925 67.606627 
L 310.502671 67.819197 
L 311.088161 67.628176 
L 311.673652 65.956646 
L 312.259143 65.634492 
L 312.551888 64.818036 
L 313.137378 65.145676 
L 313.430124 65.748631 
L 314.89385 64.177523 
L 315.186596 64.064492 
L 315.479341 64.307549 
L 315.772086 64.204659 
L 316.357577 65.696922 
L 316.650322 67.578806 
L 316.943067 66.684962 
L 317.235813 66.331304 
L 317.528558 66.271728 
L 317.821303 65.777671 
L 318.114049 65.646492 
L 318.406794 65.245088 
L 318.992285 63.241361 
L 319.577775 63.013903 
L 320.163266 64.560621 
L 320.456011 63.867109 
L 320.748756 62.103269 
L 321.041502 61.557805 
L 321.334247 61.311493 
L 321.626992 62.297478 
L 321.919738 62.31903 
L 322.212483 61.363491 
L 322.505228 62.038037 
L 323.090719 61.216383 
L 323.383464 60.287868 
L 323.968955 60.911961 
L 324.2617 59.216572 
L 324.847191 58.725751 
L 325.139936 61.027767 
L 325.432681 61.079241 
L 325.725427 62.341323 
L 326.018172 61.870833 
L 326.310917 63.595281 
L 326.603663 62.277191 
L 326.896408 61.797073 
L 327.189153 63.903483 
L 327.481899 63.835531 
L 327.774644 64.403624 
L 328.067389 64.251788 
L 328.65288 66.076175 
L 328.945625 65.43827 
L 329.23837 64.185396 
L 329.531116 64.330616 
L 330.116606 63.529253 
L 330.994842 61.37462 
L 331.287588 62.507987 
L 331.580333 61.704297 
L 332.165823 61.574071 
L 332.458569 61.942024 
L 333.044059 61.211257 
L 333.336805 63.276209 
L 333.62955 63.539332 
L 333.922295 62.423586 
L 334.215041 63.571704 
L 334.507786 63.703204 
L 335.678767 63.305499 
L 336.264258 62.923659 
L 336.557003 61.923789 
L 336.849748 62.273037 
L 337.435239 62.693758 
L 338.02073 62.028376 
L 338.313475 62.685924 
L 338.60622 64.273587 
L 339.191711 63.820722 
L 339.484456 62.958721 
L 339.777201 62.811297 
L 340.069947 65.45944 
L 340.655437 65.741442 
L 340.948183 65.702813 
L 341.533673 64.924891 
L 341.826419 65.541342 
L 342.119164 65.627858 
L 342.411909 64.534097 
L 342.704654 64.533047 
L 342.9974 63.24461 
L 343.58289 62.514209 
L 343.875636 62.339856 
L 344.461126 61.623302 
L 345.046617 62.232075 
L 345.339362 62.914491 
L 345.924853 62.170103 
L 346.217598 62.953069 
L 346.510343 62.265793 
L 346.803089 62.310361 
L 347.095834 63.412962 
L 347.388579 63.432508 
L 347.681325 63.759032 
L 348.266815 63.878215 
L 348.559561 63.582225 
L 348.852306 62.83011 
L 349.145051 64.384448 
L 349.730542 64.660702 
L 350.023287 63.814977 
L 350.316032 64.136335 
L 350.608778 63.574545 
L 350.901523 63.913365 
L 351.194268 63.021329 
L 352.36525 63.83048 
L 353.243486 62.592332 
L 353.536231 63.92871 
L 353.828976 62.911578 
L 354.414467 62.343092 
L 354.707212 61.974845 
L 354.999957 62.529302 
L 355.585448 63.882195 
L 355.878193 63.044162 
L 356.170939 63.248126 
L 356.756429 65.777243 
L 357.049175 65.383495 
L 357.34192 65.832724 
L 357.634665 65.929319 
L 358.220156 65.530924 
L 358.512901 66.46164 
L 359.098392 64.836107 
L 359.683882 64.719275 
L 359.976628 63.718587 
L 360.269373 64.84937 
L 360.562118 63.923448 
L 360.854864 67.017376 
L 361.147609 66.484449 
L 361.440354 66.910939 
L 362.025845 66.177987 
L 362.31859 65.366026 
L 362.611335 65.525817 
L 362.904081 65.249472 
L 363.196826 65.761864 
L 363.489571 64.120416 
L 363.782317 64.519622 
L 364.075062 66.154065 
L 364.367807 65.669666 
L 364.660553 66.225874 
L 365.246043 64.361272 
L 365.538788 63.339499 
L 365.831534 62.764425 
L 366.124279 63.357218 
L 366.70977 62.350497 
L 367.29526 62.554861 
L 367.588006 61.961458 
L 367.880751 62.767086 
L 368.173496 62.584562 
L 368.466241 61.323637 
L 368.758987 61.32952 
L 369.344477 62.813158 
L 369.637223 62.279318 
L 369.929968 62.714412 
L 370.222713 61.949742 
L 370.515459 62.665547 
L 371.68644 63.50031 
L 371.979185 64.117987 
L 372.27193 63.935176 
L 372.857421 66.290674 
L 373.150166 65.506159 
L 373.442912 65.175443 
L 373.735657 65.106545 
L 374.321148 64.052587 
L 374.906638 62.199847 
L 375.199384 62.020708 
L 375.492129 61.537953 
L 375.784874 62.571608 
L 376.370365 61.609247 
L 376.955855 61.184303 
L 377.834091 62.469505 
L 378.126837 63.407251 
L 378.419582 63.610704 
L 378.712327 62.648081 
L 379.297818 62.423113 
L 379.883308 61.999142 
L 380.176054 63.131235 
L 380.468799 62.540603 
L 380.761544 61.638703 
L 381.05429 61.753738 
L 382.225271 64.055664 
L 382.518016 64.404158 
L 382.810762 63.605816 
L 383.688997 65.034988 
L 383.981743 65.007539 
L 384.274488 64.065426 
L 384.567233 64.41535 
L 384.859979 63.741843 
L 385.738215 62.186058 
L 386.03096 61.024364 
L 386.323705 62.272841 
L 386.909196 62.203961 
L 387.201941 61.718542 
L 387.494686 60.981985 
L 388.665668 60.269199 
L 388.958413 59.259826 
L 389.543904 62.005368 
L 389.836649 62.160046 
L 390.129394 61.686939 
L 390.714885 61.692991 
L 391.00763 61.279403 
L 391.300375 61.51514 
L 391.593121 60.755227 
L 391.885866 60.429096 
L 392.764102 60.706615 
L 393.642338 59.810775 
L 393.935083 60.659294 
L 394.227829 60.35805 
L 395.39881 57.814345 
L 395.691555 58.990437 
L 396.277046 58.266455 
L 396.569791 58.264775 
L 397.155282 57.643937 
L 397.448027 58.56233 
L 397.740772 58.311594 
L 398.033518 58.792008 
L 398.326263 59.967788 
L 398.619008 59.866992 
L 398.911753 60.202898 
L 399.204499 59.084383 
L 399.789989 58.657352 
L 400.082735 58.264115 
L 400.37548 58.379528 
L 400.668225 58.205586 
L 400.960971 58.778112 
L 401.546461 58.406002 
L 401.839206 59.110748 
L 402.131952 59.402408 
L 402.424697 60.903405 
L 402.717442 59.652094 
L 403.010188 59.521973 
L 403.302933 60.832732 
L 404.473914 60.243167 
L 404.76666 60.26072 
L 405.059405 62.727104 
L 405.35215 62.110596 
L 405.937641 62.008992 
L 406.230386 61.111972 
L 406.523131 61.017321 
L 406.815877 61.188732 
L 407.108622 61.784367 
L 407.694113 62.529298 
L 407.986858 62.132512 
L 408.279603 62.042983 
L 408.572349 61.463695 
L 409.157839 58.755532 
L 409.450584 58.627454 
L 409.74333 58.369325 
L 410.036075 57.600804 
L 410.621566 57.816427 
L 410.914311 59.359609 
L 411.207056 59.145342 
L 411.792547 59.948134 
L 411.792547 59.948134 
" clip-path="url(#p94aa3a24a1)" style="fill: none; stroke: #00bfbf; stroke-width: 2; stroke-linecap: square"/>
   </g>
   <g id="patch_3">
    <path d="M 57.6 307.584 
L 57.6 41.472 
" style="fill: none; stroke: #000000; stroke-width: 0.8; stroke-linejoin: miter; stroke-linecap: square"/>
   </g>
   <g id="patch_4">
    <path d="M 414.72 307.584 
L 414.72 41.472 
" style="fill: none; stroke: #000000; stroke-width: 0.8; stroke-linejoin: miter; stroke-linecap: square"/>
   </g>
   <g id="patch_5">
    <path d="M 57.6 307.584 
L 414.72 307.584 
" style="fill: none; stroke: #000000; stroke-width: 0.8; stroke-linejoin: miter; stroke-linecap: square"/>
   </g>
   <g id="patch_6">
    <path d="M 57.6 41.472 
L 414.72 41.472 
" style="fill: none; stroke: #000000; stroke-width: 0.8; stroke-linejoin: miter; stroke-linecap: square"/>
   </g>
   <g id="text_19">
    <!-- Average Reward -->
    <g transform="translate(179.119844 35.472) scale(0.14 -0.14)">
     <defs>
      <path id="DejaVuSans-41" d="M 2188 4044 
L 1331 1722 
L 3047 1722 
L 2188 4044 
z
M 1831 4666 
L 2547 4666 
L 4325 0 
L 3669 0 
L 3244 1197 
L 1141 1197 
L 716 0 
L 50 0 
L 1831 4666 
z
" transform="scale(0.015625)"/>
      <path id="DejaVuSans-76" d="M 191 3500 
L 800 3500 
L 1894 563 
L 2988 3500 
L 3597 3500 
L 2284 0 
L 1503 0 
L 191 3500 
z
" transform="scale(0.015625)"/>
      <path id="DejaVuSans-72" d="M 2631 2963 
Q 2534 3019 2420 3045 
Q 2306 3072 2169 3072 
Q 1681 3072 1420 2755 
Q 1159 2438 1159 1844 
L 1159 0 
L 581 0 
L 581 3500 
L 1159 3500 
L 1159 2956 
Q 1341 3275 1631 3429 
Q 1922 3584 2338 3584 
Q 2397 3584 2469 3576 
Q 2541 3569 2628 3553 
L 2631 2963 
z
" transform="scale(0.015625)"/>
      <path id="DejaVuSans-67" d="M 2906 1791 
Q 2906 2416 2648 2759 
Q 2391 3103 1925 3103 
Q 1463 3103 1205 2759 
Q 947 2416 947 1791 
Q 947 1169 1205 825 
Q 1463 481 1925 481 
Q 2391 481 2648 825 
Q 2906 1169 2906 1791 
z
M 3481 434 
Q 3481 -459 3084 -895 
Q 2688 -1331 1869 -1331 
Q 1566 -1331 1297 -1286 
Q 1028 -1241 775 -1147 
L 775 -588 
Q 1028 -725 1275 -790 
Q 1522 -856 1778 -856 
Q 2344 -856 2625 -561 
Q 2906 -266 2906 331 
L 2906 616 
Q 2728 306 2450 153 
Q 2172 0 1784 0 
Q 1141 0 747 490 
Q 353 981 353 1791 
Q 353 2603 747 3093 
Q 1141 3584 1784 3584 
Q 2172 3584 2450 3431 
Q 2728 3278 2906 2969 
L 2906 3500 
L 3481 3500 
L 3481 434 
z
" transform="scale(0.015625)"/>
      <path id="DejaVuSans-20" transform="scale(0.015625)"/>
      <path id="DejaVuSans-52" d="M 2841 2188 
Q 3044 2119 3236 1894 
Q 3428 1669 3622 1275 
L 4263 0 
L 3584 0 
L 2988 1197 
Q 2756 1666 2539 1819 
Q 2322 1972 1947 1972 
L 1259 1972 
L 1259 0 
L 628 0 
L 628 4666 
L 2053 4666 
Q 2853 4666 3247 4331 
Q 3641 3997 3641 3322 
Q 3641 2881 3436 2590 
Q 3231 2300 2841 2188 
z
M 1259 4147 
L 1259 2491 
L 2053 2491 
Q 2509 2491 2742 2702 
Q 2975 2913 2975 3322 
Q 2975 3731 2742 3939 
Q 2509 4147 2053 4147 
L 1259 4147 
z
" transform="scale(0.015625)"/>
      <path id="DejaVuSans-77" d="M 269 3500 
L 844 3500 
L 1563 769 
L 2278 3500 
L 2956 3500 
L 3675 769 
L 4391 3500 
L 4966 3500 
L 4050 0 
L 3372 0 
L 2619 2869 
L 1863 0 
L 1184 0 
L 269 3500 
z
" transform="scale(0.015625)"/>
      <path id="DejaVuSans-64" d="M 2906 2969 
L 2906 4863 
L 3481 4863 
L 3481 0 
L 2906 0 
L 2906 525 
Q 2725 213 2448 61 
Q 2172 -91 1784 -91 
Q 1150 -91 751 415 
Q 353 922 353 1747 
Q 353 2572 751 3078 
Q 1150 3584 1784 3584 
Q 2172 3584 2448 3432 
Q 2725 3281 2906 2969 
z
M 947 1747 
Q 947 1113 1208 752 
Q 1469 391 1925 391 
Q 2381 391 2643 752 
Q 2906 1113 2906 1747 
Q 2906 2381 2643 2742 
Q 2381 3103 1925 3103 
Q 1469 3103 1208 2742 
Q 947 2381 947 1747 
z
" transform="scale(0.015625)"/>
     </defs>
     <use xlink:href="#DejaVuSans-41"/>
     <use xlink:href="#DejaVuSans-76" x="62.533203"/>
     <use xlink:href="#DejaVuSans-65" x="121.712891"/>
     <use xlink:href="#DejaVuSans-72" x="183.236328"/>
     <use xlink:href="#DejaVuSans-61" x="224.349609"/>
     <use xlink:href="#DejaVuSans-67" x="285.628906"/>
     <use xlink:href="#DejaVuSans-65" x="349.105469"/>
     <use xlink:href="#DejaVuSans-20" x="410.628906"/>
     <use xlink:href="#DejaVuSans-52" x="442.416016"/>
     <use xlink:href="#DejaVuSans-65" x="507.398438"/>
     <use xlink:href="#DejaVuSans-77" x="568.921875"/>
     <use xlink:href="#DejaVuSans-61" x="650.708984"/>
     <use xlink:href="#DejaVuSans-72" x="711.988281"/>
     <use xlink:href="#DejaVuSans-64" x="751.351562"/>
    </g>
   </g>
  </g>
 </g>
 <defs>
  <clipPath id="p94aa3a24a1">
   <rect x="57.6" y="41.472" width="357.12" height="266.112"/>
  </clipPath>
 </defs>
</svg>
