<?xml version="1.0" encoding="utf-8" standalone="no"?>
<!DOCTYPE svg PUBLIC "-//W3C//DTD SVG 1.1//EN"
  "http://www.w3.org/Graphics/SVG/1.1/DTD/svg11.dtd">
<svg xmlns:xlink="http://www.w3.org/1999/xlink" width="460.8pt" height="345.6pt" viewBox="0 0 460.8 345.6" xmlns="http://www.w3.org/2000/svg" version="1.1">
 <metadata>
  <rdf:RDF xmlns:dc="http://purl.org/dc/elements/1.1/" xmlns:cc="http://creativecommons.org/ns#" xmlns:rdf="http://www.w3.org/1999/02/22-rdf-syntax-ns#">
   <cc:Work>
    <dc:type rdf:resource="http://purl.org/dc/dcmitype/StillImage"/>
    <dc:date>2024-08-24T13:35:23.211210</dc:date>
    <dc:format>image/svg+xml</dc:format>
    <dc:creator>
     <cc:Agent>
      <dc:title>Matplotlib v3.9.1, https://matplotlib.org/</dc:title>
     </cc:Agent>
    </dc:creator>
   </cc:Work>
  </rdf:RDF>
 </metadata>
 <defs>
  <style type="text/css">*{stroke-linejoin: round; stroke-linecap: butt}</style>
 </defs>
 <g id="figure_1">
  <g id="patch_1">
   <path d="M 0 345.6 
L 460.8 345.6 
L 460.8 0 
L 0 0 
z
" style="fill: #ffffff"/>
  </g>
  <g id="axes_1">
   <g id="patch_2">
    <path d="M 57.6 307.584 
L 414.72 307.584 
L 414.72 41.472 
L 57.6 41.472 
z
" style="fill: #ffffff"/>
   </g>
   <g id="PolyCollection_1">
    <defs>
     <path id="m99a180c81b" d="M 60.790924 -304.128 
L 60.790924 -52.021895 
L 61.083669 -48.927985 
L 61.66916 -48.153146 
L 62.25465 -46.543968 
L 62.547396 -45.701788 
L 62.840141 -45.853863 
L 63.132886 -45.756202 
L 63.425632 -45.502911 
L 63.718377 -45.451663 
L 64.011122 -44.850828 
L 64.303868 -44.52204 
L 64.596613 -44.245642 
L 64.889358 -43.972983 
L 65.182103 -43.718307 
L 65.474849 -43.751761 
L 65.767594 -43.838339 
L 66.060339 -43.425712 
L 66.353085 -44.004644 
L 66.64583 -43.629151 
L 66.938575 -43.384345 
L 67.231321 -43.647981 
L 67.524066 -43.356667 
L 67.816811 -43.379597 
L 68.109557 -43.324123 
L 68.695047 -43.258599 
L 69.573283 -43.151307 
L 69.866028 -43.091819 
L 70.158774 -43.044763 
L 70.451519 -42.826612 
L 70.744264 -42.61951 
L 71.329755 -42.43869 
L 71.6225 -42.784201 
L 71.915246 -42.433197 
L 72.207991 -42.272195 
L 72.500736 -42.167486 
L 73.086227 -41.93469 
L 73.378972 -42.056017 
L 73.671717 -42.188522 
L 73.964463 -42.405304 
L 74.257208 -42.555714 
L 74.549953 -42.837631 
L 75.135444 -42.794589 
L 75.428189 -43.076081 
L 76.01368 -42.791707 
L 76.306425 -42.410011 
L 76.59917 -42.529111 
L 76.891916 -42.5684 
L 77.184661 -42.657476 
L 77.477406 -42.844692 
L 78.062897 -42.709487 
L 78.355642 -42.644188 
L 78.648388 -43.319829 
L 78.941133 -43.453401 
L 79.233878 -43.1455 
L 79.526623 -43.090901 
L 79.819369 -42.926997 
L 80.112114 -42.670837 
L 80.404859 -42.468761 
L 80.697605 -42.188343 
L 80.99035 -42.225323 
L 81.575841 -42.107946 
L 81.868586 -41.944914 
L 82.161331 -42.052573 
L 82.454077 -41.903679 
L 82.746822 -42.100231 
L 83.039567 -41.936658 
L 83.332312 -41.777388 
L 83.625058 -41.59756 
L 83.917803 -41.524119 
L 84.503294 -41.324614 
L 84.796039 -41.253323 
L 85.38153 -41.247556 
L 85.674275 -41.145131 
L 85.96702 -41.324929 
L 86.259766 -41.192373 
L 86.552511 -41.091373 
L 86.845256 -41.134304 
L 87.430747 -41.002573 
L 87.723492 -40.968206 
L 88.016237 -40.944788 
L 88.308983 -40.951219 
L 88.601728 -40.868917 
L 88.894473 -40.777514 
L 89.187219 -40.739988 
L 89.772709 -40.666237 
L 90.065455 -40.6345 
L 90.3582 -40.569341 
L 90.650945 -40.573014 
L 90.94369 -40.58079 
L 91.236436 -40.410968 
L 91.529181 -40.414173 
L 91.821926 -40.346708 
L 92.407417 -40.247582 
L 92.700162 -40.0859 
L 92.992908 -40.07585 
L 93.285653 -39.95898 
L 93.578398 -40.083558 
L 93.871144 -40.008152 
L 94.163889 -40.224303 
L 94.456634 -40.135745 
L 94.749379 -40.064696 
L 95.042125 -40.239229 
L 95.33487 -40.208577 
L 95.627615 -40.171439 
L 95.920361 -40.139429 
L 96.213106 -40.02262 
L 96.505851 -39.93178 
L 96.798597 -39.978676 
L 97.091342 -39.911323 
L 97.384087 -39.954125 
L 97.676833 -39.890286 
L 97.969578 -39.843407 
L 98.555068 -40.029967 
L 98.847814 -40.551388 
L 99.72605 -40.542126 
L 100.018795 -40.737924 
L 100.604286 -40.564925 
L 100.897031 -40.445157 
L 101.482522 -40.490411 
L 102.068012 -40.360694 
L 102.360757 -40.488535 
L 102.653503 -40.427081 
L 102.946248 -40.553367 
L 103.238993 -40.605937 
L 103.531739 -40.602635 
L 104.117229 -41.028159 
L 104.409975 -40.841063 
L 104.70272 -40.661735 
L 104.995465 -40.474125 
L 105.580956 -40.373648 
L 105.873701 -40.275394 
L 106.166446 -40.103835 
L 106.459192 -40.028615 
L 106.751937 -39.851009 
L 107.044682 -39.738319 
L 107.337428 -39.767204 
L 107.922918 -39.727753 
L 108.215664 -39.645289 
L 108.801154 -39.556998 
L 109.093899 -39.541233 
L 109.67939 -39.556187 
L 109.972135 -39.575771 
L 110.264881 -39.577352 
L 110.850371 -39.520332 
L 111.143117 -39.526562 
L 111.435862 -39.493901 
L 112.021353 -39.59605 
L 112.314098 -39.958363 
L 112.606843 -39.826487 
L 112.899588 -39.698504 
L 113.485079 -39.650267 
L 113.777824 -39.557678 
L 114.07057 -39.495867 
L 114.363315 -39.441659 
L 114.65606 -39.435272 
L 114.948806 -39.479364 
L 115.241551 -39.458183 
L 115.534296 -39.411016 
L 115.827042 -39.46736 
L 116.412532 -39.460084 
L 116.705277 -39.444775 
L 117.583513 -39.384898 
L 118.754495 -39.421934 
L 119.04724 -39.434158 
L 119.632731 -39.425873 
L 119.925476 -39.34474 
L 120.218221 -39.267108 
L 120.803712 -39.200291 
L 121.096457 -39.303298 
L 121.389202 -39.329773 
L 121.681948 -39.261228 
L 121.974693 -39.254897 
L 122.852929 -39.196688 
L 123.145674 -39.168008 
L 123.43842 -39.126636 
L 123.731165 -39.155249 
L 124.02391 -39.395001 
L 124.316655 -39.359881 
L 124.609401 -39.301284 
L 124.902146 -39.203899 
L 125.194891 -39.144425 
L 125.487637 -39.215073 
L 125.780382 -39.170026 
L 126.073127 -39.244816 
L 126.658618 -39.199023 
L 126.951363 -39.551396 
L 127.244109 -39.45812 
L 127.829599 -39.416103 
L 128.122344 -39.326182 
L 128.41509 -39.258145 
L 128.707835 -39.327651 
L 129.00058 -39.327783 
L 129.293326 -39.266155 
L 129.586071 -39.290281 
L 130.171562 -39.25775 
L 130.464307 -39.256973 
L 131.049798 -39.21144 
L 131.342543 -39.371615 
L 131.635288 -39.297174 
L 132.220779 -39.266034 
L 132.513524 -39.243372 
L 132.806269 -39.216691 
L 133.099015 -39.201623 
L 133.39176 -39.376122 
L 133.684505 -39.398945 
L 133.977251 -39.362153 
L 134.269996 -39.278208 
L 134.562741 -39.374682 
L 134.855487 -39.32958 
L 135.148232 -39.314243 
L 135.440977 -39.253577 
L 135.733722 -39.170916 
L 136.319213 -39.236881 
L 136.611958 -39.201085 
L 136.904704 -39.131147 
L 137.197449 -39.111499 
L 137.78294 -39.066367 
L 138.075685 -39.112041 
L 138.36843 -39.186216 
L 138.953921 -39.162627 
L 139.539411 -39.217183 
L 140.124902 -39.282224 
L 140.417647 -39.618098 
L 140.710393 -39.56824 
L 141.003138 -39.80421 
L 141.295883 -39.746921 
L 141.881374 -39.63188 
L 142.174119 -39.648966 
L 142.466864 -39.633224 
L 142.75961 -39.511771 
L 143.052355 -39.520733 
L 143.3451 -39.448564 
L 143.637846 -39.415875 
L 143.930591 -39.426659 
L 145.394318 -39.394433 
L 145.979808 -39.293113 
L 146.272553 -39.288937 
L 146.858044 -39.400805 
L 147.150789 -39.404442 
L 147.443535 -39.355985 
L 147.73628 -39.296949 
L 148.029025 -39.214595 
L 148.321771 -39.193732 
L 148.614516 -39.221374 
L 148.907261 -39.209818 
L 149.200007 -39.126047 
L 149.492752 -39.122559 
L 149.785497 -39.105586 
L 150.663733 -39.066814 
L 150.956478 -39.01388 
L 151.249224 -39.063357 
L 151.541969 -38.987792 
L 151.834714 -39.185265 
L 152.420205 -39.124085 
L 152.71295 -39.089658 
L 153.005696 -39.058668 
L 153.298441 -39.040346 
L 153.591186 -39.061004 
L 153.883931 -39.365777 
L 154.176677 -39.408934 
L 154.469422 -39.340362 
L 154.762167 -39.384444 
L 155.054913 -39.393225 
L 155.347658 -39.34152 
L 155.640403 -39.610111 
L 155.933149 -39.547519 
L 156.225894 -39.456827 
L 156.518639 -39.359843 
L 156.811385 -39.38014 
L 157.396875 -39.615162 
L 157.68962 -39.571649 
L 158.275111 -39.458122 
L 158.860602 -39.377262 
L 159.446092 -39.31313 
L 159.738838 -39.260435 
L 160.031583 -39.210284 
L 160.324328 -39.170666 
L 160.617074 -39.225203 
L 160.909819 -39.188224 
L 161.202564 -39.123022 
L 161.495309 -39.086585 
L 161.788055 -39.25854 
L 162.0808 -39.53682 
L 162.373545 -39.499729 
L 162.666291 -39.413992 
L 162.959036 -39.323958 
L 163.251781 -39.270291 
L 163.544527 -39.193425 
L 163.837272 -39.15567 
L 164.130017 -39.152 
L 164.422763 -39.132267 
L 164.715508 -39.128934 
L 165.008253 -39.101536 
L 165.300998 -39.011109 
L 165.593744 -39.002314 
L 165.886489 -39.066582 
L 166.179234 -39.078533 
L 166.47198 -39.217871 
L 166.764725 -39.180728 
L 167.05747 -39.12057 
L 167.350216 -39.049402 
L 167.642961 -39.105369 
L 167.935706 -39.035253 
L 168.228452 -39.018065 
L 168.521197 -38.955791 
L 169.106687 -38.91455 
L 169.399433 -39.000988 
L 169.984923 -39.062438 
L 170.277669 -39.18497 
L 170.570414 -39.216121 
L 170.863159 -39.173048 
L 171.155905 -39.332828 
L 171.44865 -39.337983 
L 171.741395 -39.292819 
L 172.326886 -39.245976 
L 172.619631 -39.214286 
L 173.205122 -39.186868 
L 173.497867 -39.199461 
L 173.790612 -39.132231 
L 174.083358 -39.22876 
L 174.376103 -39.314211 
L 174.961594 -39.248767 
L 175.254339 -39.26484 
L 175.547084 -39.27428 
L 175.839829 -39.493425 
L 176.42532 -39.411671 
L 176.718065 -39.401813 
L 177.010811 -39.327252 
L 177.303556 -39.265851 
L 177.596301 -39.323366 
L 178.181792 -39.365714 
L 178.474537 -39.366385 
L 178.767283 -39.351559 
L 179.352773 -39.323826 
L 179.645518 -39.29927 
L 180.231009 -39.2797 
L 180.8165 -39.239958 
L 181.109245 -39.229782 
L 181.40199 -39.223671 
L 181.987481 -39.187047 
L 182.280226 -39.122181 
L 182.572972 -39.07494 
L 183.158462 -39.085991 
L 183.451207 -39.033358 
L 183.743953 -39.023693 
L 184.036698 -38.975966 
L 184.329443 -38.987902 
L 184.622189 -38.932451 
L 184.914934 -38.939676 
L 185.500425 -38.898578 
L 186.085915 -38.851085 
L 186.671406 -38.844156 
L 187.256896 -38.85045 
L 188.135132 -38.904304 
L 188.427878 -39.077583 
L 189.013368 -39.040483 
L 189.306114 -39.120217 
L 189.598859 -39.093519 
L 189.891604 -39.031492 
L 190.18435 -39.132329 
L 190.76984 -39.074983 
L 191.062585 -39.018598 
L 191.355331 -39.087262 
L 191.648076 -39.078538 
L 191.940821 -39.059868 
L 192.233567 -39.092354 
L 192.526312 -39.218437 
L 192.819057 -39.375172 
L 193.111803 -39.303445 
L 193.404548 -39.25391 
L 193.697293 -39.257438 
L 193.990039 -39.184119 
L 194.575529 -39.167144 
L 194.868274 -39.202355 
L 195.16102 -39.133941 
L 195.453765 -39.118931 
L 195.74651 -39.045996 
L 196.039256 -39.106819 
L 196.332001 -39.050833 
L 196.624746 -39.01023 
L 196.917492 -38.982504 
L 197.210237 -39.077272 
L 197.502982 -39.063475 
L 197.795728 -39.019946 
L 198.088473 -39.006567 
L 198.381218 -38.939206 
L 198.673963 -39.059468 
L 198.966709 -39.01298 
L 199.259454 -39.223688 
L 199.552199 -39.322336 
L 199.844945 -39.239177 
L 200.430435 -39.159369 
L 200.723181 -39.091209 
L 201.894162 -39.105841 
L 202.186907 -39.176907 
L 202.479652 -39.176911 
L 202.772398 -39.327523 
L 203.065143 -39.239168 
L 203.357888 -39.270076 
L 203.650634 -39.235617 
L 203.943379 -39.151916 
L 204.52887 -39.121431 
L 204.821615 -39.037656 
L 205.11436 -39.102555 
L 205.992596 -39.171357 
L 206.285341 -39.128604 
L 206.870832 -39.108893 
L 207.749068 -39.09902 
L 208.041813 -39.103814 
L 208.334559 -39.121546 
L 208.627304 -39.085679 
L 208.920049 -39.067811 
L 209.212794 -39.117586 
L 209.50554 -39.122499 
L 209.798285 -39.102275 
L 210.09103 -39.090207 
L 210.383776 -39.034873 
L 210.676521 -39.040984 
L 211.262012 -39.106733 
L 211.554757 -39.067276 
L 211.847502 -39.03846 
L 212.140248 -38.970335 
L 212.432993 -38.938571 
L 212.725738 -39.009489 
L 213.018483 -39.037102 
L 213.603974 -38.999434 
L 213.896719 -38.949488 
L 214.189465 -39.052213 
L 214.48221 -39.000815 
L 216.238682 -38.932194 
L 216.824172 -38.947314 
L 217.116918 -38.938371 
L 217.409663 -38.879074 
L 217.702408 -38.869916 
L 217.995154 -38.831047 
L 218.287899 -38.874102 
L 218.580644 -38.837131 
L 218.87339 -38.86315 
L 219.166135 -38.847085 
L 219.45888 -38.953766 
L 219.751626 -38.969387 
L 220.044371 -38.957576 
L 220.337116 -39.062724 
L 220.629861 -39.122131 
L 220.922607 -39.179029 
L 221.215352 -39.154259 
L 221.508097 -39.164277 
L 222.093588 -39.110032 
L 222.386333 -39.069206 
L 222.679079 -39.055801 
L 223.264569 -39.015344 
L 223.557315 -39.024056 
L 223.85006 -39.016204 
L 224.142805 -38.99689 
L 224.43555 -39.006456 
L 224.728296 -38.949026 
L 225.021041 -38.920386 
L 225.313786 -38.990906 
L 225.606532 -38.972281 
L 225.899277 -38.963457 
L 226.192022 -38.936906 
L 226.484768 -39.055246 
L 226.777513 -39.064417 
L 227.070258 -39.090242 
L 227.363004 -39.138762 
L 227.655749 -39.135794 
L 227.948494 -39.0665 
L 228.241239 -39.148773 
L 228.533985 -39.120729 
L 228.82673 -39.074157 
L 229.412221 -39.093744 
L 229.704966 -39.09078 
L 229.997711 -39.25387 
L 230.290457 -39.197488 
L 230.583202 -39.203677 
L 230.875947 -39.172263 
L 231.168693 -39.106157 
L 231.461438 -39.082018 
L 231.754183 -39.211515 
L 232.046928 -39.145854 
L 232.339674 -39.097736 
L 232.632419 -39.013693 
L 232.925164 -39.015657 
L 233.21791 -38.944245 
L 233.8034 -38.911786 
L 234.096146 -38.904893 
L 234.388891 -39.071171 
L 234.974382 -39.04984 
L 235.267127 -38.984404 
L 235.559872 -39.189972 
L 235.852617 -39.175782 
L 236.145363 -39.317651 
L 236.438108 -39.257229 
L 236.730853 -39.207807 
L 237.023599 -39.183443 
L 237.316344 -39.386018 
L 237.609089 -39.376961 
L 237.901835 -39.32851 
L 238.19458 -39.242817 
L 238.78007 -39.179447 
L 239.365561 -39.104742 
L 239.658306 -39.224894 
L 239.951052 -39.223677 
L 240.829288 -39.194105 
L 242.000269 -39.134744 
L 242.293014 -39.153933 
L 242.585759 -39.145334 
L 242.878505 -39.200527 
L 243.17125 -39.231128 
L 243.463995 -39.298185 
L 243.756741 -39.288537 
L 244.049486 -39.260639 
L 244.927722 -39.27722 
L 245.220467 -39.251808 
L 245.513213 -39.214198 
L 245.805958 -39.260519 
L 246.391448 -39.229203 
L 246.684194 -39.164766 
L 246.976939 -39.104011 
L 247.56243 -39.075595 
L 247.855175 -39.066981 
L 248.14792 -39.036578 
L 248.440666 -39.078768 
L 248.733411 -39.017304 
L 249.026156 -38.972739 
L 249.318902 -38.937748 
L 249.611647 -38.953617 
L 249.904392 -38.94308 
L 250.197137 -38.909223 
L 250.489883 -38.841262 
L 250.782628 -38.805954 
L 251.075373 -38.783118 
L 251.368119 -38.959023 
L 251.660864 -38.995853 
L 251.953609 -38.948331 
L 252.831845 -38.948862 
L 253.124591 -38.907991 
L 253.417336 -38.987283 
L 253.710081 -38.933509 
L 254.002826 -38.922416 
L 254.295572 -38.934078 
L 254.588317 -39.043274 
L 254.881062 -39.024855 
L 255.173808 -39.184512 
L 255.466553 -39.121661 
L 255.759298 -39.17628 
L 256.052044 -39.12185 
L 256.344789 -39.183048 
L 256.637534 -39.268302 
L 257.223025 -39.24267 
L 257.51577 -39.31031 
L 257.808515 -39.281899 
L 258.101261 -39.296529 
L 258.394006 -39.292579 
L 258.686751 -39.261641 
L 258.979497 -39.190501 
L 259.272242 -39.366004 
L 259.564987 -39.254964 
L 259.857733 -39.190341 
L 260.150478 -39.123727 
L 260.443223 -39.163598 
L 260.735969 -39.14064 
L 261.028714 -39.084157 
L 261.321459 -39.044149 
L 261.614204 -38.982698 
L 261.90695 -38.928028 
L 262.199695 -38.898071 
L 262.49244 -38.909524 
L 262.785186 -38.896535 
L 263.370676 -38.854481 
L 263.956167 -38.841148 
L 264.541658 -38.84338 
L 265.419893 -38.813691 
L 265.712639 -38.817859 
L 266.005384 -38.82212 
L 266.298129 -38.771585 
L 266.590875 -38.736924 
L 266.88362 -38.698574 
L 267.176365 -38.760879 
L 267.469111 -38.747438 
L 267.761856 -38.769466 
L 268.054601 -38.762885 
L 268.347347 -38.774598 
L 268.640092 -38.818023 
L 268.932837 -38.771413 
L 269.811073 -38.748735 
L 270.103818 -38.773741 
L 270.396564 -38.780121 
L 270.982054 -38.842925 
L 271.2748 -38.791577 
L 271.567545 -38.870218 
L 271.86029 -38.833586 
L 272.153035 -38.799416 
L 272.445781 -38.810485 
L 272.738526 -38.806678 
L 273.031271 -38.778842 
L 273.324017 -38.76086 
L 273.909507 -38.770041 
L 274.202253 -38.770776 
L 274.494998 -38.754282 
L 274.787743 -38.769574 
L 275.080489 -38.741117 
L 275.665979 -38.808734 
L 275.958724 -38.868163 
L 276.25147 -38.822977 
L 276.544215 -38.835363 
L 276.83696 -38.940128 
L 277.129706 -38.930023 
L 277.422451 -39.099207 
L 277.715196 -39.039192 
L 278.007942 -39.218682 
L 278.300687 -39.173828 
L 278.593432 -39.168263 
L 278.886178 -39.184591 
L 279.178923 -39.168013 
L 279.471668 -39.1168 
L 280.057159 -39.07515 
L 280.349904 -39.031724 
L 280.642649 -38.972979 
L 280.935395 -38.961124 
L 281.22814 -38.906175 
L 281.520885 -38.872651 
L 281.813631 -38.853529 
L 282.106376 -38.837552 
L 282.984612 -38.797411 
L 283.277357 -38.775564 
L 283.862848 -38.909158 
L 284.155593 -38.912249 
L 284.448338 -38.854197 
L 284.741084 -39.062436 
L 285.033829 -39.022417 
L 285.326574 -39.053403 
L 285.912065 -39.038418 
L 286.20481 -39.003068 
L 286.497556 -38.966248 
L 286.790301 -38.91166 
L 287.083046 -38.856049 
L 287.375791 -38.848909 
L 287.668537 -38.798331 
L 287.961282 -38.804884 
L 288.546773 -38.76918 
L 288.839518 -38.823236 
L 289.132263 -38.853148 
L 289.425009 -38.815717 
L 289.717754 -38.782559 
L 290.010499 -38.763567 
L 290.303245 -38.736893 
L 290.59599 -38.691358 
L 290.888735 -38.660644 
L 291.18148 -38.699826 
L 291.474226 -38.687869 
L 291.766971 -38.761259 
L 292.059716 -38.847476 
L 292.352462 -38.832931 
L 292.645207 -38.808735 
L 292.937952 -38.771407 
L 293.230698 -38.753223 
L 293.523443 -38.737328 
L 293.816188 -38.691929 
L 294.108934 -38.692872 
L 294.401679 -38.693815 
L 294.694424 -38.713895 
L 294.987169 -38.697791 
L 295.57266 -38.961544 
L 295.865405 -38.904639 
L 296.158151 -38.907965 
L 296.450896 -38.963791 
L 296.743641 -38.937983 
L 297.036387 -38.933123 
L 297.329132 -38.915675 
L 297.621877 -38.924165 
L 298.207368 -38.89898 
L 298.500113 -38.843209 
L 298.792858 -38.858168 
L 299.085604 -38.815888 
L 299.378349 -38.860852 
L 299.671094 -38.842554 
L 300.256585 -38.888073 
L 300.54933 -39.00413 
L 300.842076 -38.967924 
L 301.134821 -38.935704 
L 301.720312 -39.003369 
L 302.013057 -38.970435 
L 302.305802 -38.938647 
L 302.598547 -38.941712 
L 303.184038 -38.967402 
L 303.476783 -38.932464 
L 303.769529 -38.886751 
L 304.062274 -38.832252 
L 304.355019 -38.851522 
L 304.647765 -38.904127 
L 304.94051 -38.947217 
L 305.233255 -38.956698 
L 305.526 -38.93983 
L 305.818746 -39.096695 
L 306.111491 -39.029062 
L 306.404236 -38.976831 
L 306.696982 -38.963915 
L 307.282472 -38.969098 
L 307.575218 -38.973396 
L 308.160708 -38.904872 
L 308.453454 -38.998357 
L 308.746199 -38.954162 
L 309.038944 -38.903914 
L 309.624435 -38.891488 
L 309.91718 -38.897119 
L 310.209925 -38.959589 
L 310.502671 -38.980958 
L 311.088161 -38.995274 
L 311.673652 -38.95409 
L 312.259143 -38.921941 
L 312.551888 -38.872699 
L 312.844633 -38.891038 
L 313.137378 -38.856176 
L 313.430124 -38.82962 
L 314.601105 -38.790424 
L 314.89385 -38.821098 
L 315.186596 -38.828751 
L 315.479341 -38.802151 
L 315.772086 -38.801398 
L 316.357577 -38.803274 
L 316.650322 -39.126051 
L 316.943067 -39.086575 
L 317.235813 -39.023073 
L 317.528558 -38.977269 
L 317.821303 -38.977294 
L 318.114049 -38.957795 
L 318.406794 -38.960197 
L 318.699539 -38.894575 
L 318.992285 -38.868491 
L 319.577775 -38.830013 
L 319.870521 -38.88084 
L 320.163266 -38.970839 
L 320.456011 -38.940837 
L 320.748756 -38.896137 
L 321.041502 -38.843665 
L 321.334247 -38.829243 
L 321.626992 -38.852694 
L 321.919738 -38.832523 
L 322.212483 -38.798143 
L 322.505228 -38.789253 
L 322.797974 -38.76409 
L 323.090719 -38.733812 
L 323.383464 -38.702963 
L 323.67621 -38.683903 
L 323.968955 -38.722193 
L 324.2617 -38.694606 
L 324.847191 -38.693032 
L 325.139936 -38.791868 
L 325.432681 -38.761274 
L 325.725427 -38.810484 
L 326.018172 -38.821016 
L 326.310917 -38.859702 
L 326.603663 -38.815498 
L 326.896408 -38.77761 
L 327.189153 -38.878608 
L 327.481899 -38.853805 
L 327.774644 -38.880774 
L 328.067389 -38.869552 
L 328.65288 -38.940242 
L 328.945625 -38.926829 
L 329.23837 -38.886371 
L 329.531116 -38.857262 
L 330.116606 -38.829709 
L 330.409352 -38.810003 
L 330.702097 -38.804874 
L 330.994842 -38.794407 
L 331.287588 -38.904995 
L 331.580333 -38.89485 
L 332.165823 -38.880135 
L 332.458569 -38.875472 
L 333.044059 -38.850068 
L 333.336805 -38.887703 
L 333.62955 -38.88081 
L 333.922295 -38.82904 
L 334.215041 -38.884904 
L 334.507786 -38.843073 
L 335.093276 -38.83942 
L 335.678767 -38.80216 
L 336.264258 -38.811654 
L 336.557003 -38.780486 
L 336.849748 -38.798154 
L 337.142494 -38.823681 
L 337.435239 -38.794501 
L 338.02073 -38.764509 
L 338.313475 -38.78061 
L 338.60622 -38.848273 
L 339.191711 -38.897011 
L 339.484456 -38.864355 
L 339.777201 -38.930989 
L 340.069947 -39.028929 
L 340.655437 -38.992052 
L 340.948183 -38.957189 
L 341.240928 -38.910291 
L 341.533673 -38.878142 
L 341.826419 -38.907643 
L 342.119164 -38.885871 
L 342.411909 -38.817033 
L 342.704654 -38.814194 
L 342.9974 -38.754252 
L 343.290145 -38.780528 
L 343.58289 -38.773844 
L 343.875636 -38.756099 
L 344.461126 -38.762032 
L 345.046617 -38.784877 
L 345.339362 -38.777954 
L 345.924853 -38.756429 
L 346.217598 -38.824085 
L 346.510343 -38.797241 
L 346.803089 -38.799208 
L 347.095834 -38.852241 
L 347.388579 -38.897706 
L 347.681325 -38.936315 
L 347.97407 -38.88472 
L 348.266815 -38.84764 
L 348.559561 -38.803853 
L 348.852306 -38.805405 
L 349.145051 -38.814523 
L 349.730542 -38.831858 
L 350.023287 -38.849355 
L 350.316032 -38.810615 
L 350.608778 -38.799586 
L 350.901523 -38.797327 
L 351.194268 -38.754363 
L 351.779759 -38.838789 
L 352.36525 -38.816144 
L 352.657995 -38.795158 
L 353.243486 -38.784115 
L 353.536231 -38.822092 
L 353.828976 -38.776823 
L 354.121721 -38.771973 
L 354.414467 -38.759026 
L 354.707212 -38.827382 
L 354.999957 -38.810097 
L 355.585448 -38.796242 
L 355.878193 -38.748509 
L 356.170939 -38.739706 
L 356.756429 -38.831353 
L 357.049175 -38.821929 
L 357.34192 -38.790303 
L 357.634665 -38.848624 
L 358.220156 -38.857987 
L 358.512901 -38.860409 
L 358.805646 -38.812582 
L 359.098392 -38.778793 
L 359.683882 -38.825427 
L 359.976628 -38.79213 
L 360.269373 -38.948638 
L 360.562118 -38.946652 
L 360.854864 -39.154486 
L 361.147609 -39.07469 
L 361.440354 -39.096615 
L 362.025845 -39.051725 
L 362.31859 -39.050439 
L 362.611335 -39.027676 
L 362.904081 -38.961133 
L 363.196826 -38.914002 
L 363.489571 -38.875794 
L 363.782317 -38.841988 
L 364.075062 -38.981726 
L 364.367807 -38.948684 
L 364.660553 -39.023992 
L 364.953298 -38.953582 
L 365.246043 -38.886637 
L 365.538788 -38.859327 
L 365.831534 -38.829363 
L 366.124279 -38.975726 
L 366.417024 -39.008831 
L 366.70977 -38.964619 
L 367.29526 -38.906522 
L 367.588006 -38.838842 
L 367.880751 -38.912688 
L 368.173496 -38.876885 
L 368.466241 -38.856434 
L 368.758987 -38.819088 
L 369.344477 -38.90087 
L 369.637223 -38.910958 
L 369.929968 -38.969876 
L 370.222713 -38.899637 
L 370.515459 -38.90681 
L 371.68644 -38.875595 
L 371.979185 -38.876141 
L 372.27193 -38.847175 
L 372.564676 -38.864807 
L 372.857421 -38.940269 
L 373.150166 -38.87851 
L 373.442912 -38.852728 
L 373.735657 -38.823986 
L 374.028402 -38.80213 
L 374.321148 -38.764389 
L 374.613893 -38.714956 
L 374.906638 -38.697153 
L 375.199384 -38.698072 
L 375.492129 -38.699867 
L 375.784874 -38.683885 
L 376.077619 -38.645137 
L 376.370365 -38.627363 
L 376.66311 -38.643029 
L 376.955855 -38.619268 
L 377.248601 -38.689449 
L 377.541346 -38.692583 
L 377.834091 -38.683078 
L 378.126837 -38.740819 
L 378.419582 -38.725374 
L 378.712327 -38.695984 
L 379.297818 -38.669319 
L 379.883308 -38.6739 
L 380.176054 -38.732207 
L 380.468799 -38.737444 
L 380.761544 -38.711947 
L 381.05429 -38.710086 
L 381.63978 -38.789621 
L 382.225271 -38.850956 
L 382.518016 -38.855402 
L 382.810762 -38.80622 
L 383.103507 -38.826624 
L 383.688997 -38.887035 
L 383.981743 -38.905694 
L 384.274488 -38.871925 
L 384.567233 -38.906711 
L 384.859979 -38.929633 
L 385.445469 -38.900626 
L 385.738215 -38.878424 
L 386.03096 -38.81807 
L 386.323705 -38.896012 
L 386.909196 -38.900908 
L 387.201941 -38.889446 
L 387.494686 -38.858798 
L 388.372922 -38.822786 
L 388.665668 -38.817922 
L 388.958413 -38.815164 
L 389.251158 -38.851546 
L 389.543904 -38.938706 
L 389.836649 -38.965138 
L 390.129394 -38.935663 
L 390.42214 -38.899643 
L 390.714885 -38.864219 
L 391.00763 -38.814107 
L 391.300375 -38.855749 
L 391.593121 -38.825375 
L 391.885866 -38.802148 
L 392.471357 -38.845536 
L 392.764102 -38.807887 
L 393.056847 -38.769631 
L 393.642338 -38.757646 
L 393.935083 -38.779334 
L 394.227829 -38.759623 
L 394.520574 -38.736062 
L 394.813319 -38.693019 
L 395.106064 -38.673751 
L 395.39881 -38.680155 
L 395.691555 -38.840939 
L 395.9843 -38.805137 
L 396.277046 -38.773868 
L 396.569791 -38.743875 
L 397.155282 -38.720332 
L 397.448027 -38.697061 
L 397.740772 -38.668171 
L 398.033518 -38.645393 
L 398.326263 -38.735726 
L 398.619008 -38.720066 
L 398.911753 -38.703407 
L 399.204499 -38.687221 
L 399.497244 -38.671301 
L 399.789989 -38.6632 
L 400.082735 -38.629685 
L 400.37548 -38.615045 
L 400.668225 -38.573763 
L 400.960971 -38.5892 
L 401.546461 -38.556948 
L 401.839206 -38.597726 
L 402.131952 -38.634732 
L 402.424697 -38.728978 
L 402.717442 -38.670343 
L 403.010188 -38.643055 
L 403.302933 -38.785367 
L 404.473914 -38.754839 
L 404.76666 -38.761159 
L 405.059405 -38.952743 
L 405.35215 -38.909009 
L 405.937641 -38.854408 
L 406.230386 -38.796697 
L 406.523131 -38.756533 
L 406.815877 -38.740218 
L 407.108622 -38.792869 
L 407.694113 -38.870535 
L 407.986858 -38.845809 
L 408.279603 -38.807881 
L 408.572349 -38.763383 
L 408.865094 -38.733142 
L 409.157839 -38.720482 
L 409.450584 -38.686623 
L 409.74333 -38.684083 
L 410.036075 -38.67119 
L 410.32882 -38.667998 
L 410.621566 -38.674647 
L 410.914311 -38.727979 
L 411.207056 -38.699972 
L 411.499802 -38.75505 
L 411.792547 -38.773199 
L 411.792547 -52.402775 
L 411.792547 -52.402775 
L 411.499802 -52.057953 
L 411.207056 -51.011462 
L 410.914311 -51.54361 
L 410.621566 -50.530294 
L 410.32882 -50.403959 
L 410.036075 -50.46461 
L 409.74333 -50.709586 
L 409.450584 -50.757841 
L 409.157839 -51.401151 
L 408.865094 -51.641705 
L 408.572349 -52.216285 
L 408.279603 -53.061747 
L 407.986858 -53.782369 
L 407.694113 -54.25216 
L 407.108622 -52.776511 
L 406.815877 -51.776145 
L 406.523131 -52.086133 
L 406.230386 -52.849238 
L 405.937641 -53.945758 
L 405.35215 -54.983171 
L 405.059405 -55.814125 
L 404.76666 -52.174027 
L 404.473914 -52.053936 
L 403.302933 -52.633982 
L 403.010188 -49.930047 
L 402.717442 -50.448518 
L 402.424697 -51.562584 
L 402.131952 -49.771899 
L 401.839206 -49.068789 
L 401.546461 -48.294011 
L 400.960971 -48.906801 
L 400.668225 -48.613502 
L 400.37548 -49.39786 
L 400.082735 -49.676019 
L 399.789989 -50.312793 
L 399.497244 -50.466726 
L 399.204499 -50.769198 
L 398.911753 -51.076725 
L 398.619008 -51.393255 
L 398.326263 -51.690787 
L 398.033518 -49.974471 
L 397.740772 -50.407255 
L 397.448027 -50.956157 
L 397.155282 -51.398316 
L 396.569791 -51.845629 
L 396.277046 -52.4155 
L 395.9843 -53.009608 
L 395.691555 -53.689838 
L 395.39881 -50.634936 
L 395.106064 -50.513277 
L 394.813319 -50.879363 
L 394.520574 -51.697169 
L 394.227829 -52.144834 
L 393.935083 -52.519346 
L 393.642338 -52.107282 
L 393.056847 -52.334981 
L 392.764102 -53.061846 
L 392.471357 -53.777181 
L 391.885866 -52.95281 
L 391.593121 -53.394121 
L 391.300375 -53.971223 
L 391.00763 -53.180028 
L 390.714885 -54.132156 
L 390.42214 -54.805208 
L 390.129394 -55.48959 
L 389.836649 -56.049614 
L 389.543904 -55.547411 
L 389.251158 -53.891373 
L 388.958413 -53.200121 
L 388.665668 -53.252514 
L 388.372922 -53.34494 
L 387.494686 -54.029156 
L 387.201941 -54.611483 
L 386.909196 -54.829259 
L 386.323705 -54.736223 
L 386.03096 -53.255326 
L 385.738215 -54.402049 
L 385.445469 -54.823901 
L 384.859979 -55.375031 
L 384.567233 -54.939505 
L 384.274488 -54.278577 
L 383.981743 -54.920184 
L 383.688997 -54.565665 
L 383.103507 -53.417858 
L 382.810762 -53.030188 
L 382.518016 -53.964635 
L 382.225271 -53.880163 
L 381.63978 -52.714793 
L 381.05429 -51.203627 
L 380.761544 -51.238985 
L 380.468799 -51.723445 
L 380.176054 -51.623924 
L 379.883308 -50.516098 
L 379.297818 -50.429058 
L 378.712327 -50.935687 
L 378.419582 -51.494106 
L 378.126837 -51.787562 
L 377.834091 -50.690483 
L 377.541346 -50.871074 
L 377.248601 -50.811539 
L 376.955855 -49.478086 
L 376.66311 -49.929548 
L 376.370365 -49.631902 
L 376.077619 -49.969608 
L 375.784874 -50.705824 
L 375.492129 -51.009475 
L 375.199384 -50.975361 
L 374.906638 -50.957911 
L 374.613893 -51.296162 
L 374.321148 -52.235394 
L 374.028402 -52.952473 
L 373.735657 -53.367729 
L 373.442912 -53.913831 
L 373.150166 -54.403685 
L 372.857421 -55.577103 
L 372.564676 -54.143325 
L 372.27193 -53.808328 
L 371.979185 -54.358679 
L 371.68644 -54.348298 
L 370.515459 -54.941394 
L 370.222713 -54.80511 
L 369.929968 -56.139637 
L 369.637223 -55.020205 
L 369.344477 -54.828539 
L 368.758987 -53.274679 
L 368.466241 -53.98424 
L 368.173496 -54.372818 
L 367.880751 -55.053074 
L 367.588006 -53.649997 
L 367.29526 -54.935926 
L 366.70977 -56.039758 
L 366.417024 -56.879795 
L 366.124279 -56.250798 
L 365.831534 -53.4699 
L 365.538788 -54.039207 
L 365.246043 -54.558111 
L 364.953298 -55.83005 
L 364.660553 -57.167853 
L 364.367807 -55.737005 
L 364.075062 -56.364797 
L 363.782317 -53.709763 
L 363.489571 -54.352084 
L 363.196826 -55.078033 
L 362.904081 -55.973519 
L 362.611335 -57.237837 
L 362.31859 -57.670334 
L 362.025845 -57.694782 
L 361.440354 -58.547693 
L 361.147609 -58.131116 
L 360.854864 -59.647239 
L 360.562118 -55.698383 
L 360.269373 -55.736121 
L 359.976628 -52.762463 
L 359.683882 -53.395114 
L 359.098392 -52.509067 
L 358.805646 -53.151054 
L 358.512901 -54.059767 
L 358.220156 -54.013759 
L 357.634665 -53.835853 
L 357.34192 -52.727759 
L 357.049175 -53.328642 
L 356.756429 -53.507716 
L 356.170939 -51.766419 
L 355.878193 -51.933675 
L 355.585448 -52.840604 
L 354.999957 -53.103839 
L 354.707212 -53.432264 
L 354.414467 -52.133491 
L 354.121721 -52.379489 
L 353.828976 -52.471643 
L 353.536231 -53.33175 
L 353.243486 -52.610176 
L 352.657995 -52.820009 
L 352.36525 -53.21873 
L 351.779759 -53.648982 
L 351.194268 -52.04489 
L 350.901523 -52.86121 
L 350.608778 -52.904127 
L 350.316032 -53.113683 
L 350.023287 -53.849753 
L 349.730542 -53.517302 
L 349.145051 -53.187934 
L 348.852306 -53.014703 
L 348.559561 -52.985216 
L 348.266815 -53.81716 
L 347.97407 -54.521678 
L 347.681325 -55.501982 
L 347.388579 -54.768407 
L 347.095834 -53.904573 
L 346.803089 -52.896948 
L 346.510343 -52.859585 
L 346.217598 -53.369622 
L 345.924853 -52.084144 
L 345.339362 -52.493124 
L 345.046617 -52.624666 
L 344.461126 -52.190609 
L 343.875636 -52.077877 
L 343.58289 -52.41503 
L 343.290145 -52.542029 
L 342.9974 -52.042779 
L 342.704654 -53.181683 
L 342.411909 -53.235624 
L 342.119164 -54.543547 
L 341.826419 -54.957218 
L 341.533673 -54.3967 
L 341.240928 -55.007529 
L 340.948183 -55.898598 
L 340.655437 -56.56099 
L 340.069947 -57.261658 
L 339.777201 -55.400798 
L 339.484456 -54.134736 
L 339.191711 -54.755205 
L 338.60622 -53.829184 
L 338.313475 -52.543599 
L 338.02073 -52.237663 
L 337.435239 -52.807512 
L 337.142494 -53.361936 
L 336.849748 -52.876935 
L 336.557003 -52.541232 
L 336.264258 -53.133431 
L 335.678767 -52.953042 
L 335.093276 -53.660982 
L 334.507786 -53.730393 
L 334.215041 -54.525184 
L 333.922295 -53.463763 
L 333.62955 -54.447386 
L 333.336805 -54.578365 
L 333.044059 -53.863296 
L 332.458569 -54.345968 
L 332.165823 -54.434568 
L 331.580333 -54.714151 
L 331.287588 -54.906912 
L 330.994842 -52.805742 
L 330.702097 -53.004597 
L 330.409352 -53.102052 
L 330.116606 -53.476476 
L 329.531116 -53.999969 
L 329.23837 -54.553048 
L 328.945625 -55.321743 
L 328.65288 -55.576599 
L 328.067389 -54.233491 
L 327.774644 -54.446715 
L 327.481899 -53.934288 
L 327.189153 -54.40555 
L 326.896408 -52.486599 
L 326.603663 -53.206464 
L 326.310917 -54.046333 
L 326.018172 -53.311309 
L 325.725427 -53.111198 
L 325.432681 -52.176211 
L 325.139936 -52.757498 
L 324.847191 -50.879601 
L 324.2617 -50.909518 
L 323.968955 -51.433668 
L 323.67621 -50.706163 
L 323.383464 -51.068303 
L 323.090719 -51.654425 
L 322.797974 -52.229702 
L 322.505228 -52.707811 
L 322.212483 -52.87671 
L 321.919738 -53.529941 
L 321.626992 -53.913181 
L 321.334247 -53.467622 
L 321.041502 -53.741643 
L 320.748756 -54.738606 
L 320.456011 -55.587906 
L 320.163266 -56.157948 
L 319.870521 -54.447957 
L 319.577775 -53.482241 
L 318.992285 -54.213323 
L 318.699539 -54.708929 
L 318.406794 -55.95575 
L 318.114049 -55.910114 
L 317.821303 -56.280584 
L 317.528558 -56.280117 
L 317.235813 -57.150394 
L 316.943067 -58.356925 
L 316.650322 -59.10697 
L 316.357577 -52.974214 
L 315.772086 -52.938557 
L 315.479341 -52.952874 
L 315.186596 -53.458262 
L 314.89385 -53.312857 
L 314.601105 -52.730062 
L 313.430124 -53.474774 
L 313.137378 -53.979349 
L 312.844633 -54.641724 
L 312.551888 -54.293272 
L 312.259143 -55.228877 
L 311.673652 -55.839714 
L 311.088161 -56.622204 
L 310.502671 -56.350202 
L 310.209925 -55.944194 
L 309.91718 -54.757267 
L 309.624435 -54.650273 
L 309.038944 -54.886366 
L 308.746199 -55.841073 
L 308.453454 -56.680775 
L 308.160708 -54.904573 
L 307.575218 -56.206525 
L 307.282472 -56.124866 
L 306.696982 -56.02638 
L 306.404236 -56.271785 
L 306.111491 -57.264183 
L 305.818746 -58.549211 
L 305.526 -55.568768 
L 305.233255 -55.889269 
L 304.94051 -55.709116 
L 304.647765 -54.89042 
L 304.355019 -53.89091 
L 304.062274 -53.524791 
L 303.769529 -54.560263 
L 303.476783 -55.428816 
L 303.184038 -56.09264 
L 302.598547 -55.604528 
L 302.305802 -55.546289 
L 302.013057 -56.150271 
L 301.720312 -56.776005 
L 301.134821 -55.490367 
L 300.842076 -56.102555 
L 300.54933 -56.790477 
L 300.256585 -54.585378 
L 299.671094 -53.72052 
L 299.378349 -54.068192 
L 299.085604 -53.213872 
L 298.792858 -54.017189 
L 298.500113 -53.732968 
L 298.207368 -54.792624 
L 297.621877 -55.271129 
L 297.329132 -55.109834 
L 297.036387 -55.441345 
L 296.743641 -55.533686 
L 296.450896 -56.024029 
L 296.158151 -54.963336 
L 295.865405 -54.900137 
L 295.57266 -55.981343 
L 294.987169 -50.970038 
L 294.694424 -51.275999 
L 294.401679 -50.894479 
L 294.108934 -50.876568 
L 293.816188 -50.858651 
L 293.523443 -51.721227 
L 293.230698 -52.023228 
L 292.937952 -52.368733 
L 292.645207 -53.077959 
L 292.352462 -53.537692 
L 292.059716 -53.814048 
L 291.766971 -52.175915 
L 291.474226 -50.781502 
L 291.18148 -51.00869 
L 290.888735 -50.264244 
L 290.59599 -50.847802 
L 290.303245 -51.712973 
L 290.010499 -52.219781 
L 289.717754 -52.580625 
L 289.425009 -53.21063 
L 289.132263 -53.921804 
L 288.839518 -53.353492 
L 288.546773 -52.326424 
L 287.961282 -53.004798 
L 287.668537 -52.880288 
L 287.375791 -53.841271 
L 287.083046 -53.976937 
L 286.790301 -55.033536 
L 286.497556 -56.070704 
L 286.20481 -56.770295 
L 285.912065 -57.441944 
L 285.326574 -57.72665 
L 285.033829 -57.137922 
L 284.741084 -57.898275 
L 284.448338 -53.94174 
L 284.155593 -55.044722 
L 283.862848 -54.986009 
L 283.277357 -52.447723 
L 282.984612 -52.862801 
L 282.106376 -53.625486 
L 281.813631 -53.92905 
L 281.520885 -54.292362 
L 281.22814 -54.929321 
L 280.935395 -55.973363 
L 280.642649 -56.198603 
L 280.349904 -57.314753 
L 280.057159 -58.139853 
L 279.471668 -58.931194 
L 279.178923 -59.904253 
L 278.886178 -60.219231 
L 278.593432 -59.908998 
L 278.300687 -60.014728 
L 278.007942 -60.86696 
L 277.715196 -57.456657 
L 277.422451 -58.596924 
L 277.129706 -55.382442 
L 276.83696 -55.57444 
L 276.544215 -53.583903 
L 276.25147 -53.348555 
L 275.958724 -54.207093 
L 275.665979 -53.07795 
L 275.080489 -51.793229 
L 274.787743 -52.333906 
L 274.494998 -52.043354 
L 274.202253 -52.356738 
L 273.909507 -52.342779 
L 273.324017 -52.168339 
L 273.031271 -52.509992 
L 272.738526 -53.038882 
L 272.445781 -53.111214 
L 272.153035 -52.900897 
L 271.86029 -53.550134 
L 271.567545 -54.246148 
L 271.2748 -52.75196 
L 270.982054 -53.727571 
L 270.396564 -52.534303 
L 270.103818 -52.413083 
L 269.811073 -51.937971 
L 268.932837 -52.368844 
L 268.640092 -53.254441 
L 268.347347 -52.42936 
L 268.054601 -52.206807 
L 267.761856 -52.331853 
L 267.469111 -51.913323 
L 267.176365 -52.168695 
L 266.88362 -50.984905 
L 266.590875 -51.713548 
L 266.298129 -52.372119 
L 266.005384 -53.332281 
L 265.712639 -53.251318 
L 265.419893 -53.172136 
L 264.541658 -53.736229 
L 263.956167 -53.693814 
L 263.370676 -53.94714 
L 262.785186 -54.746168 
L 262.49244 -54.992958 
L 262.199695 -54.77535 
L 261.90695 -55.344528 
L 261.614204 -56.383265 
L 261.321459 -57.550829 
L 261.028714 -58.310989 
L 260.735969 -59.384167 
L 260.443223 -59.820356 
L 260.150478 -59.062806 
L 259.857733 -60.328476 
L 259.564987 -61.556323 
L 259.272242 -63.66608 
L 258.979497 -60.331518 
L 258.686751 -61.683186 
L 258.394006 -62.270995 
L 258.101261 -62.346046 
L 257.808515 -62.068086 
L 257.51577 -62.607888 
L 257.223025 -61.322727 
L 256.637534 -61.809731 
L 256.344789 -60.189921 
L 256.052044 -59.027154 
L 255.759298 -60.061315 
L 255.466553 -59.023555 
L 255.173808 -60.217721 
L 254.881062 -57.18425 
L 254.588317 -57.534211 
L 254.295572 -55.459489 
L 254.002826 -55.237901 
L 253.710081 -55.448663 
L 253.417336 -56.470382 
L 253.124591 -54.963834 
L 252.831845 -55.740384 
L 251.953609 -55.730282 
L 251.660864 -56.633198 
L 251.368119 -55.933436 
L 251.075373 -52.591244 
L 250.782628 -53.025135 
L 250.489883 -53.695975 
L 250.197137 -54.98723 
L 249.904392 -55.630511 
L 249.611647 -55.83073 
L 249.318902 -55.529206 
L 249.026156 -56.194044 
L 248.733411 -57.040779 
L 248.440666 -58.208589 
L 248.14792 -57.406982 
L 247.855175 -57.984636 
L 247.56243 -58.148307 
L 246.976939 -58.688217 
L 246.684194 -59.842556 
L 246.391448 -61.066852 
L 245.805958 -61.661854 
L 245.513213 -60.781769 
L 245.220467 -61.49636 
L 244.927722 -61.979178 
L 244.049486 -61.664133 
L 243.756741 -62.19421 
L 243.463995 -62.377507 
L 243.17125 -61.103424 
L 242.878505 -60.522017 
L 242.585759 -59.473348 
L 242.293014 -59.636724 
L 242.000269 -59.272132 
L 240.829288 -60.400003 
L 239.951052 -60.961858 
L 239.658306 -60.984994 
L 239.365561 -58.702089 
L 238.78007 -60.121502 
L 238.19458 -61.325515 
L 237.901835 -62.953698 
L 237.609089 -63.874256 
L 237.316344 -64.046351 
L 237.023599 -60.197419 
L 236.730853 -60.660327 
L 236.438108 -61.599359 
L 236.145363 -62.747372 
L 235.852617 -60.05186 
L 235.559872 -60.321467 
L 235.267127 -56.415674 
L 234.974382 -57.658953 
L 234.388891 -58.064248 
L 234.096146 -54.904971 
L 233.8034 -55.035933 
L 233.21791 -55.652655 
L 232.925164 -57.00949 
L 232.632419 -56.972168 
L 232.339674 -58.568982 
L 232.046928 -59.483232 
L 231.754183 -60.730787 
L 231.461438 -58.270344 
L 231.168693 -58.728981 
L 230.875947 -59.984998 
L 230.583202 -60.581857 
L 230.290457 -60.464263 
L 229.997711 -61.535532 
L 229.704966 -58.436813 
L 229.412221 -58.493141 
L 228.82673 -58.120987 
L 228.533985 -59.005851 
L 228.241239 -59.538686 
L 227.948494 -57.975501 
L 227.655749 -59.29208 
L 227.363004 -59.348482 
L 227.070258 -58.426605 
L 226.777513 -57.935918 
L 226.484768 -57.761681 
L 226.192022 -55.513208 
L 225.899277 -56.017687 
L 225.606532 -56.185337 
L 225.313786 -56.539206 
L 225.021041 -55.199343 
L 224.728296 -55.743486 
L 224.43555 -56.834657 
L 224.142805 -56.652914 
L 223.85006 -57.019879 
L 223.557315 -57.169058 
L 223.264569 -57.00353 
L 222.679079 -57.772221 
L 222.386333 -58.026907 
L 222.093588 -58.802601 
L 221.508097 -59.833264 
L 221.215352 -59.642914 
L 220.922607 -60.113558 
L 220.629861 -59.032485 
L 220.337116 -57.903751 
L 220.044371 -55.905947 
L 219.751626 -56.130362 
L 219.45888 -55.833552 
L 219.166135 -53.806613 
L 218.87339 -54.111857 
L 218.580644 -53.617492 
L 218.287899 -54.319947 
L 217.995154 -53.501892 
L 217.702408 -54.240405 
L 217.409663 -54.414403 
L 217.116918 -55.541055 
L 216.824172 -55.71096 
L 216.238682 -55.42368 
L 214.48221 -56.727477 
L 214.189465 -57.704047 
L 213.896719 -55.752278 
L 213.603974 -56.701247 
L 213.018483 -57.416938 
L 212.725738 -56.892296 
L 212.432993 -55.544854 
L 212.140248 -56.14836 
L 211.847502 -57.442744 
L 211.554757 -57.990238 
L 211.262012 -58.739923 
L 210.676521 -57.49069 
L 210.383776 -57.374585 
L 210.09103 -58.425931 
L 209.798285 -58.655225 
L 209.50554 -59.039483 
L 209.212794 -58.946129 
L 208.920049 -58.000404 
L 208.627304 -58.339906 
L 208.334559 -59.02137 
L 208.041813 -58.684466 
L 207.749068 -58.593377 
L 206.870832 -58.780961 
L 206.285341 -59.155467 
L 205.992596 -59.96779 
L 205.11436 -58.660547 
L 204.821615 -57.427472 
L 204.52887 -59.019194 
L 203.943379 -59.598406 
L 203.650634 -61.188724 
L 203.357888 -61.843444 
L 203.065143 -61.256201 
L 202.772398 -62.934937 
L 202.479652 -60.073318 
L 202.186907 -60.073231 
L 201.894162 -58.722978 
L 200.723181 -58.444968 
L 200.430435 -59.740009 
L 199.844945 -61.256368 
L 199.552199 -62.836379 
L 199.259454 -60.962065 
L 198.966709 -56.958624 
L 198.673963 -57.841893 
L 198.381218 -55.556905 
L 198.088473 -56.83677 
L 197.795728 -57.090967 
L 197.502982 -57.918026 
L 197.210237 -58.18017 
L 196.917492 -56.379583 
L 196.624746 -56.906369 
L 196.332001 -57.677826 
L 196.039256 -58.741567 
L 195.74651 -57.585927 
L 195.453765 -58.971684 
L 195.16102 -59.256887 
L 194.868274 -60.55675 
L 194.575529 -59.887736 
L 193.990039 -60.210253 
L 193.697293 -61.603325 
L 193.404548 -61.536298 
L 193.111803 -62.477459 
L 192.819057 -63.840263 
L 192.526312 -60.862301 
L 192.233567 -58.466733 
L 191.940821 -57.849494 
L 191.648076 -58.204228 
L 191.355331 -58.369981 
L 191.062585 -57.065358 
L 190.76984 -58.136677 
L 190.18435 -59.226258 
L 189.891604 -57.310344 
L 189.598859 -58.488864 
L 189.306114 -58.996115 
L 189.013368 -57.481168 
L 188.427878 -58.186075 
L 188.135132 -54.893775 
L 187.256896 -53.870545 
L 186.671406 -53.750973 
L 186.085915 -53.882615 
L 185.500425 -54.78498 
L 184.914934 -55.56584 
L 184.622189 -55.428573 
L 184.329443 -56.482144 
L 184.036698 -56.255359 
L 183.743953 -57.16217 
L 183.451207 -57.345793 
L 183.158462 -58.345833 
L 182.572972 -58.135856 
L 182.280226 -59.033441 
L 181.987481 -60.2659 
L 181.40199 -60.961757 
L 181.109245 -61.077862 
L 180.8165 -61.271209 
L 180.231009 -62.026309 
L 179.645518 -62.398129 
L 179.352773 -62.864689 
L 178.767283 -63.391625 
L 178.474537 -63.673317 
L 178.181792 -63.660561 
L 177.596301 -62.85596 
L 177.303556 -61.763161 
L 177.010811 -62.929797 
L 176.718065 -64.346452 
L 176.42532 -64.533751 
L 175.839829 -66.087071 
L 175.547084 -61.923328 
L 175.254339 -61.743957 
L 174.961594 -61.438578 
L 174.376103 -62.682001 
L 174.083358 -61.058438 
L 173.790612 -59.224391 
L 173.497867 -60.501767 
L 173.205122 -60.26249 
L 172.619631 -60.78343 
L 172.326886 -61.385537 
L 171.741395 -62.275561 
L 171.44865 -63.13367 
L 171.155905 -63.035726 
L 170.863159 -59.999914 
L 170.570414 -60.818295 
L 170.277669 -60.226429 
L 169.984923 -57.898313 
L 169.399433 -56.730779 
L 169.106687 -55.088456 
L 168.521197 -55.872021 
L 168.228452 -57.055239 
L 167.935706 -57.381813 
L 167.642961 -58.714018 
L 167.350216 -57.650645 
L 167.05747 -59.002832 
L 166.764725 -60.145831 
L 166.47198 -60.851549 
L 166.179234 -58.20412 
L 165.886489 -57.977058 
L 165.593744 -56.755967 
L 165.300998 -56.923075 
L 165.008253 -58.64119 
L 164.715508 -59.161746 
L 164.422763 -59.225079 
L 164.130017 -59.599999 
L 163.837272 -59.669735 
L 163.544527 -60.387077 
L 163.251781 -61.84752 
L 162.959036 -62.867197 
L 162.666291 -64.577843 
L 162.373545 -66.206846 
L 162.0808 -66.911586 
L 161.788055 -61.624262 
L 161.495309 -58.357122 
L 161.202564 -59.049417 
L 160.909819 -60.288252 
L 160.617074 -60.990866 
L 160.324328 -59.954663 
L 160.031583 -60.70739 
L 159.738838 -61.660257 
L 159.446092 -62.661461 
L 158.860602 -63.879982 
L 158.275111 -65.416309 
L 157.68962 -67.57334 
L 157.396875 -68.40007 
L 156.811385 -63.934663 
L 156.518639 -63.549013 
L 156.225894 -65.391711 
L 155.933149 -67.11486 
L 155.640403 -68.304111 
L 155.347658 -63.200873 
L 155.054913 -64.183278 
L 154.762167 -64.016427 
L 154.469422 -63.178876 
L 154.176677 -64.481753 
L 153.883931 -63.66176 
L 153.591186 -57.871079 
L 153.298441 -57.478569 
L 153.005696 -57.826693 
L 152.71295 -58.415498 
L 152.420205 -59.069618 
L 151.834714 -60.232027 
L 151.541969 -56.480039 
L 151.249224 -57.915786 
L 150.956478 -56.975714 
L 150.663733 -57.981472 
L 149.785497 -58.718129 
L 149.492752 -59.040615 
L 149.200007 -59.106888 
L 148.907261 -60.698538 
L 148.614516 -60.9181 
L 148.321771 -60.392915 
L 148.029025 -60.789312 
L 147.73628 -62.354038 
L 147.443535 -63.475717 
L 147.150789 -64.3964 
L 146.858044 -64.327291 
L 146.272553 -62.201799 
L 145.979808 -62.281154 
L 145.394318 -64.206234 
L 143.930591 -64.818526 
L 143.637846 -64.613629 
L 143.3451 -65.234719 
L 143.052355 -66.605933 
L 142.75961 -66.435647 
L 142.466864 -68.74325 
L 142.174119 -69.042359 
L 141.881374 -68.717722 
L 141.295883 -70.903498 
L 141.003138 -71.991992 
L 140.710393 -67.508557 
L 140.417647 -68.455858 
L 140.124902 -62.074256 
L 139.539411 -60.83848 
L 138.953921 -59.80192 
L 138.36843 -60.250096 
L 138.075685 -58.840787 
L 137.78294 -57.972965 
L 137.197449 -58.830476 
L 136.904704 -59.203786 
L 136.611958 -60.532609 
L 136.319213 -61.212742 
L 135.733722 -59.959401 
L 135.440977 -61.529967 
L 135.148232 -62.682611 
L 134.855487 -62.974029 
L 134.562741 -63.830955 
L 134.269996 -61.997959 
L 133.977251 -63.592899 
L 133.684505 -64.291954 
L 133.39176 -63.858326 
L 133.099015 -60.542843 
L 132.806269 -60.82912 
L 132.513524 -61.336063 
L 132.220779 -61.76665 
L 131.635288 -62.358298 
L 131.342543 -63.772692 
L 131.049798 -60.729367 
L 130.464307 -61.594496 
L 130.171562 -61.609258 
L 129.586071 -62.227336 
L 129.293326 -61.768954 
L 129.00058 -62.939871 
L 128.707835 -62.937375 
L 128.41509 -61.616761 
L 128.122344 -62.90946 
L 127.829599 -64.61795 
L 127.244109 -65.416278 
L 126.951363 -67.188527 
L 126.658618 -60.493442 
L 126.073127 -61.363504 
L 125.780382 -59.942496 
L 125.487637 -60.798391 
L 125.194891 -59.456067 
L 124.902146 -60.58608 
L 124.609401 -62.436398 
L 124.316655 -63.549737 
L 124.02391 -64.217022 
L 123.731165 -59.661728 
L 123.43842 -59.118078 
L 123.145674 -59.904152 
L 122.852929 -60.449069 
L 121.974693 -61.555047 
L 121.681948 -61.675341 
L 121.389202 -62.97769 
L 121.096457 -62.474662 
L 120.803712 -60.517531 
L 120.218221 -61.787046 
L 119.925476 -63.262054 
L 119.632731 -64.803589 
L 119.04724 -64.961009 
L 118.754495 -64.728745 
L 117.583513 -64.025065 
L 116.705277 -65.162733 
L 116.412532 -65.453605 
L 115.827042 -65.591839 
L 115.534296 -64.521301 
L 115.241551 -65.417481 
L 114.948806 -65.819919 
L 114.65606 -64.982172 
L 114.363315 -65.103515 
L 114.07057 -66.133476 
L 113.777824 -67.307874 
L 113.485079 -69.067081 
L 112.899588 -69.983578 
L 112.606843 -72.415262 
L 112.314098 -74.920898 
L 112.021353 -68.036958 
L 111.435862 -66.096126 
L 111.143117 -66.716684 
L 110.850371 -66.598316 
L 110.264881 -67.681682 
L 109.972135 -67.651655 
L 109.67939 -67.279557 
L 109.093899 -66.995429 
L 108.801154 -67.294964 
L 108.215664 -68.9725 
L 107.922918 -70.539305 
L 107.337428 -71.288868 
L 107.044682 -70.740056 
L 106.751937 -72.881165 
L 106.459192 -76.25569 
L 106.166446 -77.684862 
L 105.873701 -80.94449 
L 105.580956 -82.811306 
L 104.995465 -84.720381 
L 104.70272 -88.284958 
L 104.409975 -91.692188 
L 104.117229 -95.247013 
L 103.531739 -87.162058 
L 103.238993 -87.224812 
L 102.946248 -86.225967 
L 102.653503 -83.826541 
L 102.360757 -84.994164 
L 102.068012 -82.565184 
L 101.482522 -85.02981 
L 100.897031 -84.169983 
L 100.604286 -86.445571 
L 100.018795 -89.732558 
L 99.72605 -86.012395 
L 98.847814 -86.188379 
L 98.555068 -76.281375 
L 97.969578 -72.73673 
L 97.676833 -73.627428 
L 97.384087 -74.840371 
L 97.091342 -74.027136 
L 96.798597 -75.306846 
L 96.505851 -74.415815 
L 96.213106 -76.141771 
L 95.920361 -78.361159 
L 95.627615 -78.969339 
L 95.33487 -79.674967 
L 95.042125 -80.257358 
L 94.749379 -76.941219 
L 94.456634 -78.291158 
L 94.163889 -79.973753 
L 93.871144 -75.866884 
L 93.578398 -77.299601 
L 93.285653 -74.932629 
L 92.992908 -77.153158 
L 92.700162 -77.344097 
L 92.407417 -80.41605 
L 91.821926 -82.299461 
L 91.529181 -83.581288 
L 91.236436 -83.520401 
L 90.94369 -86.747011 
L 90.650945 -86.599274 
L 90.3582 -86.529481 
L 90.065455 -87.767505 
L 89.772709 -88.370497 
L 89.187219 -89.771779 
L 88.894473 -90.484774 
L 88.601728 -92.221429 
L 88.308983 -93.785161 
L 88.016237 -93.662967 
L 87.723492 -94.107906 
L 87.430747 -94.760883 
L 86.845256 -97.263777 
L 86.552511 -96.448089 
L 86.259766 -98.367094 
L 85.96702 -100.885654 
L 85.674275 -97.469481 
L 85.38153 -99.415561 
L 84.796039 -99.52514 
L 84.503294 -100.879667 
L 83.917803 -104.670254 
L 83.625058 -106.065633 
L 83.332312 -109.482368 
L 83.039567 -112.5085 
L 82.746822 -115.616398 
L 82.454077 -111.881906 
L 82.161331 -114.710883 
L 81.868586 -112.665364 
L 81.575841 -115.762973 
L 80.99035 -117.993137 
L 80.697605 -117.290516 
L 80.404859 -122.618464 
L 80.112114 -126.457901 
L 79.819369 -131.32495 
L 79.526623 -134.439118 
L 79.233878 -135.476491 
L 78.941133 -141.326617 
L 78.648388 -138.788751 
L 78.355642 -125.951573 
L 78.062897 -127.192245 
L 77.477406 -129.761156 
L 77.184661 -126.204038 
L 76.891916 -124.511606 
L 76.59917 -123.765105 
L 76.306425 -121.5022 
L 76.01368 -128.754439 
L 75.428189 -134.157535 
L 75.135444 -128.8092 
L 74.549953 -129.626983 
L 74.257208 -124.270564 
L 73.964463 -121.412767 
L 73.671717 -117.293909 
L 73.378972 -114.776314 
L 73.086227 -112.471108 
L 72.500736 -116.894242 
L 72.207991 -118.883701 
L 71.915246 -121.942747 
L 71.6225 -128.611822 
L 71.329755 -122.047109 
L 70.744264 -125.482682 
L 70.451519 -129.417621 
L 70.158774 -133.562501 
L 69.866028 -134.456554 
L 69.573283 -135.586829 
L 68.695047 -137.625375 
L 68.109557 -138.870332 
L 67.816811 -139.924352 
L 67.524066 -139.488682 
L 67.231321 -145.023639 
L 66.938575 -140.014564 
L 66.64583 -144.665863 
L 66.353085 -151.800227 
L 66.060339 -140.800532 
L 65.767594 -148.640445 
L 65.474849 -146.995456 
L 65.182103 -146.359831 
L 64.889358 -151.198678 
L 64.596613 -156.379189 
L 64.303868 -161.63076 
L 64.011122 -167.877741 
L 63.718377 -179.293603 
L 63.425632 -180.267306 
L 63.132886 -185.07983 
L 62.840141 -186.935395 
L 62.547396 -184.045978 
L 62.25465 -200.047383 
L 61.66916 -230.621783 
L 61.083669 -245.343718 
L 60.790924 -304.128 
z
" style="stroke: #00bfbf; stroke-opacity: 0.15"/>
    </defs>
    <g clip-path="url(#pa7f7093a95)">
     <use xlink:href="#m99a180c81b" x="0" y="345.6" style="fill: #00bfbf; fill-opacity: 0.15; stroke: #00bfbf; stroke-opacity: 0.15"/>
    </g>
   </g>
   <g id="matplotlib.axis_1">
    <g id="xtick_1">
     <g id="line2d_1">
      <path d="M 60.527453 307.584 
L 60.527453 41.472 
" clip-path="url(#pa7f7093a95)" style="fill: none; stroke: #808080; stroke-opacity: 0.2; stroke-width: 0.5; stroke-linecap: square"/>
     </g>
     <g id="line2d_2">
      <defs>
       <path id="m4d32aecafd" d="M 0 0 
L 0 3.5 
" style="stroke: #000000; stroke-width: 0.8"/>
      </defs>
      <g>
       <use xlink:href="#m4d32aecafd" x="60.527453" y="307.584" style="stroke: #000000; stroke-width: 0.8"/>
      </g>
     </g>
     <g id="text_1">
      <!-- 0 -->
      <g transform="translate(57.346203 322.182437) scale(0.1 -0.1)">
       <defs>
        <path id="DejaVuSans-30" d="M 2034 4250 
Q 1547 4250 1301 3770 
Q 1056 3291 1056 2328 
Q 1056 1369 1301 889 
Q 1547 409 2034 409 
Q 2525 409 2770 889 
Q 3016 1369 3016 2328 
Q 3016 3291 2770 3770 
Q 2525 4250 2034 4250 
z
M 2034 4750 
Q 2819 4750 3233 4129 
Q 3647 3509 3647 2328 
Q 3647 1150 3233 529 
Q 2819 -91 2034 -91 
Q 1250 -91 836 529 
Q 422 1150 422 2328 
Q 422 3509 836 4129 
Q 1250 4750 2034 4750 
z
" transform="scale(0.015625)"/>
       </defs>
       <use xlink:href="#DejaVuSans-30"/>
      </g>
     </g>
    </g>
    <g id="xtick_2">
     <g id="line2d_3">
      <path d="M 119.076514 307.584 
L 119.076514 41.472 
" clip-path="url(#pa7f7093a95)" style="fill: none; stroke: #808080; stroke-opacity: 0.2; stroke-width: 0.5; stroke-linecap: square"/>
     </g>
     <g id="line2d_4">
      <g>
       <use xlink:href="#m4d32aecafd" x="119.076514" y="307.584" style="stroke: #000000; stroke-width: 0.8"/>
      </g>
     </g>
     <g id="text_2">
      <!-- 2000 -->
      <g transform="translate(106.351514 322.182437) scale(0.1 -0.1)">
       <defs>
        <path id="DejaVuSans-32" d="M 1228 531 
L 3431 531 
L 3431 0 
L 469 0 
L 469 531 
Q 828 903 1448 1529 
Q 2069 2156 2228 2338 
Q 2531 2678 2651 2914 
Q 2772 3150 2772 3378 
Q 2772 3750 2511 3984 
Q 2250 4219 1831 4219 
Q 1534 4219 1204 4116 
Q 875 4013 500 3803 
L 500 4441 
Q 881 4594 1212 4672 
Q 1544 4750 1819 4750 
Q 2544 4750 2975 4387 
Q 3406 4025 3406 3419 
Q 3406 3131 3298 2873 
Q 3191 2616 2906 2266 
Q 2828 2175 2409 1742 
Q 1991 1309 1228 531 
z
" transform="scale(0.015625)"/>
       </defs>
       <use xlink:href="#DejaVuSans-32"/>
       <use xlink:href="#DejaVuSans-30" x="63.623047"/>
       <use xlink:href="#DejaVuSans-30" x="127.246094"/>
       <use xlink:href="#DejaVuSans-30" x="190.869141"/>
      </g>
     </g>
    </g>
    <g id="xtick_3">
     <g id="line2d_5">
      <path d="M 177.625576 307.584 
L 177.625576 41.472 
" clip-path="url(#pa7f7093a95)" style="fill: none; stroke: #808080; stroke-opacity: 0.2; stroke-width: 0.5; stroke-linecap: square"/>
     </g>
     <g id="line2d_6">
      <g>
       <use xlink:href="#m4d32aecafd" x="177.625576" y="307.584" style="stroke: #000000; stroke-width: 0.8"/>
      </g>
     </g>
     <g id="text_3">
      <!-- 4000 -->
      <g transform="translate(164.900576 322.182437) scale(0.1 -0.1)">
       <defs>
        <path id="DejaVuSans-34" d="M 2419 4116 
L 825 1625 
L 2419 1625 
L 2419 4116 
z
M 2253 4666 
L 3047 4666 
L 3047 1625 
L 3713 1625 
L 3713 1100 
L 3047 1100 
L 3047 0 
L 2419 0 
L 2419 1100 
L 313 1100 
L 313 1709 
L 2253 4666 
z
" transform="scale(0.015625)"/>
       </defs>
       <use xlink:href="#DejaVuSans-34"/>
       <use xlink:href="#DejaVuSans-30" x="63.623047"/>
       <use xlink:href="#DejaVuSans-30" x="127.246094"/>
       <use xlink:href="#DejaVuSans-30" x="190.869141"/>
      </g>
     </g>
    </g>
    <g id="xtick_4">
     <g id="line2d_7">
      <path d="M 236.174637 307.584 
L 236.174637 41.472 
" clip-path="url(#pa7f7093a95)" style="fill: none; stroke: #808080; stroke-opacity: 0.2; stroke-width: 0.5; stroke-linecap: square"/>
     </g>
     <g id="line2d_8">
      <g>
       <use xlink:href="#m4d32aecafd" x="236.174637" y="307.584" style="stroke: #000000; stroke-width: 0.8"/>
      </g>
     </g>
     <g id="text_4">
      <!-- 6000 -->
      <g transform="translate(223.449637 322.182437) scale(0.1 -0.1)">
       <defs>
        <path id="DejaVuSans-36" d="M 2113 2584 
Q 1688 2584 1439 2293 
Q 1191 2003 1191 1497 
Q 1191 994 1439 701 
Q 1688 409 2113 409 
Q 2538 409 2786 701 
Q 3034 994 3034 1497 
Q 3034 2003 2786 2293 
Q 2538 2584 2113 2584 
z
M 3366 4563 
L 3366 3988 
Q 3128 4100 2886 4159 
Q 2644 4219 2406 4219 
Q 1781 4219 1451 3797 
Q 1122 3375 1075 2522 
Q 1259 2794 1537 2939 
Q 1816 3084 2150 3084 
Q 2853 3084 3261 2657 
Q 3669 2231 3669 1497 
Q 3669 778 3244 343 
Q 2819 -91 2113 -91 
Q 1303 -91 875 529 
Q 447 1150 447 2328 
Q 447 3434 972 4092 
Q 1497 4750 2381 4750 
Q 2619 4750 2861 4703 
Q 3103 4656 3366 4563 
z
" transform="scale(0.015625)"/>
       </defs>
       <use xlink:href="#DejaVuSans-36"/>
       <use xlink:href="#DejaVuSans-30" x="63.623047"/>
       <use xlink:href="#DejaVuSans-30" x="127.246094"/>
       <use xlink:href="#DejaVuSans-30" x="190.869141"/>
      </g>
     </g>
    </g>
    <g id="xtick_5">
     <g id="line2d_9">
      <path d="M 294.723699 307.584 
L 294.723699 41.472 
" clip-path="url(#pa7f7093a95)" style="fill: none; stroke: #808080; stroke-opacity: 0.2; stroke-width: 0.5; stroke-linecap: square"/>
     </g>
     <g id="line2d_10">
      <g>
       <use xlink:href="#m4d32aecafd" x="294.723699" y="307.584" style="stroke: #000000; stroke-width: 0.8"/>
      </g>
     </g>
     <g id="text_5">
      <!-- 8000 -->
      <g transform="translate(281.998699 322.182437) scale(0.1 -0.1)">
       <defs>
        <path id="DejaVuSans-38" d="M 2034 2216 
Q 1584 2216 1326 1975 
Q 1069 1734 1069 1313 
Q 1069 891 1326 650 
Q 1584 409 2034 409 
Q 2484 409 2743 651 
Q 3003 894 3003 1313 
Q 3003 1734 2745 1975 
Q 2488 2216 2034 2216 
z
M 1403 2484 
Q 997 2584 770 2862 
Q 544 3141 544 3541 
Q 544 4100 942 4425 
Q 1341 4750 2034 4750 
Q 2731 4750 3128 4425 
Q 3525 4100 3525 3541 
Q 3525 3141 3298 2862 
Q 3072 2584 2669 2484 
Q 3125 2378 3379 2068 
Q 3634 1759 3634 1313 
Q 3634 634 3220 271 
Q 2806 -91 2034 -91 
Q 1263 -91 848 271 
Q 434 634 434 1313 
Q 434 1759 690 2068 
Q 947 2378 1403 2484 
z
M 1172 3481 
Q 1172 3119 1398 2916 
Q 1625 2713 2034 2713 
Q 2441 2713 2670 2916 
Q 2900 3119 2900 3481 
Q 2900 3844 2670 4047 
Q 2441 4250 2034 4250 
Q 1625 4250 1398 4047 
Q 1172 3844 1172 3481 
z
" transform="scale(0.015625)"/>
       </defs>
       <use xlink:href="#DejaVuSans-38"/>
       <use xlink:href="#DejaVuSans-30" x="63.623047"/>
       <use xlink:href="#DejaVuSans-30" x="127.246094"/>
       <use xlink:href="#DejaVuSans-30" x="190.869141"/>
      </g>
     </g>
    </g>
    <g id="xtick_6">
     <g id="line2d_11">
      <path d="M 353.27276 307.584 
L 353.27276 41.472 
" clip-path="url(#pa7f7093a95)" style="fill: none; stroke: #808080; stroke-opacity: 0.2; stroke-width: 0.5; stroke-linecap: square"/>
     </g>
     <g id="line2d_12">
      <g>
       <use xlink:href="#m4d32aecafd" x="353.27276" y="307.584" style="stroke: #000000; stroke-width: 0.8"/>
      </g>
     </g>
     <g id="text_6">
      <!-- 10000 -->
      <g transform="translate(337.36651 322.182437) scale(0.1 -0.1)">
       <defs>
        <path id="DejaVuSans-31" d="M 794 531 
L 1825 531 
L 1825 4091 
L 703 3866 
L 703 4441 
L 1819 4666 
L 2450 4666 
L 2450 531 
L 3481 531 
L 3481 0 
L 794 0 
L 794 531 
z
" transform="scale(0.015625)"/>
       </defs>
       <use xlink:href="#DejaVuSans-31"/>
       <use xlink:href="#DejaVuSans-30" x="63.623047"/>
       <use xlink:href="#DejaVuSans-30" x="127.246094"/>
       <use xlink:href="#DejaVuSans-30" x="190.869141"/>
       <use xlink:href="#DejaVuSans-30" x="254.492188"/>
      </g>
     </g>
    </g>
    <g id="xtick_7">
     <g id="line2d_13">
      <path d="M 411.821821 307.584 
L 411.821821 41.472 
" clip-path="url(#pa7f7093a95)" style="fill: none; stroke: #808080; stroke-opacity: 0.2; stroke-width: 0.5; stroke-linecap: square"/>
     </g>
     <g id="line2d_14">
      <g>
       <use xlink:href="#m4d32aecafd" x="411.821821" y="307.584" style="stroke: #000000; stroke-width: 0.8"/>
      </g>
     </g>
     <g id="text_7">
      <!-- 12000 -->
      <g transform="translate(395.915571 322.182437) scale(0.1 -0.1)">
       <use xlink:href="#DejaVuSans-31"/>
       <use xlink:href="#DejaVuSans-32" x="63.623047"/>
       <use xlink:href="#DejaVuSans-30" x="127.246094"/>
       <use xlink:href="#DejaVuSans-30" x="190.869141"/>
       <use xlink:href="#DejaVuSans-30" x="254.492188"/>
      </g>
     </g>
    </g>
    <g id="text_8">
     <!-- Steps -->
     <g transform="translate(219.372187 337.38025) scale(0.12 -0.12)">
      <defs>
       <path id="DejaVuSans-53" d="M 3425 4513 
L 3425 3897 
Q 3066 4069 2747 4153 
Q 2428 4238 2131 4238 
Q 1616 4238 1336 4038 
Q 1056 3838 1056 3469 
Q 1056 3159 1242 3001 
Q 1428 2844 1947 2747 
L 2328 2669 
Q 3034 2534 3370 2195 
Q 3706 1856 3706 1288 
Q 3706 609 3251 259 
Q 2797 -91 1919 -91 
Q 1588 -91 1214 -16 
Q 841 59 441 206 
L 441 856 
Q 825 641 1194 531 
Q 1563 422 1919 422 
Q 2459 422 2753 634 
Q 3047 847 3047 1241 
Q 3047 1584 2836 1778 
Q 2625 1972 2144 2069 
L 1759 2144 
Q 1053 2284 737 2584 
Q 422 2884 422 3419 
Q 422 4038 858 4394 
Q 1294 4750 2059 4750 
Q 2388 4750 2728 4690 
Q 3069 4631 3425 4513 
z
" transform="scale(0.015625)"/>
       <path id="DejaVuSans-74" d="M 1172 4494 
L 1172 3500 
L 2356 3500 
L 2356 3053 
L 1172 3053 
L 1172 1153 
Q 1172 725 1289 603 
Q 1406 481 1766 481 
L 2356 481 
L 2356 0 
L 1766 0 
Q 1100 0 847 248 
Q 594 497 594 1153 
L 594 3053 
L 172 3053 
L 172 3500 
L 594 3500 
L 594 4494 
L 1172 4494 
z
" transform="scale(0.015625)"/>
       <path id="DejaVuSans-65" d="M 3597 1894 
L 3597 1613 
L 953 1613 
Q 991 1019 1311 708 
Q 1631 397 2203 397 
Q 2534 397 2845 478 
Q 3156 559 3463 722 
L 3463 178 
Q 3153 47 2828 -22 
Q 2503 -91 2169 -91 
Q 1331 -91 842 396 
Q 353 884 353 1716 
Q 353 2575 817 3079 
Q 1281 3584 2069 3584 
Q 2775 3584 3186 3129 
Q 3597 2675 3597 1894 
z
M 3022 2063 
Q 3016 2534 2758 2815 
Q 2500 3097 2075 3097 
Q 1594 3097 1305 2825 
Q 1016 2553 972 2059 
L 3022 2063 
z
" transform="scale(0.015625)"/>
       <path id="DejaVuSans-70" d="M 1159 525 
L 1159 -1331 
L 581 -1331 
L 581 3500 
L 1159 3500 
L 1159 2969 
Q 1341 3281 1617 3432 
Q 1894 3584 2278 3584 
Q 2916 3584 3314 3078 
Q 3713 2572 3713 1747 
Q 3713 922 3314 415 
Q 2916 -91 2278 -91 
Q 1894 -91 1617 61 
Q 1341 213 1159 525 
z
M 3116 1747 
Q 3116 2381 2855 2742 
Q 2594 3103 2138 3103 
Q 1681 3103 1420 2742 
Q 1159 2381 1159 1747 
Q 1159 1113 1420 752 
Q 1681 391 2138 391 
Q 2594 391 2855 752 
Q 3116 1113 3116 1747 
z
" transform="scale(0.015625)"/>
       <path id="DejaVuSans-73" d="M 2834 3397 
L 2834 2853 
Q 2591 2978 2328 3040 
Q 2066 3103 1784 3103 
Q 1356 3103 1142 2972 
Q 928 2841 928 2578 
Q 928 2378 1081 2264 
Q 1234 2150 1697 2047 
L 1894 2003 
Q 2506 1872 2764 1633 
Q 3022 1394 3022 966 
Q 3022 478 2636 193 
Q 2250 -91 1575 -91 
Q 1294 -91 989 -36 
Q 684 19 347 128 
L 347 722 
Q 666 556 975 473 
Q 1284 391 1588 391 
Q 1994 391 2212 530 
Q 2431 669 2431 922 
Q 2431 1156 2273 1281 
Q 2116 1406 1581 1522 
L 1381 1569 
Q 847 1681 609 1914 
Q 372 2147 372 2553 
Q 372 3047 722 3315 
Q 1072 3584 1716 3584 
Q 2034 3584 2315 3537 
Q 2597 3491 2834 3397 
z
" transform="scale(0.015625)"/>
      </defs>
      <use xlink:href="#DejaVuSans-53"/>
      <use xlink:href="#DejaVuSans-74" x="63.476562"/>
      <use xlink:href="#DejaVuSans-65" x="102.685547"/>
      <use xlink:href="#DejaVuSans-70" x="164.208984"/>
      <use xlink:href="#DejaVuSans-73" x="227.685547"/>
     </g>
    </g>
   </g>
   <g id="matplotlib.axis_2">
    <g id="ytick_1">
     <g id="line2d_15">
      <path d="M 57.6 307.584 
L 414.72 307.584 
" clip-path="url(#pa7f7093a95)" style="fill: none; stroke: #808080; stroke-opacity: 0.2; stroke-width: 0.5; stroke-linecap: square"/>
     </g>
     <g id="line2d_16">
      <defs>
       <path id="m0f45520cb1" d="M 0 0 
L -3.5 0 
" style="stroke: #000000; stroke-width: 0.8"/>
      </defs>
      <g>
       <use xlink:href="#m0f45520cb1" x="57.6" y="307.584" style="stroke: #000000; stroke-width: 0.8"/>
      </g>
     </g>
     <g id="text_9">
      <!-- 0.0 -->
      <g transform="translate(34.696875 311.383219) scale(0.1 -0.1)">
       <defs>
        <path id="DejaVuSans-2e" d="M 684 794 
L 1344 794 
L 1344 0 
L 684 0 
L 684 794 
z
" transform="scale(0.015625)"/>
       </defs>
       <use xlink:href="#DejaVuSans-30"/>
       <use xlink:href="#DejaVuSans-2e" x="63.623047"/>
       <use xlink:href="#DejaVuSans-30" x="95.410156"/>
      </g>
     </g>
    </g>
    <g id="ytick_2">
     <g id="line2d_17">
      <path d="M 57.6 273.442534 
L 414.72 273.442534 
" clip-path="url(#pa7f7093a95)" style="fill: none; stroke: #808080; stroke-opacity: 0.2; stroke-width: 0.5; stroke-linecap: square"/>
     </g>
     <g id="line2d_18">
      <g>
       <use xlink:href="#m0f45520cb1" x="57.6" y="273.442534" style="stroke: #000000; stroke-width: 0.8"/>
      </g>
     </g>
     <g id="text_10">
      <!-- 0.5 -->
      <g transform="translate(34.696875 277.241753) scale(0.1 -0.1)">
       <defs>
        <path id="DejaVuSans-35" d="M 691 4666 
L 3169 4666 
L 3169 4134 
L 1269 4134 
L 1269 2991 
Q 1406 3038 1543 3061 
Q 1681 3084 1819 3084 
Q 2600 3084 3056 2656 
Q 3513 2228 3513 1497 
Q 3513 744 3044 326 
Q 2575 -91 1722 -91 
Q 1428 -91 1123 -41 
Q 819 9 494 109 
L 494 744 
Q 775 591 1075 516 
Q 1375 441 1709 441 
Q 2250 441 2565 725 
Q 2881 1009 2881 1497 
Q 2881 1984 2565 2268 
Q 2250 2553 1709 2553 
Q 1456 2553 1204 2497 
Q 953 2441 691 2322 
L 691 4666 
z
" transform="scale(0.015625)"/>
       </defs>
       <use xlink:href="#DejaVuSans-30"/>
       <use xlink:href="#DejaVuSans-2e" x="63.623047"/>
       <use xlink:href="#DejaVuSans-35" x="95.410156"/>
      </g>
     </g>
    </g>
    <g id="ytick_3">
     <g id="line2d_19">
      <path d="M 57.6 239.301069 
L 414.72 239.301069 
" clip-path="url(#pa7f7093a95)" style="fill: none; stroke: #808080; stroke-opacity: 0.2; stroke-width: 0.5; stroke-linecap: square"/>
     </g>
     <g id="line2d_20">
      <g>
       <use xlink:href="#m0f45520cb1" x="57.6" y="239.301069" style="stroke: #000000; stroke-width: 0.8"/>
      </g>
     </g>
     <g id="text_11">
      <!-- 1.0 -->
      <g transform="translate(34.696875 243.100287) scale(0.1 -0.1)">
       <use xlink:href="#DejaVuSans-31"/>
       <use xlink:href="#DejaVuSans-2e" x="63.623047"/>
       <use xlink:href="#DejaVuSans-30" x="95.410156"/>
      </g>
     </g>
    </g>
    <g id="ytick_4">
     <g id="line2d_21">
      <path d="M 57.6 205.159603 
L 414.72 205.159603 
" clip-path="url(#pa7f7093a95)" style="fill: none; stroke: #808080; stroke-opacity: 0.2; stroke-width: 0.5; stroke-linecap: square"/>
     </g>
     <g id="line2d_22">
      <g>
       <use xlink:href="#m0f45520cb1" x="57.6" y="205.159603" style="stroke: #000000; stroke-width: 0.8"/>
      </g>
     </g>
     <g id="text_12">
      <!-- 1.5 -->
      <g transform="translate(34.696875 208.958822) scale(0.1 -0.1)">
       <use xlink:href="#DejaVuSans-31"/>
       <use xlink:href="#DejaVuSans-2e" x="63.623047"/>
       <use xlink:href="#DejaVuSans-35" x="95.410156"/>
      </g>
     </g>
    </g>
    <g id="ytick_5">
     <g id="line2d_23">
      <path d="M 57.6 171.018137 
L 414.72 171.018137 
" clip-path="url(#pa7f7093a95)" style="fill: none; stroke: #808080; stroke-opacity: 0.2; stroke-width: 0.5; stroke-linecap: square"/>
     </g>
     <g id="line2d_24">
      <g>
       <use xlink:href="#m0f45520cb1" x="57.6" y="171.018137" style="stroke: #000000; stroke-width: 0.8"/>
      </g>
     </g>
     <g id="text_13">
      <!-- 2.0 -->
      <g transform="translate(34.696875 174.817356) scale(0.1 -0.1)">
       <use xlink:href="#DejaVuSans-32"/>
       <use xlink:href="#DejaVuSans-2e" x="63.623047"/>
       <use xlink:href="#DejaVuSans-30" x="95.410156"/>
      </g>
     </g>
    </g>
    <g id="ytick_6">
     <g id="line2d_25">
      <path d="M 57.6 136.876672 
L 414.72 136.876672 
" clip-path="url(#pa7f7093a95)" style="fill: none; stroke: #808080; stroke-opacity: 0.2; stroke-width: 0.5; stroke-linecap: square"/>
     </g>
     <g id="line2d_26">
      <g>
       <use xlink:href="#m0f45520cb1" x="57.6" y="136.876672" style="stroke: #000000; stroke-width: 0.8"/>
      </g>
     </g>
     <g id="text_14">
      <!-- 2.5 -->
      <g transform="translate(34.696875 140.67589) scale(0.1 -0.1)">
       <use xlink:href="#DejaVuSans-32"/>
       <use xlink:href="#DejaVuSans-2e" x="63.623047"/>
       <use xlink:href="#DejaVuSans-35" x="95.410156"/>
      </g>
     </g>
    </g>
    <g id="ytick_7">
     <g id="line2d_27">
      <path d="M 57.6 102.735206 
L 414.72 102.735206 
" clip-path="url(#pa7f7093a95)" style="fill: none; stroke: #808080; stroke-opacity: 0.2; stroke-width: 0.5; stroke-linecap: square"/>
     </g>
     <g id="line2d_28">
      <g>
       <use xlink:href="#m0f45520cb1" x="57.6" y="102.735206" style="stroke: #000000; stroke-width: 0.8"/>
      </g>
     </g>
     <g id="text_15">
      <!-- 3.0 -->
      <g transform="translate(34.696875 106.534425) scale(0.1 -0.1)">
       <defs>
        <path id="DejaVuSans-33" d="M 2597 2516 
Q 3050 2419 3304 2112 
Q 3559 1806 3559 1356 
Q 3559 666 3084 287 
Q 2609 -91 1734 -91 
Q 1441 -91 1130 -33 
Q 819 25 488 141 
L 488 750 
Q 750 597 1062 519 
Q 1375 441 1716 441 
Q 2309 441 2620 675 
Q 2931 909 2931 1356 
Q 2931 1769 2642 2001 
Q 2353 2234 1838 2234 
L 1294 2234 
L 1294 2753 
L 1863 2753 
Q 2328 2753 2575 2939 
Q 2822 3125 2822 3475 
Q 2822 3834 2567 4026 
Q 2313 4219 1838 4219 
Q 1578 4219 1281 4162 
Q 984 4106 628 3988 
L 628 4550 
Q 988 4650 1302 4700 
Q 1616 4750 1894 4750 
Q 2613 4750 3031 4423 
Q 3450 4097 3450 3541 
Q 3450 3153 3228 2886 
Q 3006 2619 2597 2516 
z
" transform="scale(0.015625)"/>
       </defs>
       <use xlink:href="#DejaVuSans-33"/>
       <use xlink:href="#DejaVuSans-2e" x="63.623047"/>
       <use xlink:href="#DejaVuSans-30" x="95.410156"/>
      </g>
     </g>
    </g>
    <g id="ytick_8">
     <g id="line2d_29">
      <path d="M 57.6 68.59374 
L 414.72 68.59374 
" clip-path="url(#pa7f7093a95)" style="fill: none; stroke: #808080; stroke-opacity: 0.2; stroke-width: 0.5; stroke-linecap: square"/>
     </g>
     <g id="line2d_30">
      <g>
       <use xlink:href="#m0f45520cb1" x="57.6" y="68.59374" style="stroke: #000000; stroke-width: 0.8"/>
      </g>
     </g>
     <g id="text_16">
      <!-- 3.5 -->
      <g transform="translate(34.696875 72.392959) scale(0.1 -0.1)">
       <use xlink:href="#DejaVuSans-33"/>
       <use xlink:href="#DejaVuSans-2e" x="63.623047"/>
       <use xlink:href="#DejaVuSans-35" x="95.410156"/>
      </g>
     </g>
    </g>
    <g id="text_17">
     <!-- Value -->
     <g transform="translate(28.20125 191.0055) rotate(-90) scale(0.12 -0.12)">
      <defs>
       <path id="DejaVuSans-56" d="M 1831 0 
L 50 4666 
L 709 4666 
L 2188 738 
L 3669 4666 
L 4325 4666 
L 2547 0 
L 1831 0 
z
" transform="scale(0.015625)"/>
       <path id="DejaVuSans-61" d="M 2194 1759 
Q 1497 1759 1228 1600 
Q 959 1441 959 1056 
Q 959 750 1161 570 
Q 1363 391 1709 391 
Q 2188 391 2477 730 
Q 2766 1069 2766 1631 
L 2766 1759 
L 2194 1759 
z
M 3341 1997 
L 3341 0 
L 2766 0 
L 2766 531 
Q 2569 213 2275 61 
Q 1981 -91 1556 -91 
Q 1019 -91 701 211 
Q 384 513 384 1019 
Q 384 1609 779 1909 
Q 1175 2209 1959 2209 
L 2766 2209 
L 2766 2266 
Q 2766 2663 2505 2880 
Q 2244 3097 1772 3097 
Q 1472 3097 1187 3025 
Q 903 2953 641 2809 
L 641 3341 
Q 956 3463 1253 3523 
Q 1550 3584 1831 3584 
Q 2591 3584 2966 3190 
Q 3341 2797 3341 1997 
z
" transform="scale(0.015625)"/>
       <path id="DejaVuSans-6c" d="M 603 4863 
L 1178 4863 
L 1178 0 
L 603 0 
L 603 4863 
z
" transform="scale(0.015625)"/>
       <path id="DejaVuSans-75" d="M 544 1381 
L 544 3500 
L 1119 3500 
L 1119 1403 
Q 1119 906 1312 657 
Q 1506 409 1894 409 
Q 2359 409 2629 706 
Q 2900 1003 2900 1516 
L 2900 3500 
L 3475 3500 
L 3475 0 
L 2900 0 
L 2900 538 
Q 2691 219 2414 64 
Q 2138 -91 1772 -91 
Q 1169 -91 856 284 
Q 544 659 544 1381 
z
M 1991 3584 
L 1991 3584 
z
" transform="scale(0.015625)"/>
      </defs>
      <use xlink:href="#DejaVuSans-56"/>
      <use xlink:href="#DejaVuSans-61" x="60.658203"/>
      <use xlink:href="#DejaVuSans-6c" x="121.9375"/>
      <use xlink:href="#DejaVuSans-75" x="149.720703"/>
      <use xlink:href="#DejaVuSans-65" x="213.099609"/>
     </g>
    </g>
   </g>
   <g id="line2d_31">
    <path d="M 60.790924 167.525053 
L 61.083669 198.464148 
L 61.66916 206.212536 
L 62.547396 230.726117 
L 62.840141 229.205371 
L 63.132886 230.181984 
L 63.425632 232.714892 
L 63.718377 233.227367 
L 64.011122 239.235715 
L 64.889358 248.014169 
L 65.182103 250.560931 
L 65.474849 250.226391 
L 65.767594 249.360608 
L 66.060339 253.486878 
L 66.353085 247.697565 
L 66.938575 253.900545 
L 67.231321 251.26419 
L 67.524066 254.177325 
L 67.816811 253.948025 
L 68.109557 254.502773 
L 69.573283 256.230932 
L 70.158774 257.296368 
L 70.744264 261.548904 
L 71.329755 263.357101 
L 71.6225 259.901989 
L 71.915246 263.412028 
L 72.500736 266.069136 
L 73.086227 268.397101 
L 73.671717 265.858785 
L 74.549953 259.367693 
L 75.135444 259.798105 
L 75.428189 256.983192 
L 76.01368 259.826927 
L 76.306425 263.643895 
L 76.59917 262.452892 
L 76.891916 262.059997 
L 77.184661 261.169243 
L 77.477406 259.297076 
L 78.355642 261.302119 
L 78.648388 254.54571 
L 78.941133 253.209991 
L 79.233878 256.289005 
L 79.526623 256.834991 
L 79.819369 258.474026 
L 80.697605 265.86057 
L 80.99035 265.49077 
L 81.575841 266.66454 
L 81.868586 268.294861 
L 82.161331 267.218272 
L 82.454077 268.707207 
L 82.746822 266.741685 
L 83.625058 271.768404 
L 83.917803 272.502814 
L 84.796039 275.210768 
L 85.38153 275.268442 
L 85.674275 276.292694 
L 85.96702 274.494708 
L 86.552511 276.830269 
L 86.845256 276.400959 
L 87.430747 277.718272 
L 88.016237 278.296122 
L 88.308983 278.23181 
L 88.894473 279.968856 
L 90.065455 281.398997 
L 90.3582 282.050589 
L 90.94369 281.9361 
L 91.236436 283.634315 
L 91.529181 283.602269 
L 91.821926 284.276916 
L 92.407417 285.268184 
L 92.700162 286.885002 
L 92.992908 286.985496 
L 93.285653 288.154195 
L 93.578398 286.908421 
L 93.871144 287.662482 
L 94.163889 285.500972 
L 94.749379 287.097042 
L 95.042125 285.351707 
L 95.920361 286.349706 
L 96.505851 288.426203 
L 96.798597 287.957239 
L 97.091342 288.630771 
L 97.384087 288.202752 
L 97.969578 289.309931 
L 98.555068 287.444329 
L 98.847814 282.230116 
L 99.72605 282.32274 
L 100.018795 280.364759 
L 100.897031 283.29243 
L 101.482522 282.839889 
L 102.068012 284.137061 
L 102.360757 282.85865 
L 102.653503 283.473189 
L 102.946248 282.210333 
L 103.238993 281.684625 
L 103.531739 281.717654 
L 104.117229 277.462414 
L 104.995465 283.002747 
L 105.580956 284.007523 
L 105.873701 284.990058 
L 106.166446 286.705651 
L 106.459192 287.457847 
L 107.044682 290.360813 
L 107.337428 290.071964 
L 107.922918 290.466471 
L 108.215664 291.291105 
L 108.801154 292.174019 
L 109.093899 292.331669 
L 109.67939 292.182128 
L 109.972135 291.986287 
L 110.264881 291.970483 
L 110.850371 292.540676 
L 111.143117 292.478377 
L 111.435862 292.804986 
L 112.021353 291.783496 
L 112.314098 288.16037 
L 112.899588 290.758959 
L 113.485079 291.241326 
L 114.07057 292.785329 
L 114.363315 293.327413 
L 114.65606 293.391278 
L 114.948806 292.950358 
L 115.241551 293.162168 
L 115.534296 293.633842 
L 115.827042 293.0704 
L 116.412532 293.143155 
L 116.705277 293.296246 
L 117.583513 293.895018 
L 119.04724 293.402416 
L 119.632731 293.485269 
L 120.218221 295.072923 
L 120.803712 295.741089 
L 121.096457 294.71102 
L 121.389202 294.446268 
L 121.681948 295.131715 
L 121.974693 295.195028 
L 123.145674 296.06392 
L 123.43842 296.477643 
L 123.731165 296.191512 
L 124.02391 293.793988 
L 124.316655 294.145191 
L 124.609401 294.731159 
L 125.194891 296.299754 
L 125.487637 295.593268 
L 125.780382 296.043739 
L 126.073127 295.29584 
L 126.658618 295.753767 
L 126.951363 292.230039 
L 127.244109 293.162801 
L 127.829599 293.582974 
L 128.41509 295.162547 
L 128.707835 294.467487 
L 129.00058 294.466173 
L 129.293326 295.082445 
L 129.586071 294.841192 
L 130.171562 295.166496 
L 130.464307 295.174265 
L 131.049798 295.629596 
L 131.342543 294.027847 
L 131.635288 294.772264 
L 132.513524 295.310283 
L 133.099015 295.727767 
L 133.39176 293.982776 
L 133.684505 293.754551 
L 133.977251 294.122474 
L 134.269996 294.961916 
L 134.562741 293.997181 
L 134.855487 294.448195 
L 135.148232 294.601573 
L 135.733722 296.034841 
L 136.319213 295.375189 
L 136.611958 295.733153 
L 136.904704 296.432534 
L 137.78294 297.080334 
L 138.075685 296.623586 
L 138.36843 295.881844 
L 138.953921 296.117726 
L 140.124902 294.92176 
L 140.417647 291.563022 
L 140.710393 292.061601 
L 141.003138 289.701899 
L 141.881374 291.425199 
L 142.174119 291.254337 
L 142.466864 291.411763 
L 142.75961 292.626291 
L 143.052355 292.536667 
L 143.3451 293.258358 
L 143.637846 293.585248 
L 143.930591 293.477407 
L 145.394318 293.799666 
L 145.979808 294.812866 
L 146.272553 294.854632 
L 146.858044 293.735952 
L 147.150789 293.699579 
L 147.73628 294.774507 
L 148.029025 295.598046 
L 148.321771 295.806676 
L 148.614516 295.530263 
L 148.907261 295.645822 
L 149.200007 296.483533 
L 149.492752 296.518413 
L 150.663733 297.075857 
L 150.956478 297.605203 
L 151.249224 297.110428 
L 151.541969 297.866085 
L 151.834714 295.891354 
L 153.298441 297.340542 
L 153.591186 297.133958 
L 153.883931 294.086232 
L 154.176677 293.654656 
L 154.469422 294.340381 
L 154.762167 293.899565 
L 155.054913 293.811749 
L 155.347658 294.328803 
L 155.640403 291.642889 
L 155.933149 292.26881 
L 156.518639 294.145572 
L 156.811385 293.942598 
L 157.396875 291.592384 
L 157.68962 292.027505 
L 158.275111 293.162785 
L 160.324328 296.037335 
L 160.617074 295.491965 
L 160.909819 295.861762 
L 161.202564 296.513781 
L 161.495309 296.878146 
L 161.788055 295.158599 
L 162.0808 292.375797 
L 162.373545 292.746712 
L 163.251781 295.041095 
L 163.544527 295.809749 
L 163.837272 296.187297 
L 164.130017 296.224 
L 164.422763 296.421327 
L 164.715508 296.45466 
L 165.008253 296.728637 
L 165.300998 297.632908 
L 165.593744 297.720859 
L 165.886489 297.07818 
L 166.179234 296.958674 
L 166.47198 295.56529 
L 166.764725 295.93672 
L 167.350216 297.249976 
L 167.642961 296.690306 
L 167.935706 297.391467 
L 168.228452 297.563348 
L 168.521197 298.186094 
L 169.106687 298.598497 
L 169.399433 297.734116 
L 169.984923 297.119625 
L 170.277669 295.894301 
L 170.570414 295.582792 
L 170.863159 296.013519 
L 171.155905 294.415723 
L 171.44865 294.364174 
L 171.741395 294.81581 
L 173.205122 295.875321 
L 173.497867 295.749386 
L 173.790612 296.421689 
L 174.376103 294.601894 
L 174.961594 295.256327 
L 175.547084 295.001196 
L 175.839829 292.809752 
L 176.42532 293.627289 
L 176.718065 293.725868 
L 177.303556 295.085494 
L 177.596301 294.510337 
L 178.181792 294.086863 
L 178.474537 294.080149 
L 181.987481 295.873526 
L 182.572972 296.994602 
L 183.158462 296.884088 
L 183.451207 297.410425 
L 183.743953 297.507069 
L 184.036698 297.984337 
L 184.329443 297.864977 
L 184.622189 298.419488 
L 184.914934 298.347242 
L 186.085915 299.23315 
L 186.671406 299.302435 
L 187.256896 299.239503 
L 188.135132 298.70096 
L 188.427878 296.968171 
L 189.013368 297.339175 
L 189.306114 296.541834 
L 189.598859 296.808808 
L 189.891604 297.429082 
L 190.18435 296.420706 
L 190.76984 296.99417 
L 191.062585 297.558022 
L 191.355331 296.871379 
L 191.940821 297.145319 
L 192.233567 296.820456 
L 192.819057 293.992283 
L 193.404548 295.204896 
L 193.697293 295.169618 
L 193.990039 295.902814 
L 194.575529 296.07256 
L 194.868274 295.720447 
L 195.16102 296.404586 
L 195.453765 296.554693 
L 195.74651 297.284039 
L 196.039256 296.675807 
L 196.624746 297.641701 
L 196.917492 297.918956 
L 197.210237 296.971279 
L 197.502982 297.109249 
L 197.795728 297.544544 
L 198.088473 297.678332 
L 198.381218 298.351945 
L 198.673963 297.14932 
L 198.966709 297.614198 
L 199.259454 295.507124 
L 199.552199 294.520642 
L 199.844945 295.352227 
L 200.430435 296.150311 
L 200.723181 296.831911 
L 201.894162 296.685591 
L 202.186907 295.974931 
L 202.479652 295.974885 
L 202.772398 294.46877 
L 203.065143 295.352315 
L 203.357888 295.04324 
L 203.650634 295.38783 
L 203.943379 296.224839 
L 204.52887 296.529688 
L 204.821615 297.367436 
L 205.11436 296.718449 
L 205.992596 296.030426 
L 206.285341 296.457965 
L 206.870832 296.655073 
L 208.041813 296.70586 
L 208.334559 296.528542 
L 208.627304 296.887207 
L 208.920049 297.065893 
L 209.212794 296.568143 
L 209.50554 296.519009 
L 210.09103 296.841931 
L 210.383776 297.395271 
L 210.676521 297.334163 
L 211.262012 296.676672 
L 212.432993 298.358287 
L 212.725738 297.649107 
L 213.018483 297.37298 
L 213.603974 297.749659 
L 213.896719 298.249117 
L 214.189465 297.22187 
L 214.48221 297.735854 
L 216.238682 298.422063 
L 216.824172 298.270863 
L 217.116918 298.360287 
L 217.409663 298.953262 
L 217.702408 299.04484 
L 217.995154 299.43353 
L 218.287899 299.002975 
L 218.580644 299.372689 
L 218.87339 299.112496 
L 219.166135 299.273151 
L 219.45888 298.206341 
L 219.751626 298.050125 
L 220.044371 298.168238 
L 220.337116 297.116763 
L 220.922607 295.953706 
L 221.215352 296.201414 
L 221.508097 296.101229 
L 223.264569 297.590563 
L 223.557315 297.503443 
L 224.43555 297.679444 
L 224.728296 298.253744 
L 225.021041 298.540135 
L 225.313786 297.834944 
L 226.192022 298.374943 
L 226.484768 297.191536 
L 226.777513 297.099832 
L 227.070258 296.841576 
L 227.363004 296.356378 
L 227.655749 296.386063 
L 227.948494 297.078999 
L 228.241239 296.25627 
L 228.533985 296.53671 
L 228.82673 297.002428 
L 229.412221 296.806558 
L 229.704966 296.836203 
L 229.997711 295.205299 
L 230.290457 295.769125 
L 230.583202 295.707233 
L 230.875947 296.02137 
L 231.168693 296.682431 
L 231.461438 296.923819 
L 231.754183 295.628849 
L 232.632419 297.607069 
L 232.925164 297.587426 
L 233.21791 298.30155 
L 234.096146 298.695068 
L 234.388891 297.03229 
L 234.974382 297.245604 
L 235.267127 297.899961 
L 235.559872 295.844281 
L 235.852617 295.986179 
L 236.145363 294.567488 
L 236.730853 295.665933 
L 237.023599 295.909569 
L 237.316344 293.883815 
L 237.609089 293.974391 
L 237.901835 294.458896 
L 238.19458 295.315834 
L 239.365561 296.696585 
L 239.658306 295.495056 
L 239.951052 295.507233 
L 240.829288 295.802946 
L 242.000269 296.396562 
L 242.293014 296.204672 
L 242.585759 296.290659 
L 242.878505 295.738728 
L 243.17125 295.432724 
L 243.463995 294.762154 
L 243.756741 294.858626 
L 244.049486 295.137614 
L 244.927722 294.971801 
L 245.513213 295.602016 
L 245.805958 295.138814 
L 246.391448 295.451973 
L 246.976939 296.703886 
L 248.14792 297.37822 
L 248.440666 296.956322 
L 249.026156 298.016608 
L 249.318902 298.366523 
L 249.611647 298.207826 
L 249.904392 298.313205 
L 250.197137 298.651774 
L 250.489883 299.331381 
L 251.075373 299.912819 
L 251.368119 298.15377 
L 251.660864 297.785475 
L 251.953609 298.260693 
L 252.831845 298.255377 
L 253.124591 298.664087 
L 253.417336 297.871168 
L 253.710081 298.408914 
L 254.002826 298.519842 
L 254.295572 298.403216 
L 254.588317 297.311257 
L 254.881062 297.495447 
L 255.173808 295.898884 
L 255.466553 296.527392 
L 255.759298 295.981202 
L 256.052044 296.525498 
L 256.637534 295.060984 
L 257.223025 295.317302 
L 257.51577 294.640901 
L 257.808515 294.925007 
L 258.101261 294.778713 
L 258.394006 294.818213 
L 258.686751 295.127586 
L 258.979497 295.83899 
L 259.272242 294.083958 
L 259.564987 295.194356 
L 260.150478 296.506734 
L 260.443223 296.108023 
L 260.735969 296.337596 
L 261.90695 298.463722 
L 262.199695 298.76329 
L 262.49244 298.648759 
L 262.785186 298.778649 
L 263.370676 299.19919 
L 263.956167 299.332519 
L 264.541658 299.310195 
L 265.419893 299.607086 
L 266.005384 299.5228 
L 266.590875 300.374764 
L 266.88362 300.758261 
L 267.176365 300.135213 
L 267.469111 300.26962 
L 267.761856 300.04934 
L 268.054601 300.115154 
L 268.347347 299.998021 
L 268.640092 299.563768 
L 268.932837 300.029872 
L 269.811073 300.256647 
L 270.103818 300.006588 
L 270.396564 299.942788 
L 270.982054 299.314752 
L 271.2748 299.828232 
L 271.567545 299.041817 
L 272.153035 299.749843 
L 272.445781 299.639151 
L 272.738526 299.67722 
L 273.324017 300.135401 
L 274.202253 300.036243 
L 274.494998 300.201182 
L 274.787743 300.04826 
L 275.080489 300.332827 
L 275.665979 299.656658 
L 275.958724 299.062372 
L 276.25147 299.514234 
L 276.544215 299.390367 
L 276.83696 298.342716 
L 277.129706 298.443767 
L 277.422451 296.751935 
L 277.715196 297.352075 
L 278.007942 295.557179 
L 278.300687 296.005722 
L 278.593432 296.06137 
L 278.886178 295.898089 
L 279.178923 296.063867 
L 279.471668 296.576003 
L 280.057159 296.992499 
L 281.520885 299.017494 
L 282.106376 299.368481 
L 283.277357 299.988356 
L 283.862848 298.652416 
L 284.155593 298.621515 
L 284.448338 299.202031 
L 284.741084 297.119644 
L 285.033829 297.51983 
L 285.326574 297.209974 
L 285.912065 297.359819 
L 286.497556 298.081524 
L 287.083046 299.183507 
L 287.375791 299.25491 
L 287.668537 299.760691 
L 287.961282 299.695159 
L 288.546773 300.052198 
L 288.839518 299.511636 
L 289.132263 299.212524 
L 289.717754 299.918408 
L 290.303245 300.375067 
L 290.888735 301.137556 
L 291.18148 300.745742 
L 291.474226 300.865315 
L 292.059716 299.269238 
L 292.645207 299.656653 
L 292.937952 300.02993 
L 293.523443 300.370723 
L 293.816188 300.82471 
L 294.401679 300.805853 
L 294.694424 300.605053 
L 294.987169 300.766085 
L 295.57266 298.128556 
L 295.865405 298.697612 
L 296.158151 298.66435 
L 296.450896 298.10609 
L 296.743641 298.364165 
L 297.036387 298.412766 
L 297.329132 298.587245 
L 297.621877 298.502353 
L 298.207368 298.754198 
L 298.500113 299.311911 
L 298.792858 299.162322 
L 299.085604 299.58512 
L 299.378349 299.135478 
L 299.671094 299.318463 
L 300.256585 298.863275 
L 300.54933 297.702696 
L 301.134821 298.386965 
L 301.720312 297.710313 
L 302.305802 298.357532 
L 302.598547 298.32688 
L 303.184038 298.069979 
L 303.769529 298.876493 
L 304.062274 299.421479 
L 304.355019 299.228784 
L 304.94051 298.271834 
L 305.233255 298.177016 
L 305.526 298.345701 
L 305.818746 296.777047 
L 306.404236 297.975692 
L 306.696982 298.104853 
L 307.575218 298.010039 
L 308.160708 298.695278 
L 308.453454 297.760434 
L 309.038944 298.70486 
L 309.624435 298.82912 
L 309.91718 298.772807 
L 310.209925 298.148108 
L 310.502671 297.93442 
L 311.088161 297.791261 
L 312.259143 298.524591 
L 312.551888 299.017015 
L 312.844633 298.833619 
L 313.430124 299.447803 
L 314.601105 299.839757 
L 314.89385 299.533022 
L 315.186596 299.456494 
L 315.479341 299.722487 
L 316.357577 299.711256 
L 316.650322 296.48349 
L 316.943067 296.87825 
L 317.528558 297.971307 
L 317.821303 297.971061 
L 318.114049 298.166045 
L 318.406794 298.142026 
L 318.699539 298.798248 
L 319.577775 299.443873 
L 319.870521 298.935602 
L 320.163266 298.035606 
L 320.748756 298.782628 
L 321.041502 299.307346 
L 321.334247 299.451568 
L 321.626992 299.217062 
L 321.919738 299.418768 
L 322.212483 299.762574 
L 322.505228 299.851468 
L 323.67621 300.904967 
L 323.968955 300.522069 
L 324.2617 300.797938 
L 324.847191 300.813684 
L 325.139936 299.825317 
L 325.432681 300.131257 
L 325.725427 299.639159 
L 326.018172 299.533837 
L 326.310917 299.146983 
L 326.896408 299.967895 
L 327.189153 298.957921 
L 327.481899 299.205954 
L 327.774644 298.936256 
L 328.067389 299.048478 
L 328.65288 298.341579 
L 328.945625 298.475714 
L 329.531116 299.171385 
L 330.994842 299.799925 
L 331.287588 298.694047 
L 333.044059 299.243318 
L 333.336805 298.866966 
L 333.62955 298.935902 
L 333.922295 299.453598 
L 334.215041 298.894956 
L 334.507786 299.313267 
L 335.093276 299.349799 
L 335.678767 299.722399 
L 336.264258 299.627458 
L 336.557003 299.939141 
L 337.142494 299.507191 
L 337.435239 299.798994 
L 338.02073 300.098914 
L 338.313475 299.937895 
L 338.60622 299.261272 
L 339.191711 298.773892 
L 339.484456 299.100455 
L 339.777201 298.434106 
L 340.069947 297.454706 
L 340.655437 297.823479 
L 341.533673 298.962579 
L 341.826419 298.66757 
L 342.119164 298.885291 
L 342.411909 299.573672 
L 342.704654 299.602062 
L 342.9974 300.201485 
L 343.290145 299.938722 
L 344.461126 300.12368 
L 345.046617 299.895228 
L 345.924853 300.179713 
L 346.217598 299.503146 
L 346.510343 299.771587 
L 346.803089 299.751922 
L 347.681325 298.380852 
L 348.559561 299.705465 
L 349.145051 299.598772 
L 350.023287 299.250446 
L 350.316032 299.637851 
L 350.901523 299.770731 
L 351.194268 300.200374 
L 351.779759 299.356115 
L 353.243486 299.902855 
L 353.536231 299.523079 
L 353.828976 299.975767 
L 354.414467 300.153741 
L 354.707212 299.470177 
L 354.999957 299.643032 
L 355.585448 299.781577 
L 355.878193 300.258908 
L 356.170939 300.346937 
L 356.756429 299.430465 
L 357.049175 299.524715 
L 357.34192 299.840969 
L 357.634665 299.257762 
L 358.512901 299.139912 
L 359.098392 299.95607 
L 359.683882 299.489729 
L 359.976628 299.822704 
L 360.269373 298.257621 
L 360.562118 298.277482 
L 360.854864 296.199137 
L 361.147609 296.997097 
L 361.440354 296.777846 
L 362.025845 297.226746 
L 362.31859 297.239614 
L 362.611335 297.467244 
L 363.196826 298.603983 
L 363.782317 299.324124 
L 364.075062 297.926738 
L 364.367807 298.257155 
L 364.660553 297.504077 
L 365.246043 298.877626 
L 365.831534 299.450368 
L 366.124279 297.986738 
L 366.417024 297.655687 
L 366.70977 298.097811 
L 367.29526 298.678776 
L 367.588006 299.35558 
L 367.880751 298.617119 
L 368.758987 299.553116 
L 369.344477 298.735295 
L 369.637223 298.634418 
L 369.929968 298.045244 
L 370.222713 298.747626 
L 370.515459 298.675898 
L 371.979185 298.98259 
L 372.27193 299.272249 
L 372.564676 299.095934 
L 372.857421 298.341314 
L 373.150166 298.958903 
L 374.321148 300.100108 
L 374.613893 300.594441 
L 374.906638 300.772468 
L 375.492129 300.745329 
L 375.784874 300.905145 
L 376.077619 301.292628 
L 376.370365 301.470367 
L 376.66311 301.313712 
L 376.955855 301.551323 
L 377.248601 300.849506 
L 377.541346 300.818172 
L 377.834091 300.913219 
L 378.126837 300.335809 
L 378.419582 300.49026 
L 378.712327 300.784165 
L 379.297818 301.050811 
L 379.883308 301.005001 
L 380.176054 300.421935 
L 380.468799 300.369555 
L 380.761544 300.624534 
L 381.05429 300.643143 
L 382.225271 299.23444 
L 382.518016 299.189981 
L 382.810762 299.681796 
L 383.103507 299.477759 
L 383.981743 298.687061 
L 384.274488 299.024749 
L 384.859979 298.447668 
L 385.738215 298.959764 
L 386.03096 299.563302 
L 386.323705 298.783883 
L 386.909196 298.734916 
L 387.201941 298.849535 
L 387.494686 299.156023 
L 388.665668 299.564782 
L 388.958413 299.592357 
L 389.251158 299.22854 
L 389.543904 298.356941 
L 389.836649 298.092624 
L 390.714885 299.101813 
L 391.00763 299.602933 
L 391.300375 299.186514 
L 391.885866 299.722521 
L 392.471357 299.288642 
L 393.056847 300.047694 
L 393.642338 300.167536 
L 393.935083 299.95066 
L 394.520574 300.383385 
L 394.813319 300.813809 
L 395.106064 301.006486 
L 395.39881 300.942455 
L 395.691555 299.334612 
L 396.569791 300.305248 
L 397.448027 300.773391 
L 398.033518 301.290068 
L 398.326263 300.386744 
L 400.37548 301.593547 
L 400.668225 302.006367 
L 400.960971 301.851999 
L 401.546461 302.17452 
L 402.131952 301.396685 
L 402.424697 300.454219 
L 402.717442 301.040569 
L 403.010188 301.313449 
L 403.302933 299.890325 
L 404.473914 300.195613 
L 404.76666 300.132407 
L 405.059405 298.216566 
L 405.35215 298.65391 
L 405.937641 299.199917 
L 406.523131 300.178667 
L 406.815877 300.341818 
L 407.108622 299.81531 
L 407.694113 299.038652 
L 408.279603 299.665186 
L 408.865094 300.412576 
L 409.157839 300.539184 
L 409.450584 300.877768 
L 410.621566 300.99753 
L 410.914311 300.464205 
L 411.207056 300.744283 
L 411.499802 300.193498 
L 411.792547 300.012013 
L 411.792547 300.012013 
" clip-path="url(#pa7f7093a95)" style="fill: none; stroke: #00bfbf; stroke-width: 2; stroke-linecap: square"/>
   </g>
   <g id="patch_3">
    <path d="M 57.6 307.584 
L 57.6 41.472 
" style="fill: none; stroke: #000000; stroke-width: 0.8; stroke-linejoin: miter; stroke-linecap: square"/>
   </g>
   <g id="patch_4">
    <path d="M 414.72 307.584 
L 414.72 41.472 
" style="fill: none; stroke: #000000; stroke-width: 0.8; stroke-linejoin: miter; stroke-linecap: square"/>
   </g>
   <g id="patch_5">
    <path d="M 57.6 307.584 
L 414.72 307.584 
" style="fill: none; stroke: #000000; stroke-width: 0.8; stroke-linejoin: miter; stroke-linecap: square"/>
   </g>
   <g id="patch_6">
    <path d="M 57.6 41.472 
L 414.72 41.472 
" style="fill: none; stroke: #000000; stroke-width: 0.8; stroke-linejoin: miter; stroke-linecap: square"/>
   </g>
   <g id="text_18">
    <!-- Loss (Critic) -->
    <g transform="translate(194.870937 35.472) scale(0.14 -0.14)">
     <defs>
      <path id="DejaVuSans-4c" d="M 628 4666 
L 1259 4666 
L 1259 531 
L 3531 531 
L 3531 0 
L 628 0 
L 628 4666 
z
" transform="scale(0.015625)"/>
      <path id="DejaVuSans-6f" d="M 1959 3097 
Q 1497 3097 1228 2736 
Q 959 2375 959 1747 
Q 959 1119 1226 758 
Q 1494 397 1959 397 
Q 2419 397 2687 759 
Q 2956 1122 2956 1747 
Q 2956 2369 2687 2733 
Q 2419 3097 1959 3097 
z
M 1959 3584 
Q 2709 3584 3137 3096 
Q 3566 2609 3566 1747 
Q 3566 888 3137 398 
Q 2709 -91 1959 -91 
Q 1206 -91 779 398 
Q 353 888 353 1747 
Q 353 2609 779 3096 
Q 1206 3584 1959 3584 
z
" transform="scale(0.015625)"/>
      <path id="DejaVuSans-20" transform="scale(0.015625)"/>
      <path id="DejaVuSans-28" d="M 1984 4856 
Q 1566 4138 1362 3434 
Q 1159 2731 1159 2009 
Q 1159 1288 1364 580 
Q 1569 -128 1984 -844 
L 1484 -844 
Q 1016 -109 783 600 
Q 550 1309 550 2009 
Q 550 2706 781 3412 
Q 1013 4119 1484 4856 
L 1984 4856 
z
" transform="scale(0.015625)"/>
      <path id="DejaVuSans-43" d="M 4122 4306 
L 4122 3641 
Q 3803 3938 3442 4084 
Q 3081 4231 2675 4231 
Q 1875 4231 1450 3742 
Q 1025 3253 1025 2328 
Q 1025 1406 1450 917 
Q 1875 428 2675 428 
Q 3081 428 3442 575 
Q 3803 722 4122 1019 
L 4122 359 
Q 3791 134 3420 21 
Q 3050 -91 2638 -91 
Q 1578 -91 968 557 
Q 359 1206 359 2328 
Q 359 3453 968 4101 
Q 1578 4750 2638 4750 
Q 3056 4750 3426 4639 
Q 3797 4528 4122 4306 
z
" transform="scale(0.015625)"/>
      <path id="DejaVuSans-72" d="M 2631 2963 
Q 2534 3019 2420 3045 
Q 2306 3072 2169 3072 
Q 1681 3072 1420 2755 
Q 1159 2438 1159 1844 
L 1159 0 
L 581 0 
L 581 3500 
L 1159 3500 
L 1159 2956 
Q 1341 3275 1631 3429 
Q 1922 3584 2338 3584 
Q 2397 3584 2469 3576 
Q 2541 3569 2628 3553 
L 2631 2963 
z
" transform="scale(0.015625)"/>
      <path id="DejaVuSans-69" d="M 603 3500 
L 1178 3500 
L 1178 0 
L 603 0 
L 603 3500 
z
M 603 4863 
L 1178 4863 
L 1178 4134 
L 603 4134 
L 603 4863 
z
" transform="scale(0.015625)"/>
      <path id="DejaVuSans-63" d="M 3122 3366 
L 3122 2828 
Q 2878 2963 2633 3030 
Q 2388 3097 2138 3097 
Q 1578 3097 1268 2742 
Q 959 2388 959 1747 
Q 959 1106 1268 751 
Q 1578 397 2138 397 
Q 2388 397 2633 464 
Q 2878 531 3122 666 
L 3122 134 
Q 2881 22 2623 -34 
Q 2366 -91 2075 -91 
Q 1284 -91 818 406 
Q 353 903 353 1747 
Q 353 2603 823 3093 
Q 1294 3584 2113 3584 
Q 2378 3584 2631 3529 
Q 2884 3475 3122 3366 
z
" transform="scale(0.015625)"/>
      <path id="DejaVuSans-29" d="M 513 4856 
L 1013 4856 
Q 1481 4119 1714 3412 
Q 1947 2706 1947 2009 
Q 1947 1309 1714 600 
Q 1481 -109 1013 -844 
L 513 -844 
Q 928 -128 1133 580 
Q 1338 1288 1338 2009 
Q 1338 2731 1133 3434 
Q 928 4138 513 4856 
z
" transform="scale(0.015625)"/>
     </defs>
     <use xlink:href="#DejaVuSans-4c"/>
     <use xlink:href="#DejaVuSans-6f" x="53.962891"/>
     <use xlink:href="#DejaVuSans-73" x="115.144531"/>
     <use xlink:href="#DejaVuSans-73" x="167.244141"/>
     <use xlink:href="#DejaVuSans-20" x="219.34375"/>
     <use xlink:href="#DejaVuSans-28" x="251.130859"/>
     <use xlink:href="#DejaVuSans-43" x="290.144531"/>
     <use xlink:href="#DejaVuSans-72" x="359.96875"/>
     <use xlink:href="#DejaVuSans-69" x="401.082031"/>
     <use xlink:href="#DejaVuSans-74" x="428.865234"/>
     <use xlink:href="#DejaVuSans-69" x="468.074219"/>
     <use xlink:href="#DejaVuSans-63" x="495.857422"/>
     <use xlink:href="#DejaVuSans-29" x="550.837891"/>
    </g>
   </g>
  </g>
 </g>
 <defs>
  <clipPath id="pa7f7093a95">
   <rect x="57.6" y="41.472" width="357.12" height="266.112"/>
  </clipPath>
 </defs>
</svg>
