<?xml version="1.0" encoding="utf-8" standalone="no"?>
<!DOCTYPE svg PUBLIC "-//W3C//DTD SVG 1.1//EN"
  "http://www.w3.org/Graphics/SVG/1.1/DTD/svg11.dtd">
<svg xmlns:xlink="http://www.w3.org/1999/xlink" width="460.8pt" height="345.6pt" viewBox="0 0 460.8 345.6" xmlns="http://www.w3.org/2000/svg" version="1.1">
 <metadata>
  <rdf:RDF xmlns:dc="http://purl.org/dc/elements/1.1/" xmlns:cc="http://creativecommons.org/ns#" xmlns:rdf="http://www.w3.org/1999/02/22-rdf-syntax-ns#">
   <cc:Work>
    <dc:type rdf:resource="http://purl.org/dc/dcmitype/StillImage"/>
    <dc:date>2024-08-24T13:34:52.330308</dc:date>
    <dc:format>image/svg+xml</dc:format>
    <dc:creator>
     <cc:Agent>
      <dc:title>Matplotlib v3.9.1, https://matplotlib.org/</dc:title>
     </cc:Agent>
    </dc:creator>
   </cc:Work>
  </rdf:RDF>
 </metadata>
 <defs>
  <style type="text/css">*{stroke-linejoin: round; stroke-linecap: butt}</style>
 </defs>
 <g id="figure_1">
  <g id="patch_1">
   <path d="M 0 345.6 
L 460.8 345.6 
L 460.8 0 
L 0 0 
z
" style="fill: #ffffff"/>
  </g>
  <g id="axes_1">
   <g id="patch_2">
    <path d="M 57.6 307.584 
L 414.72 307.584 
L 414.72 41.472 
L 57.6 41.472 
z
" style="fill: #ffffff"/>
   </g>
   <g id="PolyCollection_1">
    <defs>
     <path id="md45d66efab" d="M 60.790924 -304.128 
L 60.790924 -52.021895 
L 61.083669 -49.525671 
L 61.66916 -49.46177 
L 62.25465 -48.058874 
L 62.547396 -47.389497 
L 62.840141 -47.383528 
L 63.132886 -47.271464 
L 63.425632 -46.937237 
L 63.718377 -47.006581 
L 64.011122 -46.648973 
L 64.303868 -46.481036 
L 64.596613 -46.158805 
L 64.889358 -45.826009 
L 65.182103 -45.665517 
L 65.474849 -45.588607 
L 65.767594 -45.78358 
L 66.060339 -45.381518 
L 66.353085 -45.85508 
L 66.64583 -45.504716 
L 66.938575 -45.290193 
L 67.231321 -45.544468 
L 67.524066 -45.25654 
L 67.816811 -45.400704 
L 68.109557 -45.211906 
L 68.695047 -45.103997 
L 69.573283 -45.16601 
L 69.866028 -45.100694 
L 70.158774 -45.106972 
L 70.451519 -44.966173 
L 70.744264 -44.747084 
L 71.329755 -44.428084 
L 71.6225 -44.720619 
L 71.915246 -44.334658 
L 72.207991 -44.166788 
L 72.500736 -44.060796 
L 73.086227 -43.819227 
L 73.378972 -43.979599 
L 73.671717 -44.270953 
L 73.964463 -44.443509 
L 74.257208 -44.643718 
L 74.549953 -44.735796 
L 75.135444 -44.718214 
L 75.428189 -44.839633 
L 76.01368 -44.643514 
L 76.306425 -44.23197 
L 76.59917 -44.465595 
L 76.891916 -44.584903 
L 77.184661 -44.718148 
L 77.477406 -44.855668 
L 78.062897 -44.780083 
L 78.355642 -44.564902 
L 78.648388 -45.137668 
L 78.941133 -45.345755 
L 79.233878 -44.994289 
L 79.526623 -45.012922 
L 79.819369 -44.889476 
L 80.112114 -44.422463 
L 80.404859 -44.254883 
L 80.697605 -43.771382 
L 80.99035 -43.970406 
L 81.575841 -43.724997 
L 81.868586 -43.647069 
L 82.161331 -43.83892 
L 82.454077 -43.768273 
L 82.746822 -43.916594 
L 83.039567 -43.684897 
L 83.332312 -43.616548 
L 83.625058 -43.327514 
L 83.917803 -43.317194 
L 84.503294 -43.150666 
L 84.796039 -43.132223 
L 85.38153 -43.109547 
L 85.674275 -43.051576 
L 85.96702 -43.128622 
L 86.259766 -42.734627 
L 86.552511 -42.67384 
L 86.845256 -42.763898 
L 87.430747 -42.354407 
L 87.723492 -42.337107 
L 88.016237 -42.248443 
L 88.308983 -42.216819 
L 88.601728 -42.097397 
L 88.894473 -42.04435 
L 89.187219 -41.875095 
L 89.772709 -41.813712 
L 90.065455 -41.770532 
L 90.3582 -41.62258 
L 90.650945 -41.596312 
L 90.94369 -41.667593 
L 91.236436 -41.272467 
L 91.529181 -41.369265 
L 91.821926 -41.333382 
L 92.407417 -41.345485 
L 92.700162 -40.980479 
L 92.992908 -40.894958 
L 93.285653 -40.619995 
L 93.578398 -40.777219 
L 93.871144 -40.484475 
L 94.163889 -40.77463 
L 94.456634 -40.707721 
L 94.749379 -40.675523 
L 95.042125 -40.75037 
L 95.33487 -40.812378 
L 95.627615 -40.931401 
L 95.920361 -40.763747 
L 96.213106 -40.676252 
L 96.505851 -40.698461 
L 96.798597 -40.852859 
L 97.091342 -40.807737 
L 97.384087 -40.762127 
L 97.676833 -40.733066 
L 97.969578 -40.770629 
L 98.555068 -41.172889 
L 98.847814 -41.780086 
L 99.72605 -41.626051 
L 100.018795 -41.88228 
L 100.604286 -41.749573 
L 100.897031 -41.53228 
L 101.482522 -41.619426 
L 102.068012 -41.4347 
L 102.360757 -41.639152 
L 102.653503 -41.521788 
L 102.946248 -41.7613 
L 103.238993 -41.847549 
L 103.531739 -41.877662 
L 104.117229 -42.295944 
L 104.409975 -41.931674 
L 104.70272 -41.663113 
L 104.995465 -41.418254 
L 105.580956 -41.149174 
L 105.873701 -41.078927 
L 106.166446 -40.900402 
L 106.459192 -40.659953 
L 106.751937 -40.345285 
L 107.044682 -40.100278 
L 107.337428 -40.228678 
L 107.922918 -40.101411 
L 108.215664 -39.934083 
L 108.801154 -39.687241 
L 109.093899 -39.743308 
L 109.67939 -39.865442 
L 109.972135 -39.802134 
L 110.264881 -39.782098 
L 110.850371 -39.804101 
L 111.143117 -39.787975 
L 111.435862 -39.937803 
L 112.021353 -40.20076 
L 112.314098 -40.837493 
L 112.606843 -40.6928 
L 112.899588 -40.569895 
L 113.485079 -40.477523 
L 113.777824 -40.277819 
L 114.07057 -40.054001 
L 114.363315 -39.874278 
L 114.65606 -39.948074 
L 114.948806 -40.083808 
L 115.241551 -40.155622 
L 115.534296 -40.164134 
L 115.827042 -40.297371 
L 116.412532 -40.293416 
L 116.705277 -40.248995 
L 117.583513 -40.088539 
L 118.754495 -39.85728 
L 119.04724 -39.999829 
L 119.632731 -40.119674 
L 119.925476 -39.803564 
L 120.218221 -39.566941 
L 120.803712 -39.350833 
L 121.096457 -39.513857 
L 121.389202 -39.65947 
L 121.681948 -39.391573 
L 121.974693 -39.566654 
L 122.852929 -39.35251 
L 123.145674 -39.262537 
L 123.43842 -39.137623 
L 123.731165 -39.162417 
L 124.02391 -39.415251 
L 124.316655 -39.420323 
L 124.609401 -39.359059 
L 124.902146 -39.246035 
L 125.194891 -39.205404 
L 125.487637 -39.330735 
L 125.780382 -39.311507 
L 126.073127 -39.441019 
L 126.658618 -39.301588 
L 126.951363 -39.593303 
L 127.244109 -39.451491 
L 127.829599 -39.264276 
L 128.122344 -39.285993 
L 128.41509 -38.965924 
L 128.707835 -39.30651 
L 129.00058 -39.309135 
L 129.293326 -39.221556 
L 129.586071 -39.373996 
L 130.171562 -39.505234 
L 130.464307 -39.480173 
L 131.049798 -39.463167 
L 131.342543 -39.68818 
L 131.635288 -39.298984 
L 132.220779 -39.285457 
L 132.513524 -39.370785 
L 132.806269 -39.222198 
L 133.099015 -39.232301 
L 133.39176 -39.436827 
L 133.684505 -39.455602 
L 133.977251 -39.379353 
L 134.269996 -39.245971 
L 134.562741 -39.527016 
L 134.855487 -39.392242 
L 135.148232 -39.510882 
L 135.440977 -39.413898 
L 135.733722 -39.219121 
L 136.319213 -39.40993 
L 136.611958 -39.108599 
L 136.904704 -39.007004 
L 137.197449 -39.019534 
L 137.78294 -38.860534 
L 138.075685 -39.000379 
L 138.36843 -39.245497 
L 138.953921 -39.329321 
L 139.539411 -39.353965 
L 140.124902 -39.588209 
L 140.417647 -39.97512 
L 140.710393 -39.952071 
L 141.003138 -40.38017 
L 141.295883 -40.377931 
L 141.881374 -40.142518 
L 142.174119 -40.300071 
L 142.466864 -40.313226 
L 142.75961 -40.100772 
L 143.052355 -40.095339 
L 143.3451 -39.967858 
L 143.637846 -39.888233 
L 143.930591 -40.122785 
L 145.394318 -40.072744 
L 145.979808 -39.846639 
L 146.272553 -39.794765 
L 146.858044 -40.023809 
L 147.150789 -40.076761 
L 147.443535 -39.938094 
L 147.73628 -39.714028 
L 148.029025 -39.635589 
L 148.321771 -39.586962 
L 148.614516 -39.757048 
L 148.907261 -39.892188 
L 149.200007 -39.682131 
L 149.492752 -39.742326 
L 149.785497 -39.699307 
L 150.663733 -39.640117 
L 150.956478 -39.606165 
L 151.249224 -39.644445 
L 151.541969 -39.458704 
L 151.834714 -39.810597 
L 152.420205 -39.547765 
L 152.71295 -39.474264 
L 153.005696 -39.445778 
L 153.298441 -39.399479 
L 153.591186 -39.556624 
L 153.883931 -39.839217 
L 154.176677 -39.88913 
L 154.469422 -39.802838 
L 154.762167 -39.913438 
L 155.054913 -39.714137 
L 155.347658 -39.605585 
L 155.640403 -40.071882 
L 155.933149 -40.127571 
L 156.225894 -39.714799 
L 156.518639 -39.417451 
L 156.811385 -39.666664 
L 157.396875 -39.887157 
L 157.68962 -39.800009 
L 158.275111 -39.467053 
L 158.860602 -39.423589 
L 159.446092 -39.381156 
L 159.738838 -39.349877 
L 160.031583 -39.153403 
L 160.324328 -39.107225 
L 160.617074 -39.280513 
L 160.909819 -39.078225 
L 161.202564 -39.017337 
L 161.495309 -38.920206 
L 161.788055 -39.206275 
L 162.0808 -39.838938 
L 162.373545 -39.857354 
L 162.666291 -39.714399 
L 162.959036 -39.552045 
L 163.251781 -39.503375 
L 163.544527 -39.300404 
L 163.837272 -39.311175 
L 164.130017 -39.452124 
L 164.422763 -39.277581 
L 164.715508 -39.394821 
L 165.008253 -39.242793 
L 165.300998 -39.041486 
L 165.593744 -39.069392 
L 165.886489 -39.081906 
L 166.179234 -39.201295 
L 166.47198 -39.467937 
L 166.764725 -39.240857 
L 167.05747 -39.173365 
L 167.350216 -38.982534 
L 167.642961 -39.272864 
L 167.935706 -39.205333 
L 168.228452 -39.136615 
L 168.521197 -38.949197 
L 169.106687 -38.828655 
L 169.399433 -39.137754 
L 169.984923 -39.317309 
L 170.277669 -39.573366 
L 170.570414 -39.630074 
L 170.863159 -39.601635 
L 171.155905 -39.658839 
L 171.44865 -39.710691 
L 171.741395 -39.685375 
L 172.326886 -39.421056 
L 172.619631 -39.502586 
L 173.205122 -39.297777 
L 173.497867 -39.417281 
L 173.790612 -39.310198 
L 174.083358 -39.429954 
L 174.376103 -39.511062 
L 174.961594 -39.495427 
L 175.254339 -39.510323 
L 175.547084 -39.486047 
L 175.839829 -39.507215 
L 176.42532 -39.305481 
L 176.718065 -39.265139 
L 177.010811 -39.288994 
L 177.303556 -39.205713 
L 177.596301 -39.179464 
L 178.181792 -39.485764 
L 178.474537 -39.52453 
L 178.767283 -39.623007 
L 179.352773 -39.490917 
L 179.645518 -39.420651 
L 180.231009 -39.469856 
L 180.8165 -39.458384 
L 181.109245 -39.494225 
L 181.40199 -39.548312 
L 181.987481 -39.410384 
L 182.280226 -39.093094 
L 182.572972 -39.073315 
L 183.158462 -39.220314 
L 183.451207 -39.06706 
L 183.743953 -39.019087 
L 184.036698 -38.763494 
L 184.329443 -38.901168 
L 184.622189 -38.816052 
L 184.914934 -38.954454 
L 185.500425 -38.920361 
L 186.085915 -38.781825 
L 186.671406 -38.688076 
L 187.256896 -38.804482 
L 188.135132 -38.894171 
L 188.427878 -39.182505 
L 189.013368 -39.202032 
L 189.306114 -39.38923 
L 189.598859 -39.315124 
L 189.891604 -39.032215 
L 190.18435 -39.055481 
L 190.76984 -39.054535 
L 191.062585 -38.900716 
L 191.355331 -39.206758 
L 191.648076 -39.067805 
L 191.940821 -39.132055 
L 192.233567 -39.303527 
L 192.526312 -39.673119 
L 192.819057 -39.842505 
L 193.111803 -39.758157 
L 193.404548 -39.744823 
L 193.697293 -39.835725 
L 193.990039 -39.677102 
L 194.575529 -39.658476 
L 194.868274 -39.810451 
L 195.16102 -39.635918 
L 195.453765 -39.760415 
L 195.74651 -39.523941 
L 196.039256 -39.783395 
L 196.332001 -39.658459 
L 196.624746 -39.594085 
L 196.917492 -39.427045 
L 197.210237 -39.681225 
L 197.502982 -39.632437 
L 197.795728 -39.533167 
L 198.088473 -39.35438 
L 198.381218 -39.333273 
L 198.673963 -39.587039 
L 198.966709 -39.411555 
L 199.259454 -39.789141 
L 199.552199 -39.859026 
L 199.844945 -39.731725 
L 200.430435 -39.409105 
L 200.723181 -39.26508 
L 201.894162 -39.406029 
L 202.186907 -39.528522 
L 202.479652 -39.508027 
L 202.772398 -39.747468 
L 203.065143 -39.615948 
L 203.357888 -39.762249 
L 203.650634 -39.441118 
L 203.943379 -39.101004 
L 204.52887 -39.187694 
L 204.821615 -39.065294 
L 205.11436 -39.178263 
L 205.992596 -39.359635 
L 206.285341 -39.350435 
L 206.870832 -39.357065 
L 207.749068 -39.445787 
L 208.041813 -39.559466 
L 208.334559 -39.619438 
L 208.627304 -39.571249 
L 208.920049 -39.521512 
L 209.212794 -39.620393 
L 209.50554 -39.651251 
L 209.798285 -39.581955 
L 210.09103 -39.53933 
L 210.383776 -39.337194 
L 210.676521 -39.430524 
L 211.262012 -39.26406 
L 211.554757 -39.257072 
L 211.847502 -39.287453 
L 212.140248 -39.146623 
L 212.432993 -38.969562 
L 212.725738 -38.977964 
L 213.018483 -39.135877 
L 213.603974 -38.889291 
L 213.896719 -38.875613 
L 214.189465 -39.174963 
L 214.48221 -39.067074 
L 216.238682 -38.883501 
L 216.824172 -38.90177 
L 217.116918 -38.99679 
L 217.409663 -38.798428 
L 217.702408 -38.855211 
L 217.995154 -38.738761 
L 218.287899 -38.945003 
L 218.580644 -38.764385 
L 218.87339 -38.931753 
L 219.166135 -38.991444 
L 219.45888 -39.232712 
L 219.751626 -39.22845 
L 220.044371 -39.328008 
L 220.337116 -39.49283 
L 220.629861 -39.576019 
L 220.922607 -39.613528 
L 221.215352 -39.621649 
L 221.508097 -39.423672 
L 222.093588 -39.282102 
L 222.386333 -39.201371 
L 222.679079 -39.229817 
L 223.264569 -39.239942 
L 223.557315 -39.190392 
L 223.85006 -39.252129 
L 224.142805 -39.314903 
L 224.43555 -39.220308 
L 224.728296 -38.967991 
L 225.021041 -38.832753 
L 225.313786 -38.973791 
L 225.606532 -38.942139 
L 225.899277 -39.1123 
L 226.192022 -39.145631 
L 226.484768 -39.47618 
L 226.777513 -39.508885 
L 227.070258 -39.639739 
L 227.363004 -39.719835 
L 227.655749 -39.619694 
L 227.948494 -39.437734 
L 228.241239 -39.58121 
L 228.533985 -39.438071 
L 228.82673 -39.138295 
L 229.412221 -39.241545 
L 229.704966 -39.318606 
L 229.997711 -39.560394 
L 230.290457 -39.387891 
L 230.583202 -39.421859 
L 230.875947 -39.472969 
L 231.168693 -39.392099 
L 231.461438 -39.332732 
L 231.754183 -39.59425 
L 232.046928 -39.561353 
L 232.339674 -39.596149 
L 232.632419 -39.453611 
L 232.925164 -39.520893 
L 233.21791 -39.343577 
L 233.8034 -39.382266 
L 234.096146 -39.453541 
L 234.388891 -39.682233 
L 234.974382 -39.614028 
L 235.267127 -39.415934 
L 235.559872 -39.665774 
L 235.852617 -39.705522 
L 236.145363 -39.900268 
L 236.438108 -39.81292 
L 236.730853 -39.619227 
L 237.023599 -39.480129 
L 237.316344 -39.617499 
L 237.609089 -39.766389 
L 237.901835 -39.607739 
L 238.19458 -39.501619 
L 238.78007 -39.501042 
L 239.365561 -39.251586 
L 239.658306 -39.596794 
L 239.951052 -39.644594 
L 240.829288 -39.671267 
L 242.000269 -39.5093 
L 242.293014 -39.39246 
L 242.585759 -39.0343 
L 242.878505 -39.257008 
L 243.17125 -39.218493 
L 243.463995 -39.490305 
L 243.756741 -39.531152 
L 244.049486 -39.396429 
L 244.927722 -39.398727 
L 245.220467 -39.417813 
L 245.513213 -39.541918 
L 245.805958 -39.769289 
L 246.391448 -39.537151 
L 246.684194 -39.417427 
L 246.976939 -39.165351 
L 247.56243 -39.18397 
L 247.855175 -39.311847 
L 248.14792 -39.252016 
L 248.440666 -39.475763 
L 248.733411 -39.39277 
L 249.026156 -39.291046 
L 249.318902 -39.051362 
L 249.611647 -39.132139 
L 249.904392 -39.02721 
L 250.197137 -39.098178 
L 250.489883 -38.935219 
L 250.782628 -38.839667 
L 251.075373 -38.873473 
L 251.368119 -38.88323 
L 251.660864 -38.882108 
L 251.953609 -38.68354 
L 252.831845 -38.840183 
L 253.124591 -38.581842 
L 253.417336 -38.883823 
L 253.710081 -38.82228 
L 254.002826 -38.843226 
L 254.295572 -38.948201 
L 254.588317 -39.22911 
L 254.881062 -39.070355 
L 255.173808 -39.385394 
L 255.466553 -39.295016 
L 255.759298 -39.439361 
L 256.052044 -39.429734 
L 256.344789 -39.574899 
L 256.637534 -39.489628 
L 257.223025 -39.43859 
L 257.51577 -39.571231 
L 257.808515 -39.523404 
L 258.101261 -39.628573 
L 258.394006 -39.301078 
L 258.686751 -39.234372 
L 258.979497 -39.204304 
L 259.272242 -39.510006 
L 259.564987 -39.29603 
L 259.857733 -39.298305 
L 260.150478 -39.026669 
L 260.443223 -39.144698 
L 260.735969 -39.245736 
L 261.028714 -39.260295 
L 261.321459 -39.183411 
L 261.614204 -39.007849 
L 261.90695 -38.918729 
L 262.199695 -38.813868 
L 262.49244 -39.000512 
L 262.785186 -38.879233 
L 263.370676 -38.815446 
L 263.956167 -38.933792 
L 264.541658 -38.981765 
L 265.419893 -38.7802 
L 265.712639 -38.684499 
L 266.005384 -38.776634 
L 266.298129 -38.653122 
L 266.590875 -38.540847 
L 266.88362 -38.333869 
L 267.176365 -38.483944 
L 267.469111 -38.584209 
L 267.761856 -38.528665 
L 268.054601 -38.589473 
L 268.347347 -38.768804 
L 268.640092 -38.958542 
L 268.932837 -38.798446 
L 269.811073 -38.902012 
L 270.103818 -38.895691 
L 270.396564 -38.686734 
L 270.982054 -38.75912 
L 271.2748 -38.593917 
L 271.567545 -38.813408 
L 271.86029 -38.704369 
L 272.153035 -38.625583 
L 272.445781 -38.725846 
L 272.738526 -38.637351 
L 273.031271 -38.642109 
L 273.324017 -38.597831 
L 273.909507 -38.74309 
L 274.202253 -38.752153 
L 274.494998 -38.642056 
L 274.787743 -38.679684 
L 275.080489 -38.704094 
L 275.665979 -38.739865 
L 275.958724 -39.003362 
L 276.25147 -38.939709 
L 276.544215 -39.005926 
L 276.83696 -39.097147 
L 277.129706 -39.011119 
L 277.422451 -39.300792 
L 277.715196 -39.07877 
L 278.007942 -39.488025 
L 278.300687 -39.371534 
L 278.593432 -39.433377 
L 278.886178 -39.520013 
L 279.178923 -39.624305 
L 279.471668 -39.62759 
L 280.057159 -39.426823 
L 280.349904 -39.428139 
L 280.642649 -39.402738 
L 280.935395 -39.298889 
L 281.22814 -39.141635 
L 281.520885 -39.138742 
L 281.813631 -39.012534 
L 282.106376 -39.064133 
L 282.984612 -38.94398 
L 283.277357 -38.917993 
L 283.862848 -39.003288 
L 284.155593 -38.938281 
L 284.448338 -38.894663 
L 284.741084 -39.261739 
L 285.033829 -39.292263 
L 285.326574 -39.275969 
L 285.912065 -39.23039 
L 286.20481 -39.119716 
L 286.497556 -39.105268 
L 286.790301 -39.069725 
L 287.083046 -38.900622 
L 287.375791 -38.956292 
L 287.668537 -38.846458 
L 287.961282 -38.84124 
L 288.546773 -38.61548 
L 288.839518 -38.831067 
L 289.132263 -39.023916 
L 289.425009 -39.046185 
L 289.717754 -39.052667 
L 290.010499 -39.033233 
L 290.303245 -38.93347 
L 290.59599 -38.826589 
L 290.888735 -38.670335 
L 291.18148 -38.671088 
L 291.474226 -38.794032 
L 291.766971 -38.959192 
L 292.059716 -39.097715 
L 292.352462 -39.059659 
L 292.645207 -38.75843 
L 292.937952 -38.763789 
L 293.230698 -38.928445 
L 293.523443 -38.925701 
L 293.816188 -38.874564 
L 294.108934 -38.889116 
L 294.401679 -38.835504 
L 294.694424 -38.879983 
L 294.987169 -38.82 
L 295.57266 -39.10404 
L 295.865405 -38.945972 
L 296.158151 -38.958474 
L 296.450896 -39.175759 
L 296.743641 -39.100695 
L 297.036387 -39.093048 
L 297.329132 -39.201517 
L 297.621877 -39.191279 
L 298.207368 -39.058542 
L 298.500113 -38.988928 
L 298.792858 -38.991998 
L 299.085604 -38.992576 
L 299.378349 -39.192252 
L 299.671094 -39.239732 
L 300.256585 -39.375214 
L 300.54933 -39.596327 
L 300.842076 -39.563787 
L 301.134821 -39.237117 
L 301.720312 -39.400206 
L 302.013057 -39.357146 
L 302.305802 -39.230344 
L 302.598547 -39.209504 
L 303.184038 -39.307242 
L 303.476783 -39.332581 
L 303.769529 -39.164851 
L 304.062274 -38.993294 
L 304.355019 -39.163248 
L 304.647765 -39.413067 
L 304.94051 -39.309188 
L 305.233255 -39.327402 
L 305.526 -39.244769 
L 305.818746 -39.388622 
L 306.111491 -39.349971 
L 306.404236 -39.241129 
L 306.696982 -39.249473 
L 307.282472 -39.387922 
L 307.575218 -39.404942 
L 308.160708 -39.279516 
L 308.453454 -39.623457 
L 308.746199 -39.500954 
L 309.038944 -39.396192 
L 309.624435 -39.350196 
L 309.91718 -39.478042 
L 310.209925 -39.6555 
L 310.502671 -39.636724 
L 311.088161 -39.56079 
L 311.673652 -39.321588 
L 312.259143 -39.327239 
L 312.551888 -39.257647 
L 312.844633 -39.396534 
L 313.137378 -39.282307 
L 313.430124 -39.18557 
L 314.601105 -39.030692 
L 314.89385 -39.041721 
L 315.186596 -39.059359 
L 315.479341 -39.040532 
L 315.772086 -38.795321 
L 316.357577 -38.839044 
L 316.650322 -39.239651 
L 316.943067 -39.096728 
L 317.235813 -39.149318 
L 317.528558 -39.020126 
L 317.821303 -39.155179 
L 318.114049 -39.234908 
L 318.406794 -39.202692 
L 318.699539 -39.100486 
L 318.992285 -38.869083 
L 319.577775 -38.784983 
L 319.870521 -38.921415 
L 320.163266 -39.035473 
L 320.456011 -39.011405 
L 320.748756 -38.713435 
L 321.041502 -38.648597 
L 321.334247 -38.6084 
L 321.626992 -38.615709 
L 321.919738 -38.631421 
L 322.212483 -38.571921 
L 322.505228 -38.681923 
L 322.797974 -38.630812 
L 323.090719 -38.600419 
L 323.383464 -38.573552 
L 323.67621 -38.481922 
L 323.968955 -38.599476 
L 324.2617 -38.389903 
L 324.847191 -38.472298 
L 325.139936 -38.691885 
L 325.432681 -38.600031 
L 325.725427 -38.737887 
L 326.018172 -38.698041 
L 326.310917 -38.822803 
L 326.603663 -38.805528 
L 326.896408 -38.700178 
L 327.189153 -38.951494 
L 327.481899 -38.946075 
L 327.774644 -39.14266 
L 328.067389 -39.056782 
L 328.65288 -39.35499 
L 328.945625 -39.145532 
L 329.23837 -39.007117 
L 329.531116 -39.029383 
L 330.116606 -38.919231 
L 330.409352 -38.857707 
L 330.702097 -38.742474 
L 330.994842 -38.677486 
L 331.287588 -38.900484 
L 331.580333 -38.600831 
L 332.165823 -38.483774 
L 332.458569 -38.578104 
L 333.044059 -38.457312 
L 333.336805 -38.736138 
L 333.62955 -38.728188 
L 333.922295 -38.675751 
L 334.215041 -38.859564 
L 334.507786 -38.917416 
L 335.093276 -38.962979 
L 335.678767 -38.939044 
L 336.264258 -39.050379 
L 336.557003 -38.878761 
L 336.849748 -38.861455 
L 337.142494 -38.857736 
L 337.435239 -38.74143 
L 338.02073 -38.656688 
L 338.313475 -38.797239 
L 338.60622 -38.936322 
L 339.191711 -39.069745 
L 339.484456 -39.096906 
L 339.777201 -39.186419 
L 340.069947 -39.541825 
L 340.655437 -39.584672 
L 340.948183 -39.54419 
L 341.240928 -39.422446 
L 341.533673 -39.254849 
L 341.826419 -39.405296 
L 342.119164 -39.352178 
L 342.411909 -39.13965 
L 342.704654 -39.101352 
L 342.9974 -38.963781 
L 343.290145 -39.042909 
L 343.58289 -38.976487 
L 343.875636 -38.951227 
L 344.461126 -38.749671 
L 345.046617 -38.817094 
L 345.339362 -38.985689 
L 345.924853 -38.887441 
L 346.217598 -38.915823 
L 346.510343 -38.808917 
L 346.803089 -38.888695 
L 347.095834 -39.111307 
L 347.388579 -39.059656 
L 347.681325 -39.101516 
L 347.97407 -39.132539 
L 348.266815 -39.14952 
L 348.559561 -39.000432 
L 348.852306 -38.930727 
L 349.145051 -39.146978 
L 349.730542 -39.14639 
L 350.023287 -39.134846 
L 350.316032 -39.156074 
L 350.608778 -38.935407 
L 350.901523 -39.044653 
L 351.194268 -38.947358 
L 351.779759 -39.002452 
L 352.36525 -39.003941 
L 352.657995 -38.962119 
L 353.243486 -38.8945 
L 353.536231 -39.104073 
L 353.828976 -38.924579 
L 354.121721 -38.822491 
L 354.414467 -38.727005 
L 354.707212 -38.797929 
L 354.999957 -38.841519 
L 355.585448 -38.929293 
L 355.878193 -38.764507 
L 356.170939 -38.845376 
L 356.756429 -39.132044 
L 357.049175 -39.206764 
L 357.34192 -39.17516 
L 357.634665 -39.324139 
L 358.220156 -39.183783 
L 358.512901 -39.267503 
L 358.805646 -39.082818 
L 359.098392 -38.982097 
L 359.683882 -39.049163 
L 359.976628 -38.875435 
L 360.269373 -39.200958 
L 360.562118 -39.058719 
L 360.854864 -39.537168 
L 361.147609 -39.404423 
L 361.440354 -39.594026 
L 362.025845 -39.487413 
L 362.31859 -39.539729 
L 362.611335 -39.508883 
L 362.904081 -39.423404 
L 363.196826 -39.476483 
L 363.489571 -39.279015 
L 363.782317 -39.154956 
L 364.075062 -39.472484 
L 364.367807 -39.321067 
L 364.660553 -39.362114 
L 364.953298 -39.208638 
L 365.246043 -39.057673 
L 365.538788 -39.032544 
L 365.831534 -38.986984 
L 366.124279 -39.343266 
L 366.417024 -39.351357 
L 366.70977 -39.30207 
L 367.29526 -39.376364 
L 367.588006 -39.25094 
L 367.880751 -39.363421 
L 368.173496 -39.161996 
L 368.466241 -38.966851 
L 368.758987 -38.922311 
L 369.344477 -39.155052 
L 369.637223 -39.107686 
L 369.929968 -39.174555 
L 370.222713 -38.988397 
L 370.515459 -39.054971 
L 371.68644 -39.070921 
L 371.979185 -39.129948 
L 372.27193 -39.122081 
L 372.564676 -39.231374 
L 372.857421 -39.422134 
L 373.150166 -39.269207 
L 373.442912 -39.209963 
L 373.735657 -39.091533 
L 374.028402 -38.963638 
L 374.321148 -38.855387 
L 374.613893 -38.773245 
L 374.906638 -38.649921 
L 375.199384 -38.71601 
L 375.492129 -38.632661 
L 375.784874 -38.779045 
L 376.077619 -38.747778 
L 376.370365 -38.653318 
L 376.66311 -38.642355 
L 376.955855 -38.684947 
L 377.248601 -38.771947 
L 377.541346 -38.848729 
L 377.834091 -38.821429 
L 378.126837 -38.843337 
L 378.419582 -38.898692 
L 378.712327 -38.736977 
L 379.297818 -38.706082 
L 379.883308 -38.712043 
L 380.176054 -38.921811 
L 380.468799 -38.801526 
L 380.761544 -38.701137 
L 381.05429 -38.769366 
L 381.63978 -38.956088 
L 382.225271 -39.069148 
L 382.518016 -39.093114 
L 382.810762 -38.946665 
L 383.103507 -38.935591 
L 383.688997 -39.180604 
L 383.981743 -39.190099 
L 384.274488 -39.142666 
L 384.567233 -39.087514 
L 384.859979 -39.05824 
L 385.445469 -38.847615 
L 385.738215 -38.788491 
L 386.03096 -38.6283 
L 386.323705 -38.91889 
L 386.909196 -38.959244 
L 387.201941 -38.993897 
L 387.494686 -38.866784 
L 388.372922 -38.620875 
L 388.665668 -38.638507 
L 388.958413 -38.432892 
L 389.251158 -38.617904 
L 389.543904 -38.886815 
L 389.836649 -38.952928 
L 390.129394 -38.85515 
L 390.42214 -38.850798 
L 390.714885 -38.775409 
L 391.00763 -38.676847 
L 391.300375 -38.883117 
L 391.593121 -38.721417 
L 391.885866 -38.799728 
L 392.471357 -38.837546 
L 392.764102 -38.754082 
L 393.056847 -38.730942 
L 393.642338 -38.858898 
L 393.935083 -38.946994 
L 394.227829 -38.905322 
L 394.520574 -38.743394 
L 394.813319 -38.7004 
L 395.106064 -38.640273 
L 395.39881 -38.616294 
L 395.691555 -38.92331 
L 395.9843 -38.813691 
L 396.277046 -38.76094 
L 396.569791 -38.702399 
L 397.155282 -38.58195 
L 397.448027 -38.617927 
L 397.740772 -38.573913 
L 398.033518 -38.590346 
L 398.326263 -38.734186 
L 398.619008 -38.780637 
L 398.911753 -38.797962 
L 399.204499 -38.551268 
L 399.497244 -38.463101 
L 399.789989 -38.431263 
L 400.082735 -38.41255 
L 400.37548 -38.413311 
L 400.668225 -38.419108 
L 400.960971 -38.572914 
L 401.546461 -38.585378 
L 401.839206 -38.732348 
L 402.131952 -38.75616 
L 402.424697 -38.918616 
L 402.717442 -38.820167 
L 403.010188 -38.745729 
L 403.302933 -38.814722 
L 404.473914 -38.808348 
L 404.76666 -38.908949 
L 405.059405 -39.234954 
L 405.35215 -39.117501 
L 405.937641 -39.051467 
L 406.230386 -39.018145 
L 406.523131 -39.011853 
L 406.815877 -38.974724 
L 407.108622 -39.043559 
L 407.694113 -39.289943 
L 407.986858 -39.307657 
L 408.279603 -39.229839 
L 408.572349 -39.140133 
L 408.865094 -38.950642 
L 409.157839 -38.63613 
L 409.450584 -38.594539 
L 409.74333 -38.672956 
L 410.036075 -38.530423 
L 410.32882 -38.62476 
L 410.621566 -38.700986 
L 410.914311 -38.88125 
L 411.207056 -38.826828 
L 411.499802 -38.865943 
L 411.792547 -38.841582 
L 411.792547 -53.702057 
L 411.792547 -53.702057 
L 411.499802 -54.164926 
L 411.207056 -53.421724 
L 410.914311 -54.455741 
L 410.621566 -51.030739 
L 410.32882 -49.582448 
L 410.036075 -47.79003 
L 409.74333 -50.498156 
L 409.450584 -49.00825 
L 409.157839 -49.798477 
L 408.865094 -55.77419 
L 408.572349 -59.37453 
L 408.279603 -61.078943 
L 407.986858 -62.55748 
L 407.694113 -62.220922 
L 407.108622 -57.539619 
L 406.815877 -56.231765 
L 406.523131 -56.937212 
L 406.230386 -57.056751 
L 405.937641 -57.689874 
L 405.35215 -58.944518 
L 405.059405 -61.176135 
L 404.76666 -54.98203 
L 404.473914 -53.070614 
L 403.302933 -53.191724 
L 403.010188 -51.880846 
L 402.717442 -53.29518 
L 402.424697 -55.1657 
L 402.131952 -52.079045 
L 401.839206 -51.626613 
L 401.546461 -48.83419 
L 400.960971 -48.597373 
L 400.668225 -45.675048 
L 400.37548 -45.564912 
L 400.082735 -45.550445 
L 399.789989 -45.906002 
L 399.497244 -46.510923 
L 399.204499 -48.186093 
L 398.911753 -52.87328 
L 398.619008 -52.544094 
L 398.326263 -51.661529 
L 398.033518 -48.928579 
L 397.740772 -48.616339 
L 397.448027 -49.452619 
L 397.155282 -48.769046 
L 396.569791 -51.05759 
L 396.277046 -52.169863 
L 395.9843 -53.172138 
L 395.691555 -55.254888 
L 395.39881 -49.421586 
L 395.106064 -49.877191 
L 394.813319 -51.019602 
L 394.520574 -51.836494 
L 394.227829 -54.91311 
L 393.935083 -55.704887 
L 393.642338 -54.031068 
L 393.056847 -51.599902 
L 392.764102 -52.039564 
L 392.471357 -53.625368 
L 391.885866 -52.906824 
L 391.593121 -51.418914 
L 391.300375 -54.491232 
L 391.00763 -50.5721 
L 390.714885 -52.44478 
L 390.42214 -53.877162 
L 390.129394 -53.959856 
L 389.836649 -55.817628 
L 389.543904 -54.561479 
L 389.251158 -49.452174 
L 388.958413 -45.936941 
L 388.665668 -49.843638 
L 388.372922 -49.50862 
L 387.494686 -54.180902 
L 387.201941 -56.596043 
L 386.909196 -55.937633 
L 386.323705 -55.170914 
L 386.03096 -49.649699 
L 385.738215 -52.693327 
L 385.445469 -53.816694 
L 384.859979 -57.818564 
L 384.567233 -58.374762 
L 384.274488 -59.422646 
L 383.981743 -60.323882 
L 383.688997 -60.143471 
L 383.103507 -55.488232 
L 382.810762 -55.698633 
L 382.518016 -58.481166 
L 382.225271 -58.02581 
L 381.63978 -55.877671 
L 381.05429 -52.329949 
L 380.761544 -51.033596 
L 380.468799 -52.941003 
L 380.176054 -55.226408 
L 379.883308 -51.240819 
L 379.297818 -51.127559 
L 378.712327 -51.714567 
L 378.419582 -54.787139 
L 378.126837 -53.735397 
L 377.834091 -53.319157 
L 377.541346 -53.837856 
L 377.248601 -52.378987 
L 376.955855 -50.725985 
L 376.66311 -49.91675 
L 376.370365 -50.12504 
L 376.077619 -51.919776 
L 375.784874 -52.513863 
L 375.492129 -49.732561 
L 375.199384 -51.316181 
L 374.906638 -50.060506 
L 374.613893 -52.403647 
L 374.321148 -53.96436 
L 374.028402 -56.021118 
L 373.735657 -58.451132 
L 373.442912 -60.701288 
L 373.150166 -61.82693 
L 372.857421 -64.732546 
L 372.564676 -61.108113 
L 372.27193 -59.031543 
L 371.979185 -59.181016 
L 371.68644 -58.05949 
L 370.515459 -57.756454 
L 370.222713 -56.491549 
L 369.929968 -60.028547 
L 369.637223 -58.758029 
L 369.344477 -59.657986 
L 368.758987 -55.235918 
L 368.466241 -56.082166 
L 368.173496 -59.789927 
L 367.880751 -63.617 
L 367.588006 -61.479858 
L 367.29526 -63.862923 
L 366.70977 -62.451336 
L 366.417024 -63.387783 
L 366.124279 -63.234062 
L 365.831534 -56.464687 
L 365.538788 -57.330343 
L 365.246043 -57.807782 
L 364.953298 -60.676114 
L 364.660553 -63.592173 
L 364.367807 -62.812275 
L 364.075062 -65.689194 
L 363.782317 -59.656173 
L 363.489571 -62.013289 
L 363.196826 -65.765176 
L 362.904081 -64.75668 
L 362.611335 -66.38078 
L 362.31859 -66.966842 
L 362.025845 -65.972854 
L 361.440354 -67.998485 
L 361.147609 -64.396029 
L 360.854864 -66.918188 
L 360.562118 -57.827653 
L 360.269373 -60.530211 
L 359.976628 -54.345267 
L 359.683882 -57.64609 
L 359.098392 -56.371837 
L 358.805646 -58.28555 
L 358.512901 -61.794558 
L 358.220156 -60.203882 
L 357.634665 -62.870642 
L 357.34192 -60.040045 
L 357.049175 -60.640513 
L 356.756429 -59.220828 
L 356.170939 -53.774143 
L 355.878193 -52.237628 
L 355.585448 -55.368568 
L 354.999957 -53.700861 
L 354.707212 -52.87266 
L 354.414467 -51.525093 
L 354.121721 -53.339334 
L 353.828976 -55.279002 
L 353.536231 -58.689396 
L 353.243486 -54.707507 
L 352.657995 -55.992262 
L 352.36525 -56.786873 
L 351.779759 -56.758581 
L 351.194268 -55.711802 
L 350.901523 -57.560398 
L 350.608778 -55.484736 
L 350.316032 -59.677403 
L 350.023287 -59.274074 
L 349.730542 -59.493419 
L 349.145051 -59.504581 
L 348.852306 -55.39581 
L 348.559561 -56.720213 
L 348.266815 -59.552884 
L 347.97407 -59.230236 
L 347.681325 -58.640799 
L 347.388579 -57.845473 
L 347.095834 -58.826838 
L 346.803089 -54.597197 
L 346.510343 -53.081422 
L 346.217598 -55.112641 
L 345.924853 -54.573381 
L 345.339362 -56.440095 
L 345.046617 -53.236786 
L 344.461126 -51.955745 
L 343.875636 -55.785318 
L 343.58289 -56.265252 
L 343.290145 -57.527267 
L 342.9974 -56.02384 
L 342.704654 -58.637683 
L 342.411909 -59.365354 
L 342.119164 -63.403381 
L 341.826419 -64.412626 
L 341.533673 -61.554122 
L 341.240928 -64.738482 
L 340.948183 -67.051617 
L 340.655437 -67.820761 
L 340.069947 -67.006671 
L 339.777201 -60.253967 
L 339.484456 -58.553208 
L 339.191711 -58.037163 
L 338.60622 -55.502116 
L 338.313475 -52.859549 
L 338.02073 -50.189079 
L 337.435239 -51.79917 
L 337.142494 -54.008993 
L 336.849748 -54.079648 
L 336.557003 -54.408453 
L 336.264258 -57.669196 
L 335.678767 -55.553832 
L 335.093276 -56.008604 
L 334.507786 -55.142911 
L 334.215041 -54.043708 
L 333.922295 -50.551268 
L 333.62955 -51.547567 
L 333.336805 -51.698616 
L 333.044059 -46.400936 
L 332.458569 -48.695978 
L 332.165823 -46.903713 
L 331.580333 -49.12778 
L 331.287588 -54.821189 
L 330.994842 -50.58424 
L 330.702097 -51.819002 
L 330.409352 -54.008436 
L 330.116606 -55.177389 
L 329.531116 -57.270284 
L 329.23837 -56.847217 
L 328.945625 -59.477106 
L 328.65288 -63.456815 
L 328.067389 -57.790855 
L 327.774644 -59.422547 
L 327.481899 -55.687419 
L 327.189153 -55.790387 
L 326.896408 -51.015383 
L 326.603663 -53.01704 
L 326.310917 -53.345252 
L 326.018172 -50.974784 
L 325.725427 -51.731861 
L 325.432681 -49.112582 
L 325.139936 -50.857819 
L 324.847191 -46.685665 
L 324.2617 -45.12016 
L 323.968955 -49.102035 
L 323.67621 -46.868509 
L 323.383464 -48.609493 
L 323.090719 -49.119955 
L 322.797974 -49.697435 
L 322.505228 -50.668528 
L 322.212483 -48.578504 
L 321.919738 -49.709002 
L 321.626992 -49.410467 
L 321.334247 -49.271601 
L 321.041502 -50.03534 
L 320.748756 -51.267263 
L 320.456011 -56.928688 
L 320.163266 -57.385978 
L 319.870521 -55.218882 
L 319.577775 -52.626682 
L 318.992285 -54.224583 
L 318.699539 -58.621239 
L 318.406794 -60.563147 
L 318.114049 -61.175259 
L 317.821303 -59.660408 
L 317.528558 -57.094386 
L 317.235813 -59.549036 
L 316.943067 -58.549838 
L 316.650322 -61.265375 
L 316.357577 -53.65383 
L 315.772086 -52.823102 
L 315.479341 -57.48211 
L 315.186596 -57.839815 
L 314.89385 -57.504708 
L 314.601105 -57.295147 
L 313.430124 -60.237825 
L 313.137378 -62.075835 
L 312.844633 -64.246145 
L 312.551888 -61.607285 
L 312.259143 -62.929543 
L 311.673652 -62.822166 
L 311.088161 -67.367009 
L 310.502671 -68.809758 
L 310.209925 -69.166509 
L 309.91718 -65.794807 
L 309.624435 -63.365724 
L 309.038944 -64.239651 
L 308.746199 -66.230131 
L 308.453454 -68.557686 
L 308.160708 -62.022808 
L 307.575218 -64.405901 
L 307.282472 -64.082509 
L 306.696982 -61.451994 
L 306.404236 -61.293444 
L 306.111491 -63.361447 
L 305.818746 -64.095816 
L 305.526 -61.362612 
L 305.233255 -62.932645 
L 304.94051 -62.586566 
L 304.647765 -64.560274 
L 304.355019 -59.813706 
L 304.062274 -56.584587 
L 303.769529 -59.844177 
L 303.476783 -63.031045 
L 303.184038 -62.54959 
L 302.598547 -60.692567 
L 302.305802 -61.088536 
L 302.013057 -63.497777 
L 301.720312 -64.315905 
L 301.134821 -61.217217 
L 300.842076 -67.423951 
L 300.54933 -68.042206 
L 300.256585 -63.841057 
L 299.671094 -61.266903 
L 299.378349 -60.364792 
L 299.085604 -56.570941 
L 298.792858 -56.55996 
L 298.500113 -56.501637 
L 298.207368 -57.824291 
L 297.621877 -60.346294 
L 297.329132 -60.540826 
L 297.036387 -58.479908 
L 296.743641 -58.62521 
L 296.450896 -60.051415 
L 296.158151 -55.922997 
L 295.865405 -55.685474 
L 295.57266 -58.688757 
L 294.987169 -53.292 
L 294.694424 -54.431676 
L 294.401679 -53.586574 
L 294.108934 -54.605211 
L 293.816188 -54.328714 
L 293.523443 -55.300312 
L 293.230698 -55.352463 
L 292.937952 -52.223995 
L 292.645207 -52.122166 
L 292.352462 -57.84553 
L 292.059716 -58.568582 
L 291.766971 -55.936648 
L 291.474226 -52.798612 
L 291.18148 -50.462677 
L 290.888735 -50.448357 
L 290.59599 -53.417193 
L 290.303245 -55.447921 
L 290.010499 -57.343431 
L 289.717754 -57.712681 
L 289.425009 -57.589507 
L 289.132263 -57.166401 
L 288.839518 -53.502279 
L 288.546773 -49.406129 
L 287.961282 -53.695556 
L 287.668537 -53.794705 
L 287.375791 -55.881543 
L 287.083046 -54.823814 
L 286.790301 -58.036775 
L 286.497556 -58.712093 
L 286.20481 -58.986608 
L 285.912065 -61.089414 
L 285.326574 -61.955404 
L 285.033829 -62.264992 
L 284.741084 -61.685049 
L 284.448338 -54.710605 
L 284.155593 -55.539337 
L 283.862848 -56.774469 
L 283.277357 -55.153871 
L 282.984612 -55.647614 
L 282.106376 -57.930532 
L 281.813631 -56.950143 
L 281.520885 -59.348094 
L 281.22814 -59.403064 
L 280.935395 -62.3909 
L 280.642649 -64.364027 
L 280.349904 -64.84664 
L 280.057159 -64.821643 
L 279.471668 -68.636218 
L 279.178923 -68.573802 
L 278.886178 -66.592252 
L 278.593432 -64.94617 
L 278.300687 -63.771137 
L 278.007942 -65.984476 
L 277.715196 -58.208624 
L 277.422451 -62.427041 
L 277.129706 -56.923261 
L 276.83696 -58.557784 
L 276.544215 -56.824593 
L 276.25147 -55.566462 
L 275.958724 -56.775869 
L 275.665979 -51.769434 
L 275.080489 -51.08978 
L 274.787743 -50.625993 
L 274.494998 -49.911062 
L 274.202253 -52.002906 
L 273.909507 -51.830717 
L 273.324017 -49.070782 
L 273.031271 -49.912071 
L 272.738526 -49.821663 
L 272.445781 -51.503072 
L 272.153035 -49.598086 
L 271.86029 -51.095019 
L 271.567545 -53.166751 
L 271.2748 -48.99642 
L 270.982054 -52.135279 
L 270.396564 -50.759944 
L 270.103818 -54.730123 
L 269.811073 -54.850222 
L 268.932837 -52.882479 
L 268.640092 -55.924303 
L 268.347347 -52.319281 
L 268.054601 -48.911982 
L 267.761856 -47.756644 
L 267.469111 -48.811968 
L 267.176365 -46.906927 
L 266.88362 -44.055513 
L 266.590875 -47.988092 
L 266.298129 -50.121322 
L 266.005384 -52.468052 
L 265.712639 -50.717484 
L 265.419893 -52.535808 
L 264.541658 -56.365539 
L 263.956167 -55.454039 
L 263.370676 -53.205468 
L 262.785186 -54.417425 
L 262.49244 -56.721725 
L 262.199695 -53.175497 
L 261.90695 -55.167854 
L 261.614204 -56.861132 
L 261.321459 -60.196808 
L 261.028714 -61.657613 
L 260.735969 -61.380986 
L 260.443223 -59.461268 
L 260.150478 -57.218717 
L 259.857733 -62.379791 
L 259.564987 -62.33657 
L 259.272242 -66.402123 
L 258.979497 -60.593773 
L 258.686751 -61.165066 
L 258.394006 -62.43249 
L 258.101261 -68.654879 
L 257.808515 -66.656672 
L 257.51577 -67.565397 
L 257.223025 -65.045214 
L 256.637534 -66.014936 
L 256.344789 -67.635077 
L 256.052044 -64.876947 
L 255.759298 -65.059866 
L 255.466553 -62.317296 
L 255.173808 -64.034483 
L 254.881062 -58.048751 
L 254.588317 -61.065083 
L 254.295572 -55.727826 
L 254.002826 -53.733298 
L 253.710081 -53.335324 
L 253.417336 -54.504642 
L 253.124591 -48.766996 
L 252.831845 -53.675485 
L 251.953609 -50.699267 
L 251.660864 -54.472058 
L 251.368119 -54.493372 
L 251.075373 -54.307995 
L 250.782628 -53.665677 
L 250.489883 -55.481163 
L 250.197137 -58.57738 
L 249.904392 -57.228996 
L 249.611647 -59.222645 
L 249.318902 -57.687879 
L 249.026156 -62.241865 
L 248.733411 -64.17463 
L 248.440666 -65.751493 
L 248.14792 -61.50031 
L 247.855175 -62.637097 
L 247.56243 -60.207438 
L 246.976939 -59.853667 
L 246.684194 -64.643105 
L 246.391448 -66.917877 
L 245.805958 -71.3285 
L 245.513213 -67.008439 
L 245.220467 -64.650443 
L 244.927722 -64.287817 
L 244.049486 -64.244142 
L 243.756741 -66.803894 
L 243.463995 -66.027788 
L 243.17125 -60.863359 
L 242.878505 -61.59516 
L 242.585759 -57.363706 
L 242.293014 -64.168748 
L 242.000269 -66.388708 
L 240.829288 -69.46608 
L 239.951052 -68.959295 
L 239.658306 -68.051086 
L 239.365561 -61.492143 
L 238.78007 -66.231803 
L 238.19458 -66.242769 
L 237.901835 -68.259044 
L 237.609089 -71.273395 
L 237.316344 -68.444485 
L 237.023599 -65.834446 
L 236.730853 -68.477312 
L 236.438108 -72.157476 
L 236.145363 -73.817099 
L 235.852617 -70.116909 
L 235.559872 -69.361705 
L 235.267127 -64.614745 
L 234.974382 -68.378529 
L 234.388891 -69.674421 
L 234.096146 -65.329282 
L 233.8034 -63.975054 
L 233.21791 -63.239955 
L 232.925164 -66.608968 
L 232.632419 -65.330615 
L 232.339674 -68.03883 
L 232.046928 -67.377708 
L 231.754183 -68.002744 
L 231.461438 -63.0339 
L 231.168693 -64.16188 
L 230.875947 -65.698404 
L 230.583202 -64.727319 
L 230.290457 -64.081926 
L 229.997711 -67.359493 
L 229.704966 -62.765519 
L 229.412221 -61.301354 
L 228.82673 -59.339612 
L 228.533985 -65.035345 
L 228.241239 -67.754988 
L 227.948494 -65.028946 
L 227.655749 -68.48619 
L 227.363004 -70.388866 
L 227.070258 -68.86705 
L 226.777513 -66.380821 
L 226.484768 -65.759423 
L 226.192022 -59.478996 
L 225.899277 -58.845698 
L 225.606532 -55.612632 
L 225.313786 -56.214032 
L 225.021041 -53.534302 
L 224.728296 -56.103838 
L 224.43555 -60.897843 
L 224.142805 -62.695163 
L 223.85006 -61.502452 
L 223.557315 -60.329457 
L 223.264569 -61.270894 
L 222.679079 -61.078524 
L 222.386333 -60.538053 
L 222.093588 -62.07193 
L 221.508097 -64.761769 
L 221.215352 -68.523332 
L 220.922607 -68.369032 
L 220.629861 -67.656356 
L 220.337116 -66.07577 
L 220.044371 -62.944147 
L 219.751626 -61.052558 
L 219.45888 -61.133536 
L 219.166135 -56.549442 
L 218.87339 -55.415316 
L 218.580644 -52.235307 
L 218.287899 -55.667053 
L 217.995154 -51.748458 
L 217.702408 -53.961008 
L 217.409663 -52.88214 
L 217.116918 -56.651006 
L 216.824172 -54.845636 
L 216.238682 -54.498511 
L 214.48221 -57.986406 
L 214.189465 -60.036304 
L 213.896719 -54.348645 
L 213.603974 -54.608524 
L 213.018483 -59.293668 
L 212.725738 -56.293313 
L 212.432993 -56.133669 
L 212.140248 -59.497846 
L 211.847502 -62.173608 
L 211.554757 -61.596375 
L 211.262012 -61.729149 
L 210.676521 -64.891947 
L 210.383776 -63.118687 
L 210.09103 -66.959276 
L 209.798285 -67.769152 
L 209.50554 -69.085771 
L 209.212794 -68.499459 
L 208.920049 -66.620733 
L 208.627304 -67.565723 
L 208.334559 -68.481329 
L 208.041813 -67.341858 
L 207.749068 -65.18195 
L 206.870832 -63.496237 
L 206.285341 -63.370257 
L 205.992596 -63.545072 
L 205.11436 -60.098998 
L 204.821615 -57.952579 
L 204.52887 -60.278179 
L 203.943379 -58.631076 
L 203.650634 -65.093243 
L 203.357888 -71.194728 
L 203.065143 -68.415012 
L 202.772398 -70.9139 
L 202.479652 -66.36452 
L 202.186907 -66.753925 
L 201.894162 -64.426557 
L 200.723181 -61.748517 
L 200.430435 -64.484996 
L 199.844945 -70.614772 
L 199.552199 -73.033491 
L 199.259454 -71.705679 
L 198.966709 -64.531545 
L 198.673963 -67.865739 
L 198.381218 -63.044183 
L 198.088473 -63.44522 
L 197.795728 -66.842171 
L 197.502982 -68.728309 
L 197.210237 -69.655266 
L 196.917492 -64.825856 
L 196.624746 -67.999608 
L 196.332001 -69.222729 
L 196.039256 -71.596501 
L 195.74651 -66.666884 
L 195.453765 -71.159889 
L 195.16102 -68.794439 
L 194.868274 -72.110577 
L 194.575529 -69.223044 
L 193.990039 -69.576936 
L 193.697293 -72.590777 
L 193.404548 -70.863645 
L 193.111803 -71.116974 
L 192.819057 -72.719593 
L 192.526312 -69.501262 
L 192.233567 -62.479006 
L 191.940821 -59.221048 
L 191.648076 -58.000288 
L 191.355331 -60.640396 
L 191.062585 -54.825613 
L 190.76984 -57.748168 
L 190.18435 -57.766143 
L 189.891604 -57.324088 
L 189.598859 -62.699359 
L 189.306114 -64.107374 
L 189.013368 -60.550608 
L 188.427878 -60.1796 
L 188.135132 -54.701257 
L 187.256896 -52.997151 
L 186.671406 -50.785442 
L 186.085915 -52.566681 
L 185.500425 -55.19885 
L 184.914934 -55.846628 
L 184.622189 -53.21699 
L 184.329443 -54.834188 
L 184.036698 -52.218382 
L 183.743953 -57.074651 
L 183.451207 -57.986134 
L 183.158462 -60.897969 
L 182.572972 -58.104981 
L 182.280226 -58.480778 
L 181.987481 -64.509301 
L 181.40199 -67.129933 
L 181.109245 -66.102275 
L 180.8165 -65.421303 
L 180.231009 -65.63927 
L 179.645518 -64.70437 
L 179.352773 -66.039426 
L 178.767283 -68.549133 
L 178.474537 -66.678075 
L 178.181792 -65.941525 
L 177.596301 -60.121822 
L 177.303556 -60.620554 
L 177.010811 -62.202895 
L 176.718065 -61.749647 
L 176.42532 -62.516137 
L 175.839829 -66.349083 
L 175.547084 -65.946887 
L 175.254339 -66.408133 
L 174.961594 -66.125111 
L 174.376103 -66.422179 
L 174.083358 -64.881133 
L 173.790612 -62.605756 
L 173.497867 -64.640334 
L 173.205122 -62.369762 
L 172.619631 -66.261137 
L 172.326886 -64.71207 
L 171.741395 -69.734121 
L 171.44865 -70.215135 
L 171.155905 -69.229936 
L 170.863159 -68.143066 
L 170.570414 -68.683398 
L 170.277669 -67.605949 
L 169.984923 -62.740873 
L 169.399433 -59.329333 
L 169.106687 -53.456449 
L 168.521197 -55.746742 
L 168.228452 -59.307689 
L 167.935706 -60.613323 
L 167.642961 -61.896415 
L 167.350216 -56.380154 
L 167.05747 -60.005939 
L 166.764725 -61.28828 
L 166.47198 -65.602804 
L 166.179234 -60.5366 
L 165.886489 -58.268212 
L 165.593744 -58.030445 
L 165.300998 -57.500225 
L 165.008253 -61.325074 
L 164.715508 -64.213598 
L 164.422763 -61.986042 
L 164.130017 -65.302355 
L 163.837272 -62.624317 
L 163.544527 -62.41968 
L 163.251781 -66.276122 
L 162.959036 -67.200857 
L 162.666291 -70.285578 
L 162.373545 -73.001724 
L 162.0808 -72.651816 
L 161.788055 -60.631226 
L 161.495309 -55.195914 
L 161.202564 -57.041403 
L 160.909819 -58.198283 
L 160.617074 -62.041742 
L 160.324328 -58.749277 
L 160.031583 -59.62666 
L 159.738838 -63.359672 
L 159.446092 -63.953956 
L 158.860602 -64.760185 
L 158.275111 -65.586011 
L 157.68962 -71.912167 
L 157.396875 -73.56798 
L 156.811385 -69.378622 
L 156.518639 -64.643564 
L 156.225894 -70.293179 
L 155.933149 -78.135841 
L 155.640403 -77.077758 
L 155.347658 -68.218124 
L 155.054913 -70.2806 
L 154.762167 -74.067326 
L 154.469422 -71.965914 
L 154.176677 -73.605462 
L 153.883931 -72.657129 
L 153.591186 -67.287852 
L 153.298441 -64.302097 
L 153.005696 -65.181781 
L 152.71295 -65.723011 
L 152.420205 -67.119528 
L 151.834714 -72.113341 
L 151.541969 -65.427382 
L 151.249224 -68.956464 
L 150.956478 -68.229137 
L 150.663733 -68.874227 
L 149.785497 -69.998837 
L 149.492752 -70.816185 
L 149.200007 -69.672495 
L 148.907261 -73.663564 
L 148.614516 -71.09591 
L 148.321771 -67.864275 
L 148.029025 -68.788198 
L 147.73628 -70.278534 
L 147.443535 -74.535793 
L 147.150789 -77.170455 
L 146.858044 -76.164371 
L 146.272553 -71.812544 
L 145.979808 -72.798134 
L 145.394318 -77.094134 
L 143.930591 -78.044924 
L 143.637846 -73.588429 
L 143.3451 -75.101294 
L 143.052355 -77.523447 
L 142.75961 -77.626677 
L 142.466864 -81.663285 
L 142.174119 -81.413347 
L 141.881374 -78.419837 
L 141.295883 -82.892685 
L 141.003138 -82.935221 
L 140.710393 -74.801349 
L 140.417647 -75.239279 
L 140.124902 -67.887974 
L 139.539411 -63.437327 
L 138.953921 -62.969106 
L 138.36843 -61.376445 
L 138.075685 -56.719204 
L 137.78294 -54.062137 
L 137.197449 -57.083143 
L 136.904704 -56.845078 
L 136.611958 -58.775383 
L 136.319213 -64.500663 
L 135.733722 -60.875303 
L 135.440977 -64.576064 
L 135.148232 -66.418766 
L 134.855487 -64.164599 
L 134.562741 -66.725299 
L 134.269996 -61.385457 
L 133.977251 -63.919711 
L 133.684505 -65.368429 
L 133.39176 -65.01171 
L 133.099015 -61.125716 
L 132.806269 -60.933771 
L 132.513524 -63.756917 
L 132.220779 -62.135691 
L 131.635288 -62.392705 
L 131.342543 -69.787424 
L 131.049798 -65.512178 
L 130.464307 -65.835284 
L 130.171562 -66.311441 
L 129.586071 -63.817924 
L 129.293326 -60.921573 
L 129.00058 -62.585567 
L 128.707835 -62.535699 
L 128.41509 -56.064551 
L 128.122344 -62.145869 
L 127.829599 -61.733248 
L 127.244109 -65.290329 
L 126.951363 -67.984764 
L 126.658618 -62.442169 
L 126.073127 -65.091354 
L 125.780382 -62.630632 
L 125.487637 -62.995973 
L 125.194891 -60.614676 
L 124.902146 -61.386668 
L 124.609401 -63.53412 
L 124.316655 -64.698138 
L 124.02391 -64.601776 
L 123.731165 -59.797923 
L 123.43842 -59.326829 
L 123.145674 -61.700195 
L 122.852929 -63.409698 
L 121.974693 -67.478421 
L 121.681948 -64.151895 
L 121.389202 -69.241928 
L 121.096457 -66.475291 
L 120.803712 -63.377825 
L 120.218221 -67.483877 
L 119.925476 -71.979711 
L 119.632731 -77.985814 
L 119.04724 -75.708746 
L 118.754495 -73.000328 
L 117.583513 -77.39425 
L 116.705277 -80.442906 
L 116.412532 -81.286908 
L 115.827042 -81.362053 
L 115.534296 -78.830551 
L 115.241551 -78.668813 
L 114.948806 -77.304353 
L 114.65606 -74.72541 
L 114.363315 -73.323275 
L 114.07057 -76.738025 
L 113.777824 -80.99056 
L 113.485079 -84.784936 
L 112.899588 -86.540011 
L 112.606843 -88.875201 
L 112.314098 -91.624373 
L 112.021353 -79.526433 
L 111.435862 -74.530262 
L 111.143117 -71.683516 
L 110.850371 -71.989917 
L 110.264881 -71.571861 
L 109.972135 -71.95254 
L 109.67939 -73.155391 
L 109.093899 -70.83485 
L 108.801154 -69.769575 
L 108.215664 -74.459585 
L 107.922918 -77.638804 
L 107.337428 -80.056877 
L 107.044682 -77.617289 
L 106.751937 -82.272424 
L 106.459192 -88.251107 
L 106.166446 -92.819637 
L 105.873701 -96.211606 
L 105.580956 -97.546309 
L 104.995465 -102.65883 
L 104.70272 -107.311147 
L 104.409975 -112.413797 
L 104.117229 -119.334939 
L 103.531739 -111.387579 
L 103.238993 -110.815438 
L 102.946248 -109.176701 
L 102.653503 -104.625968 
L 102.360757 -106.855885 
L 102.068012 -102.971296 
L 101.482522 -106.481097 
L 100.897031 -104.825319 
L 100.604286 -108.953894 
L 100.018795 -111.475316 
L 99.72605 -106.606966 
L 98.847814 -109.533641 
L 98.555068 -97.996889 
L 97.969578 -90.353958 
L 97.676833 -89.640259 
L 97.384087 -90.192404 
L 97.091342 -91.058999 
L 96.798597 -91.916324 
L 96.505851 -88.982754 
L 96.213106 -88.560785 
L 95.920361 -90.223198 
L 95.627615 -93.408611 
L 95.33487 -91.14718 
L 95.042125 -89.96903 
L 94.749379 -88.54694 
L 94.456634 -89.158704 
L 94.163889 -90.429974 
L 93.871144 -84.917026 
L 93.578398 -90.47916 
L 93.285653 -87.491913 
L 92.992908 -92.716204 
L 92.700162 -94.341093 
L 92.407417 -101.276216 
L 91.821926 -101.046267 
L 91.529181 -101.728031 
L 91.236436 -99.888879 
L 90.94369 -107.396258 
L 90.650945 -106.041925 
L 90.3582 -106.541028 
L 90.065455 -109.352102 
L 89.772709 -110.172535 
L 89.187219 -111.338804 
L 88.894473 -114.554644 
L 88.601728 -115.562536 
L 88.308983 -117.831554 
L 88.016237 -118.432414 
L 87.723492 -120.117032 
L 87.430747 -120.445741 
L 86.845256 -128.226062 
L 86.552511 -126.514967 
L 86.259766 -127.669913 
L 85.96702 -135.155815 
L 85.674275 -133.691946 
L 85.38153 -134.793393 
L 84.796039 -135.224239 
L 84.503294 -135.574649 
L 83.917803 -138.738681 
L 83.625058 -138.934774 
L 83.332312 -144.426413 
L 83.039567 -145.725035 
L 82.746822 -150.127289 
L 82.454077 -147.309187 
L 82.161331 -148.651474 
L 81.868586 -145.00632 
L 81.575841 -146.486939 
L 80.99035 -151.149705 
L 80.697605 -147.368249 
L 80.404859 -156.554782 
L 80.112114 -159.738792 
L 79.819369 -168.612045 
L 79.526623 -170.957524 
L 79.233878 -170.60349 
L 78.941133 -177.281336 
L 78.648388 -173.327688 
L 78.355642 -162.445138 
L 78.062897 -166.533572 
L 77.477406 -167.969699 
L 77.184661 -165.356807 
L 76.891916 -162.825152 
L 76.59917 -160.558302 
L 76.306425 -156.119429 
L 76.01368 -163.938767 
L 75.428189 -167.665031 
L 75.135444 -165.358064 
L 74.549953 -165.692127 
L 74.257208 -163.942637 
L 73.964463 -160.138666 
L 73.671717 -156.8601 
L 73.378972 -151.324383 
L 73.086227 -148.277309 
L 72.500736 -152.867125 
L 72.207991 -154.880971 
L 71.915246 -158.070507 
L 71.6225 -165.403758 
L 71.329755 -159.845596 
L 70.744264 -165.906595 
L 70.451519 -170.069293 
L 70.158774 -172.744459 
L 69.866028 -172.625179 
L 69.573283 -173.866183 
L 68.695047 -172.687939 
L 68.109557 -174.738221 
L 67.816811 -178.325382 
L 67.524066 -175.58626 
L 67.231321 -181.056888 
L 66.938575 -176.225664 
L 66.64583 -180.3016 
L 66.353085 -186.958517 
L 66.060339 -177.960837 
L 65.767594 -185.600021 
L 65.474849 -181.895526 
L 65.182103 -183.356814 
L 64.889358 -186.406172 
L 64.596613 -192.729296 
L 64.303868 -198.851681 
L 64.011122 -202.042478 
L 63.718377 -208.837032 
L 63.425632 -207.519497 
L 63.132886 -213.869808 
L 62.840141 -215.999037 
L 62.547396 -216.112445 
L 62.25465 -228.830612 
L 61.66916 -255.485628 
L 61.083669 -256.699749 
L 60.790924 -304.128 
z
" style="stroke: #00bfbf; stroke-opacity: 0.15"/>
    </defs>
    <g clip-path="url(#pbc5c9942d4)">
     <use xlink:href="#md45d66efab" x="0" y="345.6" style="fill: #00bfbf; fill-opacity: 0.15; stroke: #00bfbf; stroke-opacity: 0.15"/>
    </g>
   </g>
   <g id="matplotlib.axis_1">
    <g id="xtick_1">
     <g id="line2d_1">
      <path d="M 60.527453 307.584 
L 60.527453 41.472 
" clip-path="url(#pbc5c9942d4)" style="fill: none; stroke: #808080; stroke-opacity: 0.2; stroke-width: 0.5; stroke-linecap: square"/>
     </g>
     <g id="line2d_2">
      <defs>
       <path id="m1bb3afe61d" d="M 0 0 
L 0 3.5 
" style="stroke: #000000; stroke-width: 0.8"/>
      </defs>
      <g>
       <use xlink:href="#m1bb3afe61d" x="60.527453" y="307.584" style="stroke: #000000; stroke-width: 0.8"/>
      </g>
     </g>
     <g id="text_1">
      <!-- 0 -->
      <g transform="translate(57.346203 322.182437) scale(0.1 -0.1)">
       <defs>
        <path id="DejaVuSans-30" d="M 2034 4250 
Q 1547 4250 1301 3770 
Q 1056 3291 1056 2328 
Q 1056 1369 1301 889 
Q 1547 409 2034 409 
Q 2525 409 2770 889 
Q 3016 1369 3016 2328 
Q 3016 3291 2770 3770 
Q 2525 4250 2034 4250 
z
M 2034 4750 
Q 2819 4750 3233 4129 
Q 3647 3509 3647 2328 
Q 3647 1150 3233 529 
Q 2819 -91 2034 -91 
Q 1250 -91 836 529 
Q 422 1150 422 2328 
Q 422 3509 836 4129 
Q 1250 4750 2034 4750 
z
" transform="scale(0.015625)"/>
       </defs>
       <use xlink:href="#DejaVuSans-30"/>
      </g>
     </g>
    </g>
    <g id="xtick_2">
     <g id="line2d_3">
      <path d="M 119.076514 307.584 
L 119.076514 41.472 
" clip-path="url(#pbc5c9942d4)" style="fill: none; stroke: #808080; stroke-opacity: 0.2; stroke-width: 0.5; stroke-linecap: square"/>
     </g>
     <g id="line2d_4">
      <g>
       <use xlink:href="#m1bb3afe61d" x="119.076514" y="307.584" style="stroke: #000000; stroke-width: 0.8"/>
      </g>
     </g>
     <g id="text_2">
      <!-- 2000 -->
      <g transform="translate(106.351514 322.182437) scale(0.1 -0.1)">
       <defs>
        <path id="DejaVuSans-32" d="M 1228 531 
L 3431 531 
L 3431 0 
L 469 0 
L 469 531 
Q 828 903 1448 1529 
Q 2069 2156 2228 2338 
Q 2531 2678 2651 2914 
Q 2772 3150 2772 3378 
Q 2772 3750 2511 3984 
Q 2250 4219 1831 4219 
Q 1534 4219 1204 4116 
Q 875 4013 500 3803 
L 500 4441 
Q 881 4594 1212 4672 
Q 1544 4750 1819 4750 
Q 2544 4750 2975 4387 
Q 3406 4025 3406 3419 
Q 3406 3131 3298 2873 
Q 3191 2616 2906 2266 
Q 2828 2175 2409 1742 
Q 1991 1309 1228 531 
z
" transform="scale(0.015625)"/>
       </defs>
       <use xlink:href="#DejaVuSans-32"/>
       <use xlink:href="#DejaVuSans-30" x="63.623047"/>
       <use xlink:href="#DejaVuSans-30" x="127.246094"/>
       <use xlink:href="#DejaVuSans-30" x="190.869141"/>
      </g>
     </g>
    </g>
    <g id="xtick_3">
     <g id="line2d_5">
      <path d="M 177.625576 307.584 
L 177.625576 41.472 
" clip-path="url(#pbc5c9942d4)" style="fill: none; stroke: #808080; stroke-opacity: 0.2; stroke-width: 0.5; stroke-linecap: square"/>
     </g>
     <g id="line2d_6">
      <g>
       <use xlink:href="#m1bb3afe61d" x="177.625576" y="307.584" style="stroke: #000000; stroke-width: 0.8"/>
      </g>
     </g>
     <g id="text_3">
      <!-- 4000 -->
      <g transform="translate(164.900576 322.182437) scale(0.1 -0.1)">
       <defs>
        <path id="DejaVuSans-34" d="M 2419 4116 
L 825 1625 
L 2419 1625 
L 2419 4116 
z
M 2253 4666 
L 3047 4666 
L 3047 1625 
L 3713 1625 
L 3713 1100 
L 3047 1100 
L 3047 0 
L 2419 0 
L 2419 1100 
L 313 1100 
L 313 1709 
L 2253 4666 
z
" transform="scale(0.015625)"/>
       </defs>
       <use xlink:href="#DejaVuSans-34"/>
       <use xlink:href="#DejaVuSans-30" x="63.623047"/>
       <use xlink:href="#DejaVuSans-30" x="127.246094"/>
       <use xlink:href="#DejaVuSans-30" x="190.869141"/>
      </g>
     </g>
    </g>
    <g id="xtick_4">
     <g id="line2d_7">
      <path d="M 236.174637 307.584 
L 236.174637 41.472 
" clip-path="url(#pbc5c9942d4)" style="fill: none; stroke: #808080; stroke-opacity: 0.2; stroke-width: 0.5; stroke-linecap: square"/>
     </g>
     <g id="line2d_8">
      <g>
       <use xlink:href="#m1bb3afe61d" x="236.174637" y="307.584" style="stroke: #000000; stroke-width: 0.8"/>
      </g>
     </g>
     <g id="text_4">
      <!-- 6000 -->
      <g transform="translate(223.449637 322.182437) scale(0.1 -0.1)">
       <defs>
        <path id="DejaVuSans-36" d="M 2113 2584 
Q 1688 2584 1439 2293 
Q 1191 2003 1191 1497 
Q 1191 994 1439 701 
Q 1688 409 2113 409 
Q 2538 409 2786 701 
Q 3034 994 3034 1497 
Q 3034 2003 2786 2293 
Q 2538 2584 2113 2584 
z
M 3366 4563 
L 3366 3988 
Q 3128 4100 2886 4159 
Q 2644 4219 2406 4219 
Q 1781 4219 1451 3797 
Q 1122 3375 1075 2522 
Q 1259 2794 1537 2939 
Q 1816 3084 2150 3084 
Q 2853 3084 3261 2657 
Q 3669 2231 3669 1497 
Q 3669 778 3244 343 
Q 2819 -91 2113 -91 
Q 1303 -91 875 529 
Q 447 1150 447 2328 
Q 447 3434 972 4092 
Q 1497 4750 2381 4750 
Q 2619 4750 2861 4703 
Q 3103 4656 3366 4563 
z
" transform="scale(0.015625)"/>
       </defs>
       <use xlink:href="#DejaVuSans-36"/>
       <use xlink:href="#DejaVuSans-30" x="63.623047"/>
       <use xlink:href="#DejaVuSans-30" x="127.246094"/>
       <use xlink:href="#DejaVuSans-30" x="190.869141"/>
      </g>
     </g>
    </g>
    <g id="xtick_5">
     <g id="line2d_9">
      <path d="M 294.723699 307.584 
L 294.723699 41.472 
" clip-path="url(#pbc5c9942d4)" style="fill: none; stroke: #808080; stroke-opacity: 0.2; stroke-width: 0.5; stroke-linecap: square"/>
     </g>
     <g id="line2d_10">
      <g>
       <use xlink:href="#m1bb3afe61d" x="294.723699" y="307.584" style="stroke: #000000; stroke-width: 0.8"/>
      </g>
     </g>
     <g id="text_5">
      <!-- 8000 -->
      <g transform="translate(281.998699 322.182437) scale(0.1 -0.1)">
       <defs>
        <path id="DejaVuSans-38" d="M 2034 2216 
Q 1584 2216 1326 1975 
Q 1069 1734 1069 1313 
Q 1069 891 1326 650 
Q 1584 409 2034 409 
Q 2484 409 2743 651 
Q 3003 894 3003 1313 
Q 3003 1734 2745 1975 
Q 2488 2216 2034 2216 
z
M 1403 2484 
Q 997 2584 770 2862 
Q 544 3141 544 3541 
Q 544 4100 942 4425 
Q 1341 4750 2034 4750 
Q 2731 4750 3128 4425 
Q 3525 4100 3525 3541 
Q 3525 3141 3298 2862 
Q 3072 2584 2669 2484 
Q 3125 2378 3379 2068 
Q 3634 1759 3634 1313 
Q 3634 634 3220 271 
Q 2806 -91 2034 -91 
Q 1263 -91 848 271 
Q 434 634 434 1313 
Q 434 1759 690 2068 
Q 947 2378 1403 2484 
z
M 1172 3481 
Q 1172 3119 1398 2916 
Q 1625 2713 2034 2713 
Q 2441 2713 2670 2916 
Q 2900 3119 2900 3481 
Q 2900 3844 2670 4047 
Q 2441 4250 2034 4250 
Q 1625 4250 1398 4047 
Q 1172 3844 1172 3481 
z
" transform="scale(0.015625)"/>
       </defs>
       <use xlink:href="#DejaVuSans-38"/>
       <use xlink:href="#DejaVuSans-30" x="63.623047"/>
       <use xlink:href="#DejaVuSans-30" x="127.246094"/>
       <use xlink:href="#DejaVuSans-30" x="190.869141"/>
      </g>
     </g>
    </g>
    <g id="xtick_6">
     <g id="line2d_11">
      <path d="M 353.27276 307.584 
L 353.27276 41.472 
" clip-path="url(#pbc5c9942d4)" style="fill: none; stroke: #808080; stroke-opacity: 0.2; stroke-width: 0.5; stroke-linecap: square"/>
     </g>
     <g id="line2d_12">
      <g>
       <use xlink:href="#m1bb3afe61d" x="353.27276" y="307.584" style="stroke: #000000; stroke-width: 0.8"/>
      </g>
     </g>
     <g id="text_6">
      <!-- 10000 -->
      <g transform="translate(337.36651 322.182437) scale(0.1 -0.1)">
       <defs>
        <path id="DejaVuSans-31" d="M 794 531 
L 1825 531 
L 1825 4091 
L 703 3866 
L 703 4441 
L 1819 4666 
L 2450 4666 
L 2450 531 
L 3481 531 
L 3481 0 
L 794 0 
L 794 531 
z
" transform="scale(0.015625)"/>
       </defs>
       <use xlink:href="#DejaVuSans-31"/>
       <use xlink:href="#DejaVuSans-30" x="63.623047"/>
       <use xlink:href="#DejaVuSans-30" x="127.246094"/>
       <use xlink:href="#DejaVuSans-30" x="190.869141"/>
       <use xlink:href="#DejaVuSans-30" x="254.492188"/>
      </g>
     </g>
    </g>
    <g id="xtick_7">
     <g id="line2d_13">
      <path d="M 411.821821 307.584 
L 411.821821 41.472 
" clip-path="url(#pbc5c9942d4)" style="fill: none; stroke: #808080; stroke-opacity: 0.2; stroke-width: 0.5; stroke-linecap: square"/>
     </g>
     <g id="line2d_14">
      <g>
       <use xlink:href="#m1bb3afe61d" x="411.821821" y="307.584" style="stroke: #000000; stroke-width: 0.8"/>
      </g>
     </g>
     <g id="text_7">
      <!-- 12000 -->
      <g transform="translate(395.915571 322.182437) scale(0.1 -0.1)">
       <use xlink:href="#DejaVuSans-31"/>
       <use xlink:href="#DejaVuSans-32" x="63.623047"/>
       <use xlink:href="#DejaVuSans-30" x="127.246094"/>
       <use xlink:href="#DejaVuSans-30" x="190.869141"/>
       <use xlink:href="#DejaVuSans-30" x="254.492188"/>
      </g>
     </g>
    </g>
    <g id="text_8">
     <!-- Steps -->
     <g transform="translate(219.372187 337.38025) scale(0.12 -0.12)">
      <defs>
       <path id="DejaVuSans-53" d="M 3425 4513 
L 3425 3897 
Q 3066 4069 2747 4153 
Q 2428 4238 2131 4238 
Q 1616 4238 1336 4038 
Q 1056 3838 1056 3469 
Q 1056 3159 1242 3001 
Q 1428 2844 1947 2747 
L 2328 2669 
Q 3034 2534 3370 2195 
Q 3706 1856 3706 1288 
Q 3706 609 3251 259 
Q 2797 -91 1919 -91 
Q 1588 -91 1214 -16 
Q 841 59 441 206 
L 441 856 
Q 825 641 1194 531 
Q 1563 422 1919 422 
Q 2459 422 2753 634 
Q 3047 847 3047 1241 
Q 3047 1584 2836 1778 
Q 2625 1972 2144 2069 
L 1759 2144 
Q 1053 2284 737 2584 
Q 422 2884 422 3419 
Q 422 4038 858 4394 
Q 1294 4750 2059 4750 
Q 2388 4750 2728 4690 
Q 3069 4631 3425 4513 
z
" transform="scale(0.015625)"/>
       <path id="DejaVuSans-74" d="M 1172 4494 
L 1172 3500 
L 2356 3500 
L 2356 3053 
L 1172 3053 
L 1172 1153 
Q 1172 725 1289 603 
Q 1406 481 1766 481 
L 2356 481 
L 2356 0 
L 1766 0 
Q 1100 0 847 248 
Q 594 497 594 1153 
L 594 3053 
L 172 3053 
L 172 3500 
L 594 3500 
L 594 4494 
L 1172 4494 
z
" transform="scale(0.015625)"/>
       <path id="DejaVuSans-65" d="M 3597 1894 
L 3597 1613 
L 953 1613 
Q 991 1019 1311 708 
Q 1631 397 2203 397 
Q 2534 397 2845 478 
Q 3156 559 3463 722 
L 3463 178 
Q 3153 47 2828 -22 
Q 2503 -91 2169 -91 
Q 1331 -91 842 396 
Q 353 884 353 1716 
Q 353 2575 817 3079 
Q 1281 3584 2069 3584 
Q 2775 3584 3186 3129 
Q 3597 2675 3597 1894 
z
M 3022 2063 
Q 3016 2534 2758 2815 
Q 2500 3097 2075 3097 
Q 1594 3097 1305 2825 
Q 1016 2553 972 2059 
L 3022 2063 
z
" transform="scale(0.015625)"/>
       <path id="DejaVuSans-70" d="M 1159 525 
L 1159 -1331 
L 581 -1331 
L 581 3500 
L 1159 3500 
L 1159 2969 
Q 1341 3281 1617 3432 
Q 1894 3584 2278 3584 
Q 2916 3584 3314 3078 
Q 3713 2572 3713 1747 
Q 3713 922 3314 415 
Q 2916 -91 2278 -91 
Q 1894 -91 1617 61 
Q 1341 213 1159 525 
z
M 3116 1747 
Q 3116 2381 2855 2742 
Q 2594 3103 2138 3103 
Q 1681 3103 1420 2742 
Q 1159 2381 1159 1747 
Q 1159 1113 1420 752 
Q 1681 391 2138 391 
Q 2594 391 2855 752 
Q 3116 1113 3116 1747 
z
" transform="scale(0.015625)"/>
       <path id="DejaVuSans-73" d="M 2834 3397 
L 2834 2853 
Q 2591 2978 2328 3040 
Q 2066 3103 1784 3103 
Q 1356 3103 1142 2972 
Q 928 2841 928 2578 
Q 928 2378 1081 2264 
Q 1234 2150 1697 2047 
L 1894 2003 
Q 2506 1872 2764 1633 
Q 3022 1394 3022 966 
Q 3022 478 2636 193 
Q 2250 -91 1575 -91 
Q 1294 -91 989 -36 
Q 684 19 347 128 
L 347 722 
Q 666 556 975 473 
Q 1284 391 1588 391 
Q 1994 391 2212 530 
Q 2431 669 2431 922 
Q 2431 1156 2273 1281 
Q 2116 1406 1581 1522 
L 1381 1569 
Q 847 1681 609 1914 
Q 372 2147 372 2553 
Q 372 3047 722 3315 
Q 1072 3584 1716 3584 
Q 2034 3584 2315 3537 
Q 2597 3491 2834 3397 
z
" transform="scale(0.015625)"/>
      </defs>
      <use xlink:href="#DejaVuSans-53"/>
      <use xlink:href="#DejaVuSans-74" x="63.476562"/>
      <use xlink:href="#DejaVuSans-65" x="102.685547"/>
      <use xlink:href="#DejaVuSans-70" x="164.208984"/>
      <use xlink:href="#DejaVuSans-73" x="227.685547"/>
     </g>
    </g>
   </g>
   <g id="matplotlib.axis_2">
    <g id="ytick_1">
     <g id="line2d_15">
      <path d="M 57.6 307.584 
L 414.72 307.584 
" clip-path="url(#pbc5c9942d4)" style="fill: none; stroke: #808080; stroke-opacity: 0.2; stroke-width: 0.5; stroke-linecap: square"/>
     </g>
     <g id="line2d_16">
      <defs>
       <path id="mccba03f916" d="M 0 0 
L -3.5 0 
" style="stroke: #000000; stroke-width: 0.8"/>
      </defs>
      <g>
       <use xlink:href="#mccba03f916" x="57.6" y="307.584" style="stroke: #000000; stroke-width: 0.8"/>
      </g>
     </g>
     <g id="text_9">
      <!-- 0.00 -->
      <g transform="translate(28.334375 311.383219) scale(0.1 -0.1)">
       <defs>
        <path id="DejaVuSans-2e" d="M 684 794 
L 1344 794 
L 1344 0 
L 684 0 
L 684 794 
z
" transform="scale(0.015625)"/>
       </defs>
       <use xlink:href="#DejaVuSans-30"/>
       <use xlink:href="#DejaVuSans-2e" x="63.623047"/>
       <use xlink:href="#DejaVuSans-30" x="95.410156"/>
       <use xlink:href="#DejaVuSans-30" x="159.033203"/>
      </g>
     </g>
    </g>
    <g id="ytick_2">
     <g id="line2d_17">
      <path d="M 57.6 277.986948 
L 414.72 277.986948 
" clip-path="url(#pbc5c9942d4)" style="fill: none; stroke: #808080; stroke-opacity: 0.2; stroke-width: 0.5; stroke-linecap: square"/>
     </g>
     <g id="line2d_18">
      <g>
       <use xlink:href="#mccba03f916" x="57.6" y="277.986948" style="stroke: #000000; stroke-width: 0.8"/>
      </g>
     </g>
     <g id="text_10">
      <!-- 0.25 -->
      <g transform="translate(28.334375 281.786167) scale(0.1 -0.1)">
       <defs>
        <path id="DejaVuSans-35" d="M 691 4666 
L 3169 4666 
L 3169 4134 
L 1269 4134 
L 1269 2991 
Q 1406 3038 1543 3061 
Q 1681 3084 1819 3084 
Q 2600 3084 3056 2656 
Q 3513 2228 3513 1497 
Q 3513 744 3044 326 
Q 2575 -91 1722 -91 
Q 1428 -91 1123 -41 
Q 819 9 494 109 
L 494 744 
Q 775 591 1075 516 
Q 1375 441 1709 441 
Q 2250 441 2565 725 
Q 2881 1009 2881 1497 
Q 2881 1984 2565 2268 
Q 2250 2553 1709 2553 
Q 1456 2553 1204 2497 
Q 953 2441 691 2322 
L 691 4666 
z
" transform="scale(0.015625)"/>
       </defs>
       <use xlink:href="#DejaVuSans-30"/>
       <use xlink:href="#DejaVuSans-2e" x="63.623047"/>
       <use xlink:href="#DejaVuSans-32" x="95.410156"/>
       <use xlink:href="#DejaVuSans-35" x="159.033203"/>
      </g>
     </g>
    </g>
    <g id="ytick_3">
     <g id="line2d_19">
      <path d="M 57.6 248.389896 
L 414.72 248.389896 
" clip-path="url(#pbc5c9942d4)" style="fill: none; stroke: #808080; stroke-opacity: 0.2; stroke-width: 0.5; stroke-linecap: square"/>
     </g>
     <g id="line2d_20">
      <g>
       <use xlink:href="#mccba03f916" x="57.6" y="248.389896" style="stroke: #000000; stroke-width: 0.8"/>
      </g>
     </g>
     <g id="text_11">
      <!-- 0.50 -->
      <g transform="translate(28.334375 252.189115) scale(0.1 -0.1)">
       <use xlink:href="#DejaVuSans-30"/>
       <use xlink:href="#DejaVuSans-2e" x="63.623047"/>
       <use xlink:href="#DejaVuSans-35" x="95.410156"/>
       <use xlink:href="#DejaVuSans-30" x="159.033203"/>
      </g>
     </g>
    </g>
    <g id="ytick_4">
     <g id="line2d_21">
      <path d="M 57.6 218.792844 
L 414.72 218.792844 
" clip-path="url(#pbc5c9942d4)" style="fill: none; stroke: #808080; stroke-opacity: 0.2; stroke-width: 0.5; stroke-linecap: square"/>
     </g>
     <g id="line2d_22">
      <g>
       <use xlink:href="#mccba03f916" x="57.6" y="218.792844" style="stroke: #000000; stroke-width: 0.8"/>
      </g>
     </g>
     <g id="text_12">
      <!-- 0.75 -->
      <g transform="translate(28.334375 222.592063) scale(0.1 -0.1)">
       <defs>
        <path id="DejaVuSans-37" d="M 525 4666 
L 3525 4666 
L 3525 4397 
L 1831 0 
L 1172 0 
L 2766 4134 
L 525 4134 
L 525 4666 
z
" transform="scale(0.015625)"/>
       </defs>
       <use xlink:href="#DejaVuSans-30"/>
       <use xlink:href="#DejaVuSans-2e" x="63.623047"/>
       <use xlink:href="#DejaVuSans-37" x="95.410156"/>
       <use xlink:href="#DejaVuSans-35" x="159.033203"/>
      </g>
     </g>
    </g>
    <g id="ytick_5">
     <g id="line2d_23">
      <path d="M 57.6 189.195793 
L 414.72 189.195793 
" clip-path="url(#pbc5c9942d4)" style="fill: none; stroke: #808080; stroke-opacity: 0.2; stroke-width: 0.5; stroke-linecap: square"/>
     </g>
     <g id="line2d_24">
      <g>
       <use xlink:href="#mccba03f916" x="57.6" y="189.195793" style="stroke: #000000; stroke-width: 0.8"/>
      </g>
     </g>
     <g id="text_13">
      <!-- 1.00 -->
      <g transform="translate(28.334375 192.995011) scale(0.1 -0.1)">
       <use xlink:href="#DejaVuSans-31"/>
       <use xlink:href="#DejaVuSans-2e" x="63.623047"/>
       <use xlink:href="#DejaVuSans-30" x="95.410156"/>
       <use xlink:href="#DejaVuSans-30" x="159.033203"/>
      </g>
     </g>
    </g>
    <g id="ytick_6">
     <g id="line2d_25">
      <path d="M 57.6 159.598741 
L 414.72 159.598741 
" clip-path="url(#pbc5c9942d4)" style="fill: none; stroke: #808080; stroke-opacity: 0.2; stroke-width: 0.5; stroke-linecap: square"/>
     </g>
     <g id="line2d_26">
      <g>
       <use xlink:href="#mccba03f916" x="57.6" y="159.598741" style="stroke: #000000; stroke-width: 0.8"/>
      </g>
     </g>
     <g id="text_14">
      <!-- 1.25 -->
      <g transform="translate(28.334375 163.397959) scale(0.1 -0.1)">
       <use xlink:href="#DejaVuSans-31"/>
       <use xlink:href="#DejaVuSans-2e" x="63.623047"/>
       <use xlink:href="#DejaVuSans-32" x="95.410156"/>
       <use xlink:href="#DejaVuSans-35" x="159.033203"/>
      </g>
     </g>
    </g>
    <g id="ytick_7">
     <g id="line2d_27">
      <path d="M 57.6 130.001689 
L 414.72 130.001689 
" clip-path="url(#pbc5c9942d4)" style="fill: none; stroke: #808080; stroke-opacity: 0.2; stroke-width: 0.5; stroke-linecap: square"/>
     </g>
     <g id="line2d_28">
      <g>
       <use xlink:href="#mccba03f916" x="57.6" y="130.001689" style="stroke: #000000; stroke-width: 0.8"/>
      </g>
     </g>
     <g id="text_15">
      <!-- 1.50 -->
      <g transform="translate(28.334375 133.800908) scale(0.1 -0.1)">
       <use xlink:href="#DejaVuSans-31"/>
       <use xlink:href="#DejaVuSans-2e" x="63.623047"/>
       <use xlink:href="#DejaVuSans-35" x="95.410156"/>
       <use xlink:href="#DejaVuSans-30" x="159.033203"/>
      </g>
     </g>
    </g>
    <g id="ytick_8">
     <g id="line2d_29">
      <path d="M 57.6 100.404637 
L 414.72 100.404637 
" clip-path="url(#pbc5c9942d4)" style="fill: none; stroke: #808080; stroke-opacity: 0.2; stroke-width: 0.5; stroke-linecap: square"/>
     </g>
     <g id="line2d_30">
      <g>
       <use xlink:href="#mccba03f916" x="57.6" y="100.404637" style="stroke: #000000; stroke-width: 0.8"/>
      </g>
     </g>
     <g id="text_16">
      <!-- 1.75 -->
      <g transform="translate(28.334375 104.203856) scale(0.1 -0.1)">
       <use xlink:href="#DejaVuSans-31"/>
       <use xlink:href="#DejaVuSans-2e" x="63.623047"/>
       <use xlink:href="#DejaVuSans-37" x="95.410156"/>
       <use xlink:href="#DejaVuSans-35" x="159.033203"/>
      </g>
     </g>
    </g>
    <g id="ytick_9">
     <g id="line2d_31">
      <path d="M 57.6 70.807585 
L 414.72 70.807585 
" clip-path="url(#pbc5c9942d4)" style="fill: none; stroke: #808080; stroke-opacity: 0.2; stroke-width: 0.5; stroke-linecap: square"/>
     </g>
     <g id="line2d_32">
      <g>
       <use xlink:href="#mccba03f916" x="57.6" y="70.807585" style="stroke: #000000; stroke-width: 0.8"/>
      </g>
     </g>
     <g id="text_17">
      <!-- 2.00 -->
      <g transform="translate(28.334375 74.606804) scale(0.1 -0.1)">
       <use xlink:href="#DejaVuSans-32"/>
       <use xlink:href="#DejaVuSans-2e" x="63.623047"/>
       <use xlink:href="#DejaVuSans-30" x="95.410156"/>
       <use xlink:href="#DejaVuSans-30" x="159.033203"/>
      </g>
     </g>
    </g>
    <g id="text_18">
     <!-- Value -->
     <g transform="translate(21.83875 191.0055) rotate(-90) scale(0.12 -0.12)">
      <defs>
       <path id="DejaVuSans-56" d="M 1831 0 
L 50 4666 
L 709 4666 
L 2188 738 
L 3669 4666 
L 4325 4666 
L 2547 0 
L 1831 0 
z
" transform="scale(0.015625)"/>
       <path id="DejaVuSans-61" d="M 2194 1759 
Q 1497 1759 1228 1600 
Q 959 1441 959 1056 
Q 959 750 1161 570 
Q 1363 391 1709 391 
Q 2188 391 2477 730 
Q 2766 1069 2766 1631 
L 2766 1759 
L 2194 1759 
z
M 3341 1997 
L 3341 0 
L 2766 0 
L 2766 531 
Q 2569 213 2275 61 
Q 1981 -91 1556 -91 
Q 1019 -91 701 211 
Q 384 513 384 1019 
Q 384 1609 779 1909 
Q 1175 2209 1959 2209 
L 2766 2209 
L 2766 2266 
Q 2766 2663 2505 2880 
Q 2244 3097 1772 3097 
Q 1472 3097 1187 3025 
Q 903 2953 641 2809 
L 641 3341 
Q 956 3463 1253 3523 
Q 1550 3584 1831 3584 
Q 2591 3584 2966 3190 
Q 3341 2797 3341 1997 
z
" transform="scale(0.015625)"/>
       <path id="DejaVuSans-6c" d="M 603 4863 
L 1178 4863 
L 1178 0 
L 603 0 
L 603 4863 
z
" transform="scale(0.015625)"/>
       <path id="DejaVuSans-75" d="M 544 1381 
L 544 3500 
L 1119 3500 
L 1119 1403 
Q 1119 906 1312 657 
Q 1506 409 1894 409 
Q 2359 409 2629 706 
Q 2900 1003 2900 1516 
L 2900 3500 
L 3475 3500 
L 3475 0 
L 2900 0 
L 2900 538 
Q 2691 219 2414 64 
Q 2138 -91 1772 -91 
Q 1169 -91 856 284 
Q 544 659 544 1381 
z
M 1991 3584 
L 1991 3584 
z
" transform="scale(0.015625)"/>
      </defs>
      <use xlink:href="#DejaVuSans-56"/>
      <use xlink:href="#DejaVuSans-61" x="60.658203"/>
      <use xlink:href="#DejaVuSans-6c" x="121.9375"/>
      <use xlink:href="#DejaVuSans-75" x="149.720703"/>
      <use xlink:href="#DejaVuSans-65" x="213.099609"/>
     </g>
    </g>
   </g>
   <g id="line2d_33">
    <path d="M 60.790924 167.525053 
L 61.083669 192.48729 
L 61.66916 193.126301 
L 62.547396 213.849029 
L 62.840141 213.908717 
L 63.132886 215.029364 
L 63.425632 218.371633 
L 63.718377 217.678194 
L 64.011122 221.254275 
L 64.303868 222.933642 
L 64.889358 229.483909 
L 65.182103 231.088835 
L 65.474849 231.857934 
L 65.767594 229.908199 
L 66.060339 233.928822 
L 66.353085 229.193202 
L 66.64583 232.696842 
L 66.938575 234.842072 
L 67.231321 232.299322 
L 67.524066 235.1786 
L 67.816811 233.736957 
L 68.109557 235.624936 
L 68.695047 236.704032 
L 69.573283 236.083904 
L 69.866028 236.737064 
L 70.158774 236.674285 
L 70.451519 238.082267 
L 70.744264 240.273161 
L 71.329755 243.46316 
L 71.6225 240.537812 
L 71.915246 244.397417 
L 72.500736 247.136039 
L 73.086227 249.551732 
L 73.378972 247.948009 
L 73.671717 245.034474 
L 74.549953 240.386039 
L 75.135444 240.561861 
L 75.428189 239.347668 
L 76.01368 241.30886 
L 76.306425 245.4243 
L 76.59917 243.088052 
L 77.477406 239.187317 
L 78.062897 239.943173 
L 78.355642 242.09498 
L 78.648388 236.367322 
L 78.941133 234.286455 
L 79.233878 237.801111 
L 79.526623 237.614777 
L 79.819369 238.84924 
L 80.112114 243.519373 
L 80.404859 245.195167 
L 80.697605 250.030185 
L 80.99035 248.039945 
L 81.868586 251.273305 
L 82.161331 249.354803 
L 82.454077 250.06127 
L 82.746822 248.578058 
L 83.039567 250.895034 
L 83.332312 251.578519 
L 83.625058 254.468856 
L 83.917803 254.572063 
L 84.503294 256.237342 
L 84.796039 256.421769 
L 85.38153 256.64853 
L 85.674275 257.228239 
L 85.96702 256.457782 
L 86.259766 260.39773 
L 86.552511 261.005596 
L 86.845256 260.10502 
L 87.430747 264.199926 
L 87.723492 264.372931 
L 88.016237 265.259572 
L 88.308983 265.575814 
L 88.601728 266.770034 
L 88.894473 267.300503 
L 89.187219 268.99305 
L 90.065455 270.038683 
L 90.3582 271.518196 
L 90.650945 271.780882 
L 90.94369 271.068075 
L 91.236436 275.019327 
L 91.529181 274.051352 
L 91.821926 274.410175 
L 92.407417 274.289149 
L 92.700162 277.939214 
L 92.992908 278.794419 
L 93.285653 281.544046 
L 93.578398 279.971811 
L 93.871144 282.899249 
L 94.163889 279.997698 
L 94.456634 280.666787 
L 94.749379 280.988768 
L 95.33487 279.620221 
L 95.627615 278.429994 
L 95.920361 280.106527 
L 96.213106 280.981482 
L 96.505851 280.759393 
L 96.798597 279.215409 
L 97.676833 280.413338 
L 97.969578 280.037706 
L 98.555068 276.015111 
L 98.847814 269.943136 
L 99.72605 271.483491 
L 100.018795 268.921202 
L 100.604286 270.248266 
L 100.897031 272.4212 
L 101.482522 271.549738 
L 102.068012 273.397002 
L 102.360757 271.352482 
L 102.653503 272.526122 
L 102.946248 270.131 
L 103.238993 269.268506 
L 103.531739 268.96738 
L 104.117229 264.784558 
L 104.70272 271.11287 
L 104.995465 273.561458 
L 105.580956 276.252258 
L 105.873701 276.954733 
L 106.459192 281.14447 
L 107.044682 286.741216 
L 107.337428 285.457223 
L 107.922918 286.729893 
L 108.215664 288.403166 
L 108.801154 290.871592 
L 109.67939 289.089584 
L 109.972135 289.722663 
L 110.264881 289.92302 
L 110.850371 289.702991 
L 111.143117 289.864255 
L 112.021353 285.736404 
L 112.314098 279.369067 
L 112.899588 282.045047 
L 113.485079 282.96877 
L 114.363315 289.001224 
L 114.65606 288.263258 
L 114.948806 286.905919 
L 115.241551 286.187783 
L 115.534296 286.102657 
L 115.827042 284.770288 
L 116.412532 284.809838 
L 116.705277 285.25405 
L 118.754495 289.171196 
L 119.04724 287.745712 
L 119.632731 286.547256 
L 120.218221 292.074591 
L 120.803712 294.235671 
L 121.389202 291.149301 
L 121.681948 293.828266 
L 121.974693 292.077463 
L 123.145674 295.118634 
L 123.43842 296.367774 
L 123.731165 296.11983 
L 124.02391 293.591486 
L 124.316655 293.540769 
L 124.609401 294.153411 
L 124.902146 295.283648 
L 125.194891 295.68996 
L 125.487637 294.436646 
L 125.780382 294.62893 
L 126.073127 293.333814 
L 126.658618 294.728121 
L 126.951363 291.810966 
L 127.244109 293.22909 
L 127.829599 295.101238 
L 128.122344 294.884069 
L 128.41509 298.084763 
L 128.707835 294.678895 
L 129.00058 294.652649 
L 129.293326 295.528435 
L 129.586071 294.00404 
L 130.171562 292.691663 
L 130.464307 292.942272 
L 131.049798 293.112328 
L 131.342543 290.862198 
L 131.635288 294.754155 
L 132.220779 294.889426 
L 132.513524 294.036149 
L 132.806269 295.522015 
L 133.099015 295.420991 
L 133.39176 293.375731 
L 133.684505 293.187985 
L 133.977251 293.950468 
L 134.269996 295.284286 
L 134.562741 292.473843 
L 134.855487 293.821579 
L 135.148232 292.635176 
L 135.440977 293.605019 
L 135.733722 295.552788 
L 136.319213 293.644703 
L 136.611958 296.658009 
L 136.904704 297.673959 
L 137.197449 297.548661 
L 137.78294 299.138665 
L 138.075685 297.740208 
L 138.36843 295.289029 
L 138.953921 294.450786 
L 139.539411 294.204354 
L 140.124902 291.861909 
L 140.417647 287.992801 
L 140.710393 288.22329 
L 141.003138 283.942305 
L 141.295883 283.964692 
L 141.881374 286.318822 
L 142.174119 284.743291 
L 142.466864 284.611745 
L 142.75961 286.736275 
L 143.052355 286.790607 
L 143.637846 288.861669 
L 143.930591 286.516145 
L 145.394318 287.016561 
L 145.979808 289.277613 
L 146.272553 289.796345 
L 146.858044 287.50591 
L 147.150789 286.976392 
L 147.443535 288.363056 
L 147.73628 290.603719 
L 148.321771 291.874382 
L 148.907261 288.822124 
L 149.200007 290.922687 
L 149.492752 290.320744 
L 149.785497 290.750928 
L 150.663733 291.342828 
L 150.956478 291.682349 
L 151.249224 291.299545 
L 151.541969 293.156957 
L 151.834714 289.638031 
L 152.420205 292.266354 
L 152.71295 293.001363 
L 153.005696 293.286221 
L 153.298441 293.749212 
L 153.591186 292.177762 
L 153.883931 289.351827 
L 154.176677 288.852704 
L 154.469422 289.715624 
L 154.762167 288.609618 
L 155.054913 290.602632 
L 155.347658 291.688145 
L 155.640403 287.02518 
L 155.933149 286.468294 
L 156.518639 293.569492 
L 156.811385 291.077357 
L 157.396875 288.872432 
L 157.68962 289.743912 
L 158.275111 293.073468 
L 159.738838 294.245225 
L 160.031583 296.209969 
L 160.324328 296.671749 
L 160.617074 294.938873 
L 160.909819 296.961746 
L 161.202564 297.57063 
L 161.495309 298.54194 
L 161.788055 295.681249 
L 162.0808 289.354623 
L 162.373545 289.170461 
L 162.959036 292.223549 
L 163.251781 292.710251 
L 163.544527 294.739958 
L 163.837272 294.632254 
L 164.130017 293.22276 
L 164.422763 294.968188 
L 164.715508 293.795791 
L 165.300998 297.329145 
L 165.593744 297.050081 
L 165.886489 296.924941 
L 166.179234 295.731053 
L 166.47198 293.06463 
L 166.764725 295.335432 
L 167.05747 296.010348 
L 167.350216 297.918656 
L 167.642961 295.01536 
L 168.228452 296.377848 
L 168.521197 298.252031 
L 169.106687 299.457448 
L 169.399433 296.366456 
L 169.984923 294.570909 
L 170.277669 292.010343 
L 170.570414 291.443264 
L 170.863159 291.727649 
L 171.44865 290.637087 
L 171.741395 290.890252 
L 172.326886 293.533437 
L 172.619631 292.718139 
L 173.205122 294.766231 
L 173.497867 293.571192 
L 173.790612 294.642023 
L 174.376103 292.633379 
L 174.961594 292.789731 
L 175.254339 292.640772 
L 175.547084 292.883533 
L 175.839829 292.671851 
L 176.42532 294.689191 
L 176.718065 295.092607 
L 177.010811 294.854055 
L 177.303556 295.686867 
L 177.596301 295.949357 
L 178.181792 292.886355 
L 178.474537 292.498697 
L 178.767283 291.51393 
L 179.645518 293.537489 
L 180.231009 293.045437 
L 180.8165 293.160156 
L 181.109245 292.80175 
L 181.40199 292.260877 
L 181.987481 293.640157 
L 182.280226 296.813064 
L 182.572972 297.010852 
L 183.158462 295.540858 
L 183.451207 297.073403 
L 183.743953 297.553131 
L 184.036698 300.109062 
L 184.329443 298.732322 
L 184.622189 299.583479 
L 184.914934 298.199459 
L 185.500425 298.540395 
L 186.085915 299.925747 
L 186.671406 300.863241 
L 187.256896 299.699184 
L 188.135132 298.802286 
L 188.427878 295.918947 
L 189.013368 295.72368 
L 189.306114 293.851698 
L 189.598859 294.592758 
L 189.891604 297.421848 
L 190.18435 297.189188 
L 190.76984 297.198648 
L 191.062585 298.736836 
L 191.355331 295.676423 
L 191.648076 297.065954 
L 191.940821 296.423448 
L 192.233567 294.708734 
L 192.526312 291.012809 
L 192.819057 289.318951 
L 193.111803 290.162434 
L 193.404548 290.295766 
L 193.697293 289.386749 
L 193.990039 290.972981 
L 194.575529 291.15924 
L 194.868274 289.639486 
L 195.16102 291.384821 
L 195.453765 290.139848 
L 195.74651 292.504587 
L 196.039256 289.910052 
L 196.332001 291.159406 
L 196.624746 291.803154 
L 196.917492 293.473549 
L 197.210237 290.931755 
L 197.502982 291.419627 
L 197.795728 292.412331 
L 198.088473 294.2002 
L 198.381218 294.411272 
L 198.673963 291.873611 
L 198.966709 293.62845 
L 199.259454 289.85259 
L 199.552199 289.153742 
L 199.844945 290.426752 
L 200.723181 295.093202 
L 201.894162 293.683707 
L 202.186907 292.458776 
L 202.479652 292.663726 
L 202.772398 290.269316 
L 203.065143 291.58452 
L 203.357888 290.121512 
L 203.943379 296.73396 
L 204.52887 295.867064 
L 204.821615 297.091064 
L 205.11436 295.961369 
L 205.992596 294.147647 
L 206.285341 294.239654 
L 206.870832 294.173349 
L 207.749068 293.286132 
L 208.041813 292.149338 
L 208.334559 291.549616 
L 208.920049 292.528878 
L 209.212794 291.540074 
L 209.50554 291.231489 
L 210.09103 292.350697 
L 210.383776 294.372059 
L 210.676521 293.438765 
L 211.262012 295.103395 
L 211.554757 295.173276 
L 211.847502 294.86947 
L 212.432993 298.048385 
L 212.725738 297.964362 
L 213.018483 296.385227 
L 213.603974 298.851093 
L 213.896719 298.987871 
L 214.189465 295.994366 
L 214.48221 297.07326 
L 216.238682 298.908994 
L 216.824172 298.726297 
L 217.116918 297.776102 
L 217.409663 299.759716 
L 217.702408 299.19189 
L 217.995154 300.35639 
L 218.287899 298.293972 
L 218.580644 300.100154 
L 218.87339 298.426465 
L 219.166135 297.829557 
L 219.45888 295.416876 
L 219.751626 295.459496 
L 220.044371 294.463923 
L 220.337116 292.8157 
L 220.629861 291.983812 
L 220.922607 291.60872 
L 221.215352 291.527509 
L 221.508097 293.50728 
L 222.386333 295.730288 
L 222.679079 295.44583 
L 223.264569 295.344582 
L 223.557315 295.840075 
L 224.142805 294.594967 
L 224.43555 295.540925 
L 224.728296 298.064085 
L 225.021041 299.416472 
L 225.313786 298.006089 
L 225.606532 298.322615 
L 225.899277 296.621001 
L 226.192022 296.287686 
L 226.484768 292.982198 
L 226.777513 292.655147 
L 227.363004 290.545649 
L 227.655749 291.547058 
L 227.948494 293.36666 
L 228.241239 291.931901 
L 228.533985 293.363292 
L 228.82673 296.361046 
L 229.412221 295.328551 
L 229.704966 294.557938 
L 229.997711 292.140056 
L 230.290457 293.865091 
L 230.583202 293.525411 
L 230.875947 293.014314 
L 231.461438 294.416684 
L 231.754183 291.801503 
L 232.046928 292.13047 
L 232.339674 291.78251 
L 232.632419 293.207887 
L 232.925164 292.535069 
L 233.21791 294.308234 
L 233.8034 293.92134 
L 234.096146 293.208589 
L 234.388891 290.921673 
L 234.974382 291.603721 
L 235.267127 293.584661 
L 235.559872 291.08626 
L 235.852617 290.688785 
L 236.145363 288.741316 
L 236.438108 289.614802 
L 237.023599 292.942713 
L 237.609089 290.080108 
L 238.19458 292.727806 
L 238.78007 292.733578 
L 239.365561 295.228135 
L 239.658306 291.77606 
L 239.951052 291.298055 
L 240.829288 291.031326 
L 242.000269 292.650996 
L 242.293014 293.819396 
L 242.585759 297.400997 
L 242.878505 295.173916 
L 243.17125 295.559074 
L 243.463995 292.840954 
L 243.756741 292.432477 
L 244.049486 293.779715 
L 244.927722 293.756728 
L 245.220467 293.565872 
L 245.513213 292.324822 
L 245.805958 290.051105 
L 246.684194 293.569734 
L 246.976939 296.090491 
L 247.56243 295.904296 
L 247.855175 294.625528 
L 248.14792 295.223837 
L 248.440666 292.986372 
L 249.026156 294.833544 
L 249.318902 297.23038 
L 249.611647 296.422608 
L 249.904392 297.471897 
L 250.197137 296.762221 
L 250.489883 298.391809 
L 250.782628 299.347328 
L 251.075373 299.009266 
L 251.660864 298.922917 
L 251.953609 300.908596 
L 252.831845 299.342166 
L 253.124591 301.925581 
L 253.417336 298.905767 
L 253.710081 299.521198 
L 254.002826 299.311738 
L 254.295572 298.261986 
L 254.588317 295.452904 
L 254.881062 297.040447 
L 255.173808 293.890061 
L 255.466553 294.793844 
L 255.759298 293.350386 
L 256.052044 293.446659 
L 256.344789 291.995012 
L 256.637534 292.847718 
L 257.223025 293.358098 
L 257.51577 292.031686 
L 257.808515 292.509962 
L 258.101261 291.458274 
L 258.394006 294.733216 
L 258.686751 295.400281 
L 258.979497 295.700962 
L 259.272242 292.643935 
L 259.564987 294.7837 
L 259.857733 294.760952 
L 260.150478 297.477307 
L 260.735969 295.286639 
L 261.028714 295.141046 
L 261.321459 295.90989 
L 261.614204 297.665509 
L 262.199695 299.605317 
L 262.49244 297.738882 
L 262.785186 298.951671 
L 263.370676 299.589543 
L 263.956167 298.406085 
L 264.541658 297.926348 
L 265.419893 299.941996 
L 265.712639 300.899008 
L 266.005384 299.977657 
L 266.590875 302.33553 
L 266.88362 304.405309 
L 267.469111 301.901912 
L 267.761856 302.457346 
L 268.054601 301.849273 
L 268.640092 298.158577 
L 268.932837 299.759537 
L 269.811073 298.723883 
L 270.103818 298.787093 
L 270.396564 300.876661 
L 270.982054 300.152801 
L 271.2748 301.804831 
L 271.567545 299.60992 
L 272.153035 301.488166 
L 272.445781 300.485541 
L 272.738526 301.370493 
L 273.031271 301.32291 
L 273.324017 301.765694 
L 273.909507 300.313096 
L 274.202253 300.222471 
L 274.494998 301.323441 
L 275.080489 300.703063 
L 275.665979 300.345351 
L 275.958724 297.710385 
L 276.25147 298.346915 
L 276.83696 296.772534 
L 277.129706 297.63281 
L 277.422451 294.736084 
L 277.715196 296.956303 
L 278.007942 292.863749 
L 278.300687 294.028665 
L 278.886178 292.543867 
L 279.178923 291.500946 
L 279.471668 291.468096 
L 280.057159 293.475767 
L 280.349904 293.46261 
L 280.642649 293.716617 
L 280.935395 294.755105 
L 281.22814 296.32765 
L 281.520885 296.356582 
L 281.813631 297.618662 
L 282.106376 297.102667 
L 283.277357 298.564068 
L 283.862848 297.711122 
L 284.448338 298.797366 
L 284.741084 295.126606 
L 285.033829 294.821372 
L 285.326574 294.984314 
L 285.912065 295.440098 
L 286.20481 296.546838 
L 286.497556 296.691319 
L 286.790301 297.04675 
L 287.083046 298.737782 
L 287.375791 298.181083 
L 287.668537 299.279419 
L 287.961282 299.331602 
L 288.546773 301.589195 
L 289.132263 297.504841 
L 289.425009 297.282154 
L 289.717754 297.217326 
L 290.010499 297.411668 
L 290.59599 299.478109 
L 290.888735 301.040654 
L 291.18148 301.033117 
L 291.766971 298.15208 
L 292.059716 296.766851 
L 292.352462 297.147405 
L 292.645207 300.159702 
L 292.937952 300.106108 
L 293.230698 298.459546 
L 293.523443 298.486994 
L 293.816188 298.998361 
L 294.108934 298.852836 
L 294.401679 299.388961 
L 294.694424 298.944171 
L 294.987169 299.544 
L 295.57266 296.703601 
L 295.865405 298.284277 
L 296.158151 298.159265 
L 296.450896 295.986413 
L 296.743641 296.737047 
L 297.036387 296.813522 
L 297.329132 295.728829 
L 297.621877 295.831214 
L 298.500113 297.854717 
L 299.085604 297.818241 
L 299.378349 295.821478 
L 299.671094 295.346682 
L 300.256585 293.991865 
L 300.54933 291.780733 
L 300.842076 292.106131 
L 301.134821 295.372833 
L 301.720312 293.741945 
L 302.013057 294.172538 
L 302.305802 295.44056 
L 302.598547 295.648965 
L 303.184038 294.671584 
L 303.476783 294.418187 
L 304.062274 297.811059 
L 304.355019 296.111523 
L 304.647765 293.613329 
L 304.94051 294.652123 
L 305.233255 294.469976 
L 305.526 295.29631 
L 305.818746 293.857781 
L 306.111491 294.244291 
L 306.404236 295.332714 
L 306.696982 295.249266 
L 307.282472 293.864785 
L 307.575218 293.694578 
L 308.160708 294.948838 
L 308.453454 291.509429 
L 309.038944 293.782078 
L 309.624435 294.24204 
L 310.209925 291.188995 
L 310.502671 291.376759 
L 311.088161 292.1361 
L 311.673652 294.528123 
L 312.259143 294.471609 
L 312.551888 295.167534 
L 312.844633 293.778661 
L 313.430124 295.888302 
L 314.601105 297.437081 
L 315.186596 297.150413 
L 315.479341 297.338679 
L 315.772086 299.790788 
L 316.357577 299.353563 
L 316.650322 295.347487 
L 316.943067 296.776717 
L 317.235813 296.250823 
L 317.528558 297.542744 
L 317.821303 296.192206 
L 318.114049 295.394916 
L 318.406794 295.717081 
L 318.699539 296.739138 
L 318.992285 299.053167 
L 319.577775 299.894168 
L 320.163266 297.389275 
L 320.456011 297.629954 
L 320.748756 300.609651 
L 321.334247 301.66 
L 321.919738 301.429788 
L 322.212483 302.024787 
L 322.505228 300.924775 
L 323.090719 301.739813 
L 323.383464 302.008477 
L 323.67621 302.924785 
L 323.968955 301.749245 
L 324.2617 303.844969 
L 324.847191 303.021018 
L 325.139936 300.825148 
L 325.432681 301.743694 
L 325.725427 300.365126 
L 326.018172 300.763587 
L 326.310917 299.515973 
L 326.603663 299.688716 
L 326.896408 300.742219 
L 327.189153 298.229059 
L 327.481899 298.283253 
L 327.774644 296.317396 
L 328.067389 297.176182 
L 328.65288 294.194097 
L 329.23837 297.672833 
L 329.531116 297.450166 
L 330.409352 299.166928 
L 330.702097 300.319262 
L 330.994842 300.969137 
L 331.287588 298.739164 
L 331.580333 301.735695 
L 332.165823 302.906257 
L 332.458569 301.962959 
L 333.044059 303.170876 
L 333.336805 300.382623 
L 333.62955 300.462123 
L 333.922295 300.986491 
L 334.215041 299.148364 
L 334.507786 298.569836 
L 335.093276 298.114208 
L 335.678767 298.353562 
L 336.264258 297.240213 
L 336.557003 298.956393 
L 336.849748 299.129449 
L 337.142494 299.166635 
L 337.435239 300.3297 
L 338.02073 301.177116 
L 338.60622 298.380781 
L 339.191711 297.046546 
L 339.484456 296.774943 
L 339.777201 295.879807 
L 340.069947 292.325752 
L 340.655437 291.897283 
L 340.948183 292.302096 
L 341.533673 295.195515 
L 341.826419 293.691039 
L 342.119164 294.222221 
L 342.411909 296.347498 
L 342.704654 296.730483 
L 342.9974 298.10619 
L 343.290145 297.314912 
L 343.58289 297.97913 
L 343.875636 298.231727 
L 344.461126 300.247292 
L 345.046617 299.57306 
L 345.339362 297.887108 
L 345.924853 298.869589 
L 346.217598 298.585768 
L 346.510343 299.654831 
L 346.803089 298.857054 
L 347.095834 296.630927 
L 347.388579 297.147435 
L 347.97407 296.418613 
L 348.266815 296.248798 
L 348.559561 297.739678 
L 348.852306 298.436731 
L 349.145051 296.274221 
L 349.730542 296.280095 
L 350.023287 296.39554 
L 350.316032 296.183262 
L 350.608778 298.389929 
L 350.901523 297.297475 
L 351.194268 298.27042 
L 351.779759 297.719484 
L 352.36525 297.704593 
L 353.243486 298.798996 
L 353.536231 296.703265 
L 353.828976 298.498209 
L 354.414467 300.473951 
L 354.999957 299.32881 
L 355.585448 298.451069 
L 355.878193 300.098933 
L 356.170939 299.290241 
L 356.756429 296.423564 
L 357.049175 295.676362 
L 357.34192 295.992398 
L 357.634665 294.502609 
L 358.220156 295.906168 
L 358.512901 295.068969 
L 358.805646 296.915816 
L 359.098392 297.923033 
L 359.683882 297.252374 
L 359.976628 298.989649 
L 360.269373 295.734416 
L 360.562118 297.156814 
L 360.854864 292.372322 
L 361.147609 293.699774 
L 361.440354 291.803745 
L 362.025845 292.869866 
L 362.31859 292.346714 
L 362.611335 292.655168 
L 362.904081 293.509958 
L 363.196826 292.97917 
L 363.782317 296.194435 
L 364.075062 293.019161 
L 364.367807 294.533329 
L 364.660553 294.122856 
L 365.246043 297.167273 
L 365.538788 297.418556 
L 365.831534 297.874165 
L 366.124279 294.311336 
L 366.417024 294.23043 
L 366.70977 294.723297 
L 367.29526 293.980356 
L 367.588006 295.234601 
L 367.880751 294.109789 
L 368.466241 298.075492 
L 368.758987 298.520885 
L 369.344477 296.193481 
L 369.637223 296.667142 
L 369.929968 295.998449 
L 370.222713 297.860027 
L 370.515459 297.194287 
L 371.68644 297.034795 
L 371.979185 296.444518 
L 372.27193 296.523188 
L 372.564676 295.430256 
L 372.857421 293.52266 
L 373.150166 295.051932 
L 373.442912 295.644374 
L 374.906638 301.244786 
L 375.199384 300.583905 
L 375.492129 301.417389 
L 375.784874 299.953546 
L 376.077619 300.266223 
L 376.370365 301.210821 
L 376.66311 301.320447 
L 376.955855 300.894534 
L 377.541346 299.256708 
L 377.834091 299.529707 
L 378.126837 299.310633 
L 378.419582 298.757085 
L 378.712327 300.374228 
L 379.297818 300.68318 
L 379.883308 300.623569 
L 380.176054 298.52589 
L 380.761544 300.732634 
L 381.05429 300.050343 
L 381.63978 298.18312 
L 382.225271 297.052521 
L 382.518016 296.81286 
L 382.810762 298.277351 
L 383.103507 298.388088 
L 383.688997 295.937962 
L 383.981743 295.843009 
L 384.859979 297.161598 
L 385.445469 299.267845 
L 385.738215 299.859091 
L 386.03096 301.461 
L 386.323705 298.555098 
L 386.909196 298.151562 
L 387.201941 297.80503 
L 387.494686 299.076157 
L 388.372922 301.535252 
L 388.665668 301.358928 
L 388.958413 303.415084 
L 389.251158 301.564961 
L 389.543904 298.875853 
L 389.836649 298.214722 
L 390.129394 299.192497 
L 390.42214 299.23602 
L 391.00763 300.975526 
L 391.300375 298.912825 
L 391.593121 300.529835 
L 391.885866 299.746724 
L 392.471357 299.368543 
L 392.764102 300.203177 
L 393.056847 300.434578 
L 393.935083 298.27406 
L 394.227829 298.690784 
L 394.520574 300.310056 
L 395.39881 301.58106 
L 395.691555 298.510901 
L 395.9843 299.607085 
L 397.155282 301.924502 
L 397.448027 301.564727 
L 397.740772 302.004874 
L 398.033518 301.840537 
L 398.326263 300.402142 
L 398.619008 299.937635 
L 398.911753 299.764379 
L 399.204499 302.231319 
L 399.497244 303.112988 
L 400.082735 303.618503 
L 400.668225 303.552922 
L 400.960971 302.014856 
L 401.546461 301.890216 
L 401.839206 300.42052 
L 402.131952 300.182397 
L 402.424697 298.557842 
L 403.010188 300.286713 
L 403.302933 299.596777 
L 404.473914 299.660519 
L 404.76666 298.65451 
L 405.059405 295.394455 
L 405.35215 296.56899 
L 406.230386 297.562552 
L 406.523131 297.625467 
L 406.815877 297.996755 
L 407.108622 297.308411 
L 407.694113 294.844568 
L 407.986858 294.667432 
L 408.572349 296.342668 
L 408.865094 298.237584 
L 409.157839 301.382696 
L 409.450584 301.798605 
L 409.74333 301.014444 
L 410.036075 302.439773 
L 410.621566 300.734138 
L 410.914311 298.931505 
L 411.207056 299.475724 
L 411.499802 299.084565 
L 411.792547 299.328181 
L 411.792547 299.328181 
" clip-path="url(#pbc5c9942d4)" style="fill: none; stroke: #00bfbf; stroke-width: 2; stroke-linecap: square"/>
   </g>
   <g id="patch_3">
    <path d="M 57.6 307.584 
L 57.6 41.472 
" style="fill: none; stroke: #000000; stroke-width: 0.8; stroke-linejoin: miter; stroke-linecap: square"/>
   </g>
   <g id="patch_4">
    <path d="M 414.72 307.584 
L 414.72 41.472 
" style="fill: none; stroke: #000000; stroke-width: 0.8; stroke-linejoin: miter; stroke-linecap: square"/>
   </g>
   <g id="patch_5">
    <path d="M 57.6 307.584 
L 414.72 307.584 
" style="fill: none; stroke: #000000; stroke-width: 0.8; stroke-linejoin: miter; stroke-linecap: square"/>
   </g>
   <g id="patch_6">
    <path d="M 57.6 41.472 
L 414.72 41.472 
" style="fill: none; stroke: #000000; stroke-width: 0.8; stroke-linejoin: miter; stroke-linecap: square"/>
   </g>
   <g id="text_19">
    <!-- Loss (Actor) -->
    <g transform="translate(194.699219 35.472) scale(0.14 -0.14)">
     <defs>
      <path id="DejaVuSans-4c" d="M 628 4666 
L 1259 4666 
L 1259 531 
L 3531 531 
L 3531 0 
L 628 0 
L 628 4666 
z
" transform="scale(0.015625)"/>
      <path id="DejaVuSans-6f" d="M 1959 3097 
Q 1497 3097 1228 2736 
Q 959 2375 959 1747 
Q 959 1119 1226 758 
Q 1494 397 1959 397 
Q 2419 397 2687 759 
Q 2956 1122 2956 1747 
Q 2956 2369 2687 2733 
Q 2419 3097 1959 3097 
z
M 1959 3584 
Q 2709 3584 3137 3096 
Q 3566 2609 3566 1747 
Q 3566 888 3137 398 
Q 2709 -91 1959 -91 
Q 1206 -91 779 398 
Q 353 888 353 1747 
Q 353 2609 779 3096 
Q 1206 3584 1959 3584 
z
" transform="scale(0.015625)"/>
      <path id="DejaVuSans-20" transform="scale(0.015625)"/>
      <path id="DejaVuSans-28" d="M 1984 4856 
Q 1566 4138 1362 3434 
Q 1159 2731 1159 2009 
Q 1159 1288 1364 580 
Q 1569 -128 1984 -844 
L 1484 -844 
Q 1016 -109 783 600 
Q 550 1309 550 2009 
Q 550 2706 781 3412 
Q 1013 4119 1484 4856 
L 1984 4856 
z
" transform="scale(0.015625)"/>
      <path id="DejaVuSans-41" d="M 2188 4044 
L 1331 1722 
L 3047 1722 
L 2188 4044 
z
M 1831 4666 
L 2547 4666 
L 4325 0 
L 3669 0 
L 3244 1197 
L 1141 1197 
L 716 0 
L 50 0 
L 1831 4666 
z
" transform="scale(0.015625)"/>
      <path id="DejaVuSans-63" d="M 3122 3366 
L 3122 2828 
Q 2878 2963 2633 3030 
Q 2388 3097 2138 3097 
Q 1578 3097 1268 2742 
Q 959 2388 959 1747 
Q 959 1106 1268 751 
Q 1578 397 2138 397 
Q 2388 397 2633 464 
Q 2878 531 3122 666 
L 3122 134 
Q 2881 22 2623 -34 
Q 2366 -91 2075 -91 
Q 1284 -91 818 406 
Q 353 903 353 1747 
Q 353 2603 823 3093 
Q 1294 3584 2113 3584 
Q 2378 3584 2631 3529 
Q 2884 3475 3122 3366 
z
" transform="scale(0.015625)"/>
      <path id="DejaVuSans-72" d="M 2631 2963 
Q 2534 3019 2420 3045 
Q 2306 3072 2169 3072 
Q 1681 3072 1420 2755 
Q 1159 2438 1159 1844 
L 1159 0 
L 581 0 
L 581 3500 
L 1159 3500 
L 1159 2956 
Q 1341 3275 1631 3429 
Q 1922 3584 2338 3584 
Q 2397 3584 2469 3576 
Q 2541 3569 2628 3553 
L 2631 2963 
z
" transform="scale(0.015625)"/>
      <path id="DejaVuSans-29" d="M 513 4856 
L 1013 4856 
Q 1481 4119 1714 3412 
Q 1947 2706 1947 2009 
Q 1947 1309 1714 600 
Q 1481 -109 1013 -844 
L 513 -844 
Q 928 -128 1133 580 
Q 1338 1288 1338 2009 
Q 1338 2731 1133 3434 
Q 928 4138 513 4856 
z
" transform="scale(0.015625)"/>
     </defs>
     <use xlink:href="#DejaVuSans-4c"/>
     <use xlink:href="#DejaVuSans-6f" x="53.962891"/>
     <use xlink:href="#DejaVuSans-73" x="115.144531"/>
     <use xlink:href="#DejaVuSans-73" x="167.244141"/>
     <use xlink:href="#DejaVuSans-20" x="219.34375"/>
     <use xlink:href="#DejaVuSans-28" x="251.130859"/>
     <use xlink:href="#DejaVuSans-41" x="290.144531"/>
     <use xlink:href="#DejaVuSans-63" x="356.802734"/>
     <use xlink:href="#DejaVuSans-74" x="411.783203"/>
     <use xlink:href="#DejaVuSans-6f" x="450.992188"/>
     <use xlink:href="#DejaVuSans-72" x="512.173828"/>
     <use xlink:href="#DejaVuSans-29" x="553.287109"/>
    </g>
   </g>
  </g>
 </g>
 <defs>
  <clipPath id="pbc5c9942d4">
   <rect x="57.6" y="41.472" width="357.12" height="266.112"/>
  </clipPath>
 </defs>
</svg>
